G75*
G70*
%OFA0B0*%
%FSLAX24Y24*%
%IPPOS*%
%LPD*%
%AMOC8*
5,1,8,0,0,1.08239X$1,22.5*
%
%ADD10R,0.0690X0.0592*%
%ADD11R,0.0592X0.0690*%
%ADD12C,0.0671*%
%ADD13C,0.0867*%
%ADD14OC8,0.0671*%
%ADD15R,0.0789X0.0789*%
%ADD16R,0.0710X0.0790*%
%ADD17R,0.0671X0.0671*%
%ADD18OC8,0.0930*%
%ADD19R,0.0200X0.0470*%
%ADD20R,0.0790X0.0710*%
%ADD21R,0.0789X0.0710*%
%ADD22R,0.0316X0.0946*%
%ADD23R,0.0710X0.0789*%
%ADD24C,0.2442*%
%ADD25C,0.0358*%
%ADD26C,0.0457*%
D10*
X017869Y009782D03*
X020999Y009782D03*
X022397Y009782D03*
X025527Y009782D03*
X026924Y009782D03*
X030054Y009782D03*
X031452Y009782D03*
X034582Y009782D03*
X035980Y009782D03*
X039109Y009782D03*
X040507Y009782D03*
X043637Y009782D03*
X045035Y009782D03*
X048165Y009782D03*
X049562Y009782D03*
X052692Y009782D03*
X054090Y009782D03*
X057220Y009782D03*
X058716Y009782D03*
X061846Y009782D03*
X061846Y011554D03*
X058716Y011554D03*
X057220Y011554D03*
X054090Y011554D03*
X052692Y011554D03*
X049562Y011554D03*
X048165Y011554D03*
X045035Y011554D03*
X043637Y011554D03*
X040507Y011554D03*
X039109Y011554D03*
X035980Y011554D03*
X034582Y011554D03*
X031452Y011554D03*
X030054Y011554D03*
X026924Y011554D03*
X025527Y011554D03*
X022397Y011554D03*
X020999Y011554D03*
X017869Y011554D03*
X013913Y013128D03*
X010783Y013128D03*
X006531Y013128D03*
X003401Y013128D03*
X003401Y014900D03*
X006531Y014900D03*
X010783Y014900D03*
X013913Y014900D03*
X013322Y017065D03*
X010192Y017065D03*
X007121Y017065D03*
X003991Y017065D03*
X003991Y018837D03*
X007121Y018837D03*
X010192Y018837D03*
X013322Y018837D03*
X065704Y018640D03*
X068834Y018640D03*
X071413Y018640D03*
X074543Y018640D03*
X074543Y017262D03*
X071413Y017262D03*
X068834Y017262D03*
X065704Y017262D03*
X065704Y015491D03*
X068834Y015491D03*
X071413Y015491D03*
X074543Y015491D03*
X074543Y013719D03*
X071413Y013719D03*
X068834Y013719D03*
X065704Y013719D03*
X065704Y011947D03*
X068834Y011947D03*
X071413Y011947D03*
X074543Y011947D03*
X074543Y020412D03*
X071413Y020412D03*
X068834Y020412D03*
X065704Y020412D03*
D11*
X009543Y015579D03*
X007771Y015579D03*
X007771Y012449D03*
X009543Y012449D03*
D12*
X027111Y021199D03*
X027820Y021199D03*
X028529Y021199D03*
X029237Y021199D03*
X029946Y021199D03*
X030655Y021199D03*
X031363Y021199D03*
X032072Y021199D03*
X032781Y021199D03*
X033489Y021199D03*
X034198Y021199D03*
X034907Y021199D03*
X035615Y021199D03*
X036324Y021199D03*
X037033Y021199D03*
X037741Y021199D03*
X038450Y021199D03*
X039159Y021199D03*
X039867Y021199D03*
X040576Y021199D03*
X041285Y021199D03*
X041993Y021199D03*
X042702Y021199D03*
X043411Y021199D03*
X044119Y021199D03*
X044828Y021199D03*
X045537Y021199D03*
X046245Y021199D03*
X046954Y021199D03*
X047663Y021199D03*
X048371Y021199D03*
X049080Y021199D03*
X049789Y021199D03*
X050497Y021199D03*
X051206Y021199D03*
X051915Y021199D03*
D13*
X057426Y020609D03*
X021403Y020609D03*
D14*
X017375Y018246D03*
X016375Y018246D03*
X016375Y015687D03*
X017375Y015687D03*
X061651Y015687D03*
X062651Y015687D03*
X062651Y018246D03*
X061651Y018246D03*
D15*
X069139Y009683D03*
X070123Y009683D03*
X071107Y009683D03*
X053243Y005057D03*
X049306Y005057D03*
X045369Y005057D03*
X041432Y005057D03*
X037495Y005057D03*
X033558Y005057D03*
X029621Y005057D03*
X025684Y005057D03*
X021747Y005057D03*
X017810Y005057D03*
X018794Y008010D03*
X019779Y008010D03*
X020763Y008010D03*
X026668Y008010D03*
X027653Y008010D03*
X028637Y008010D03*
X034543Y008010D03*
X035527Y008010D03*
X036511Y008010D03*
X042417Y008010D03*
X043401Y008010D03*
X044385Y008010D03*
X050291Y008010D03*
X051275Y008010D03*
X052259Y008010D03*
D16*
X047947Y007321D03*
X046827Y007321D03*
X061591Y003739D03*
X062711Y003739D03*
X063756Y003739D03*
X064876Y003739D03*
D17*
X065399Y005156D03*
X066777Y005156D03*
X066777Y006337D03*
X065399Y006337D03*
X073470Y009093D03*
X074848Y009093D03*
X074848Y010077D03*
X073470Y010077D03*
X070911Y014605D03*
X069533Y014605D03*
X069533Y017951D03*
X070911Y017951D03*
X056147Y006337D03*
X054769Y006337D03*
X054769Y005156D03*
X056147Y005156D03*
X048076Y005156D03*
X046698Y005156D03*
X046698Y006337D03*
X048076Y006337D03*
X040202Y006337D03*
X038824Y006337D03*
X038824Y005156D03*
X040202Y005156D03*
X032328Y005156D03*
X030950Y005156D03*
X030950Y006337D03*
X032328Y006337D03*
X024454Y006337D03*
X023076Y006337D03*
X023076Y005156D03*
X024454Y005156D03*
X016580Y006534D03*
X015202Y006534D03*
X015202Y010077D03*
X016580Y010077D03*
X009346Y017557D03*
X007968Y017557D03*
X007968Y018345D03*
X009346Y018345D03*
D18*
X015300Y003778D03*
X016481Y003778D03*
X015300Y007715D03*
X015300Y009014D03*
X002111Y012439D03*
X020025Y019132D03*
X021403Y019132D03*
X004867Y020805D03*
X003489Y020805D03*
X002111Y020805D03*
X030852Y008699D03*
X032426Y008699D03*
X046009Y008502D03*
X048765Y008502D03*
X058017Y007715D03*
X059395Y007715D03*
X076206Y007124D03*
X076206Y008502D03*
X076127Y014211D03*
D19*
X041964Y014440D03*
X041708Y014440D03*
X041452Y014440D03*
X041196Y014440D03*
X040940Y014440D03*
X040684Y014440D03*
X040428Y014440D03*
X040172Y014440D03*
X039917Y014440D03*
X039661Y014440D03*
X039405Y014440D03*
X039149Y014440D03*
X038893Y014440D03*
X038637Y014440D03*
X038637Y016738D03*
X038893Y016738D03*
X039149Y016738D03*
X039405Y016738D03*
X039661Y016738D03*
X039917Y016738D03*
X040172Y016738D03*
X040428Y016738D03*
X040684Y016738D03*
X040940Y016738D03*
X041196Y016738D03*
X041452Y016738D03*
X041708Y016738D03*
X041964Y016738D03*
D20*
X062978Y006385D03*
X062978Y005265D03*
D21*
X037781Y015038D03*
X037781Y016140D03*
X027702Y016140D03*
X027702Y015038D03*
X020222Y015038D03*
X019828Y013975D03*
X019828Y012872D03*
X020222Y016140D03*
X019237Y016809D03*
X019237Y017912D03*
X023174Y019368D03*
X024159Y019368D03*
X025143Y019368D03*
X026127Y019368D03*
X026127Y020471D03*
X025143Y020471D03*
X024159Y020471D03*
X023174Y020471D03*
X051718Y016928D03*
X051718Y015825D03*
D22*
X052511Y014565D03*
X053011Y014565D03*
X053511Y014565D03*
X054011Y014565D03*
X054511Y014565D03*
X055011Y014565D03*
X055511Y014565D03*
X056011Y014565D03*
X056511Y014565D03*
X057011Y014565D03*
X057511Y014565D03*
X058011Y014565D03*
X058011Y018187D03*
X057511Y018187D03*
X057011Y018187D03*
X056511Y018187D03*
X056011Y018187D03*
X055511Y018187D03*
X055011Y018187D03*
X054511Y018187D03*
X054011Y018187D03*
X053511Y018187D03*
X053011Y018187D03*
X052511Y018187D03*
X026515Y017400D03*
X026015Y017400D03*
X025515Y017400D03*
X025015Y017400D03*
X024515Y017400D03*
X024015Y017400D03*
X023515Y017400D03*
X023015Y017400D03*
X022515Y017400D03*
X022015Y017400D03*
X021515Y017400D03*
X021015Y017400D03*
X021015Y013778D03*
X021515Y013778D03*
X022015Y013778D03*
X022515Y013778D03*
X023015Y013778D03*
X023515Y013778D03*
X024015Y013778D03*
X024515Y013778D03*
X025015Y013778D03*
X025515Y013778D03*
X026015Y013778D03*
X026515Y013778D03*
D23*
X016639Y011455D03*
X015537Y011455D03*
X014080Y012242D03*
X012978Y012242D03*
X023214Y008699D03*
X024316Y008699D03*
X024316Y007617D03*
X023214Y007617D03*
X031088Y007617D03*
X032190Y007617D03*
X068509Y010668D03*
X069611Y010668D03*
X070635Y010668D03*
X071737Y010668D03*
D24*
X075044Y004861D03*
X008657Y020313D03*
D25*
X006165Y019553D03*
X004165Y020053D03*
X010352Y017991D03*
X007665Y017053D03*
X007915Y016803D03*
X008165Y016491D03*
X007165Y016491D03*
X006477Y017428D03*
X006727Y017678D03*
X011852Y019178D03*
X012352Y019428D03*
X018352Y018053D03*
X020602Y018303D03*
X020540Y017241D03*
X020540Y016866D03*
X020790Y016366D03*
X020790Y015991D03*
X020352Y015616D03*
X020790Y015303D03*
X019665Y015303D03*
X020790Y014803D03*
X019790Y014491D03*
X023540Y015741D03*
X024290Y015678D03*
X024727Y015678D03*
X025227Y015303D03*
X025415Y015616D03*
X024727Y016053D03*
X024415Y016241D03*
X025352Y016303D03*
X025727Y016741D03*
X027102Y016741D03*
X027915Y016741D03*
X029227Y017241D03*
X028790Y018178D03*
X028102Y018178D03*
X028290Y018553D03*
X027352Y018553D03*
X025977Y018303D03*
X025227Y018178D03*
X024727Y018053D03*
X025227Y018553D03*
X024290Y018803D03*
X023790Y018553D03*
X020977Y019616D03*
X025665Y019866D03*
X026977Y019866D03*
X026977Y020553D03*
X028915Y020678D03*
X029352Y020428D03*
X032665Y020678D03*
X033915Y020178D03*
X034165Y019928D03*
X036040Y020178D03*
X036477Y019928D03*
X041477Y019991D03*
X042227Y019053D03*
X043665Y018178D03*
X041977Y017491D03*
X041727Y017241D03*
X041352Y017241D03*
X040977Y017241D03*
X040602Y017241D03*
X040227Y017241D03*
X039415Y017241D03*
X038915Y017241D03*
X037790Y017678D03*
X037540Y017428D03*
X037290Y017803D03*
X037102Y017241D03*
X036727Y017241D03*
X036352Y017241D03*
X034665Y017241D03*
X034290Y017116D03*
X033915Y017116D03*
X033415Y017241D03*
X032915Y017366D03*
X034227Y017491D03*
X037040Y016491D03*
X038540Y015803D03*
X039665Y015678D03*
X040165Y015803D03*
X040540Y015803D03*
X041040Y015803D03*
X040165Y015303D03*
X039915Y015053D03*
X038540Y015428D03*
X038352Y015116D03*
X036915Y015366D03*
X037165Y015616D03*
X036540Y015303D03*
X036290Y014928D03*
X036477Y014616D03*
X035165Y014303D03*
X033665Y014741D03*
X035165Y014991D03*
X035227Y015553D03*
X032102Y015616D03*
X032102Y014928D03*
X031602Y014678D03*
X030415Y013741D03*
X029977Y013803D03*
X029290Y013553D03*
X029102Y013866D03*
X028602Y013553D03*
X027540Y013866D03*
X028102Y014178D03*
X028852Y014178D03*
X028602Y014678D03*
X027102Y014678D03*
X027102Y015053D03*
X025977Y014616D03*
X025665Y014803D03*
X025665Y014428D03*
X024540Y014491D03*
X027040Y013366D03*
X027540Y013053D03*
X028040Y012553D03*
X027102Y012366D03*
X025477Y012116D03*
X026040Y011803D03*
X027477Y011428D03*
X027790Y011741D03*
X028477Y011491D03*
X028915Y011866D03*
X029290Y011866D03*
X029915Y012053D03*
X030665Y012741D03*
X029102Y012678D03*
X029102Y013053D03*
X025977Y013116D03*
X024540Y013053D03*
X023977Y012116D03*
X024227Y011491D03*
X021540Y012053D03*
X020540Y012491D03*
X020790Y012741D03*
X020790Y013116D03*
X017415Y012178D03*
X016790Y012053D03*
X016415Y012116D03*
X014977Y012553D03*
X013540Y012303D03*
X012415Y012428D03*
X012415Y012053D03*
X014415Y011678D03*
X014977Y011491D03*
X014977Y011116D03*
X015790Y010866D03*
X018852Y011116D03*
X019665Y011241D03*
X019352Y010241D03*
X021790Y010303D03*
X024852Y009053D03*
X025352Y008928D03*
X025852Y008803D03*
X024852Y008678D03*
X023665Y008178D03*
X022665Y007741D03*
X021977Y007678D03*
X021977Y008678D03*
X020790Y008741D03*
X019227Y007241D03*
X018977Y006991D03*
X017352Y006303D03*
X022540Y006241D03*
X022540Y005178D03*
X028790Y007053D03*
X029790Y007303D03*
X030290Y007866D03*
X030540Y008116D03*
X028977Y008803D03*
X029852Y009303D03*
X029290Y009553D03*
X028727Y009553D03*
X030852Y009428D03*
X028165Y010616D03*
X029540Y011116D03*
X030165Y010678D03*
X031040Y010928D03*
X030790Y011178D03*
X031415Y010678D03*
X036665Y009803D03*
X038040Y010178D03*
X038352Y009678D03*
X040040Y009116D03*
X040352Y009303D03*
X041227Y009678D03*
X041977Y009678D03*
X043352Y009178D03*
X044290Y009741D03*
X045540Y010053D03*
X045790Y009803D03*
X047165Y010116D03*
X049227Y010303D03*
X049040Y010678D03*
X049540Y010803D03*
X049665Y009303D03*
X050040Y009116D03*
X050540Y009241D03*
X047102Y008741D03*
X047915Y007928D03*
X049040Y007053D03*
X049415Y006678D03*
X046165Y006241D03*
X045977Y006678D03*
X044727Y006116D03*
X046165Y005178D03*
X042165Y003491D03*
X041540Y003303D03*
X038727Y004366D03*
X037727Y003616D03*
X038415Y003303D03*
X033415Y003678D03*
X032727Y003366D03*
X030727Y003678D03*
X032852Y003991D03*
X031727Y004178D03*
X030602Y004616D03*
X030415Y006053D03*
X030415Y006616D03*
X031227Y006866D03*
X032852Y006116D03*
X036977Y006491D03*
X037977Y006678D03*
X038290Y006491D03*
X037665Y007178D03*
X039540Y007116D03*
X040727Y006116D03*
X038790Y005803D03*
X037852Y005803D03*
X042415Y007241D03*
X040040Y008366D03*
X039665Y008366D03*
X038540Y010616D03*
X039665Y010678D03*
X039227Y010928D03*
X038540Y011116D03*
X040477Y010741D03*
X040852Y010741D03*
X044352Y010741D03*
X038665Y012178D03*
X038665Y012553D03*
X038415Y012803D03*
X039665Y013303D03*
X039415Y013553D03*
X038727Y013491D03*
X038352Y013616D03*
X037165Y013678D03*
X038415Y013991D03*
X037165Y013303D03*
X040477Y013741D03*
X040727Y013491D03*
X041227Y013803D03*
X041477Y013553D03*
X041977Y013678D03*
X043290Y013428D03*
X041977Y013178D03*
X041977Y012803D03*
X042415Y012553D03*
X042227Y014866D03*
X044102Y016428D03*
X044477Y016803D03*
X042977Y016741D03*
X042977Y017116D03*
X041352Y017866D03*
X040977Y017866D03*
X040602Y017866D03*
X039977Y017991D03*
X046790Y019928D03*
X047165Y019803D03*
X047977Y019928D03*
X048477Y019803D03*
X049477Y020428D03*
X049915Y020678D03*
X052352Y020116D03*
X051852Y019241D03*
X051977Y018741D03*
X050852Y018616D03*
X053040Y017553D03*
X053540Y017553D03*
X057665Y017241D03*
X059165Y016803D03*
X061540Y016928D03*
X062040Y017053D03*
X063290Y017241D03*
X062165Y016491D03*
X064165Y016303D03*
X067477Y015491D03*
X068290Y015428D03*
X069540Y015803D03*
X070102Y015303D03*
X068665Y016303D03*
X069852Y016803D03*
X073165Y016616D03*
X066977Y018178D03*
X066665Y018366D03*
X069727Y019241D03*
X070040Y019053D03*
X070665Y019053D03*
X070665Y018553D03*
X072540Y019303D03*
X068040Y020491D03*
X063665Y020366D03*
X060415Y019491D03*
X057540Y018866D03*
X057040Y018866D03*
X056540Y018866D03*
X056040Y018866D03*
X055290Y018866D03*
X054540Y018866D03*
X055852Y019491D03*
X061165Y018741D03*
X060165Y017741D03*
X062915Y014366D03*
X066852Y012866D03*
X066665Y012303D03*
X066852Y011678D03*
X071977Y011741D03*
X072727Y011741D03*
X067352Y009428D03*
X067352Y009053D03*
X069602Y008178D03*
X070290Y008553D03*
X071040Y009053D03*
X073977Y009053D03*
X064290Y006053D03*
X063915Y006053D03*
X064102Y005428D03*
X064477Y005428D03*
X063540Y005428D03*
X061415Y005241D03*
X062727Y004616D03*
X061165Y006553D03*
X060102Y007241D03*
X061165Y007741D03*
X061540Y007741D03*
X062602Y008116D03*
X063102Y008366D03*
X063790Y008241D03*
X063227Y007866D03*
X063290Y007366D03*
X063915Y006803D03*
X058290Y006553D03*
X057040Y007116D03*
X056790Y007366D03*
X029727Y015553D03*
X029227Y015803D03*
X028852Y015803D03*
X028290Y015803D03*
X028852Y015303D03*
X023540Y016116D03*
X016477Y016241D03*
X015352Y016053D03*
X015102Y016303D03*
X014915Y016803D03*
X013165Y016303D03*
X011665Y015428D03*
X010040Y015553D03*
X014915Y014366D03*
X015165Y014116D03*
X015727Y014053D03*
X014415Y013491D03*
X013665Y013803D03*
X013290Y013803D03*
X015102Y014928D03*
X015352Y015178D03*
X015540Y015491D03*
X015852Y015803D03*
X007227Y012178D03*
X005290Y011928D03*
X016227Y009053D03*
X027477Y007303D03*
X025477Y021428D03*
X026540Y021616D03*
X020477Y021366D03*
D26*
X026540Y018241D03*
X024977Y016678D03*
X033227Y014428D03*
X038977Y014928D03*
X035165Y016491D03*
X051040Y016928D03*
X063915Y017491D03*
X064165Y016741D03*
X067415Y016553D03*
X070165Y016553D03*
X072915Y016928D03*
X069790Y020866D03*
X063540Y012491D03*
X062977Y006991D03*
X066477Y007116D03*
X066102Y005178D03*
X056790Y006803D03*
X015790Y006678D03*
X008602Y017553D03*
X008602Y018366D03*
X014227Y017866D03*
M02*
