G75*
G70*
%OFA0B0*%
%FSLAX24Y24*%
%IPPOS*%
%LPD*%
%AMOC8*
5,1,8,0,0,1.08239X$1,22.5*
%
%ADD10R,0.0610X0.0512*%
%ADD11R,0.0512X0.0610*%
%ADD12R,0.0630X0.0710*%
%ADD13R,0.0591X0.0591*%
%ADD14R,0.0120X0.0390*%
%ADD15R,0.0710X0.0630*%
%ADD16R,0.0709X0.0630*%
%ADD17R,0.0236X0.0866*%
%ADD18R,0.0630X0.0709*%
D10*
X017869Y009782D03*
X020999Y009782D03*
X022397Y009782D03*
X025527Y009782D03*
X026924Y009782D03*
X030054Y009782D03*
X031452Y009782D03*
X034582Y009782D03*
X035980Y009782D03*
X039109Y009782D03*
X040507Y009782D03*
X043637Y009782D03*
X045035Y009782D03*
X048165Y009782D03*
X049562Y009782D03*
X052692Y009782D03*
X054090Y009782D03*
X057220Y009782D03*
X058716Y009782D03*
X061846Y009782D03*
X061846Y011554D03*
X058716Y011554D03*
X057220Y011554D03*
X054090Y011554D03*
X052692Y011554D03*
X049562Y011554D03*
X048165Y011554D03*
X045035Y011554D03*
X043637Y011554D03*
X040507Y011554D03*
X039109Y011554D03*
X035980Y011554D03*
X034582Y011554D03*
X031452Y011554D03*
X030054Y011554D03*
X026924Y011554D03*
X025527Y011554D03*
X022397Y011554D03*
X020999Y011554D03*
X017869Y011554D03*
X013913Y013128D03*
X010783Y013128D03*
X006531Y013128D03*
X003401Y013128D03*
X003401Y014900D03*
X006531Y014900D03*
X010783Y014900D03*
X013913Y014900D03*
X013322Y017065D03*
X010192Y017065D03*
X007121Y017065D03*
X003991Y017065D03*
X003991Y018837D03*
X007121Y018837D03*
X010192Y018837D03*
X013322Y018837D03*
X065704Y018640D03*
X068834Y018640D03*
X071413Y018640D03*
X074543Y018640D03*
X074543Y017262D03*
X071413Y017262D03*
X068834Y017262D03*
X065704Y017262D03*
X065704Y015491D03*
X068834Y015491D03*
X071413Y015491D03*
X074543Y015491D03*
X074543Y013719D03*
X071413Y013719D03*
X068834Y013719D03*
X065704Y013719D03*
X065704Y011947D03*
X068834Y011947D03*
X071413Y011947D03*
X074543Y011947D03*
X074543Y020412D03*
X071413Y020412D03*
X068834Y020412D03*
X065704Y020412D03*
D11*
X009543Y015579D03*
X007771Y015579D03*
X007771Y012449D03*
X009543Y012449D03*
D12*
X046827Y007321D03*
X047947Y007321D03*
X061591Y003739D03*
X062711Y003739D03*
X063756Y003739D03*
X064876Y003739D03*
D13*
X015202Y006534D03*
X016580Y006534D03*
X023076Y006337D03*
X024454Y006337D03*
X024454Y005156D03*
X023076Y005156D03*
X030950Y005156D03*
X032328Y005156D03*
X032328Y006337D03*
X030950Y006337D03*
X038824Y006337D03*
X040202Y006337D03*
X040202Y005156D03*
X038824Y005156D03*
X046698Y005156D03*
X048076Y005156D03*
X048076Y006337D03*
X046698Y006337D03*
X054769Y006337D03*
X056147Y006337D03*
X056147Y005156D03*
X054769Y005156D03*
X065399Y005156D03*
X066777Y005156D03*
X066777Y006337D03*
X065399Y006337D03*
X073470Y009093D03*
X074848Y009093D03*
X074848Y010077D03*
X073470Y010077D03*
X070911Y014605D03*
X069533Y014605D03*
X069533Y017951D03*
X070911Y017951D03*
X016580Y010077D03*
X015202Y010077D03*
X009346Y017557D03*
X007968Y017557D03*
X007968Y018345D03*
X009346Y018345D03*
D14*
X038637Y016738D03*
X038893Y016738D03*
X039149Y016738D03*
X039405Y016738D03*
X039661Y016738D03*
X039917Y016738D03*
X040172Y016738D03*
X040428Y016738D03*
X040684Y016738D03*
X040940Y016738D03*
X041196Y016738D03*
X041452Y016738D03*
X041708Y016738D03*
X041964Y016738D03*
X041964Y014440D03*
X041708Y014440D03*
X041452Y014440D03*
X041196Y014440D03*
X040940Y014440D03*
X040684Y014440D03*
X040428Y014440D03*
X040172Y014440D03*
X039917Y014440D03*
X039661Y014440D03*
X039405Y014440D03*
X039149Y014440D03*
X038893Y014440D03*
X038637Y014440D03*
D15*
X062978Y006385D03*
X062978Y005265D03*
D16*
X037781Y015038D03*
X037781Y016140D03*
X027702Y016140D03*
X027702Y015038D03*
X020222Y015038D03*
X019828Y013975D03*
X019828Y012872D03*
X020222Y016140D03*
X019237Y016809D03*
X019237Y017912D03*
X023174Y019368D03*
X024159Y019368D03*
X025143Y019368D03*
X026127Y019368D03*
X026127Y020471D03*
X025143Y020471D03*
X024159Y020471D03*
X023174Y020471D03*
X051718Y016928D03*
X051718Y015825D03*
D17*
X052511Y014565D03*
X053011Y014565D03*
X053511Y014565D03*
X054011Y014565D03*
X054511Y014565D03*
X055011Y014565D03*
X055511Y014565D03*
X056011Y014565D03*
X056511Y014565D03*
X057011Y014565D03*
X057511Y014565D03*
X058011Y014565D03*
X058011Y018187D03*
X057511Y018187D03*
X057011Y018187D03*
X056511Y018187D03*
X056011Y018187D03*
X055511Y018187D03*
X055011Y018187D03*
X054511Y018187D03*
X054011Y018187D03*
X053511Y018187D03*
X053011Y018187D03*
X052511Y018187D03*
X026515Y017400D03*
X026015Y017400D03*
X025515Y017400D03*
X025015Y017400D03*
X024515Y017400D03*
X024015Y017400D03*
X023515Y017400D03*
X023015Y017400D03*
X022515Y017400D03*
X022015Y017400D03*
X021515Y017400D03*
X021015Y017400D03*
X021015Y013778D03*
X021515Y013778D03*
X022015Y013778D03*
X022515Y013778D03*
X023015Y013778D03*
X023515Y013778D03*
X024015Y013778D03*
X024515Y013778D03*
X025015Y013778D03*
X025515Y013778D03*
X026015Y013778D03*
X026515Y013778D03*
D18*
X016639Y011455D03*
X015537Y011455D03*
X014080Y012242D03*
X012978Y012242D03*
X023214Y008699D03*
X024316Y008699D03*
X024316Y007617D03*
X023214Y007617D03*
X031088Y007617D03*
X032190Y007617D03*
X068509Y010668D03*
X069611Y010668D03*
X070635Y010668D03*
X071737Y010668D03*
M02*
