G75*
G70*
%OFA0B0*%
%FSLAX24Y24*%
%IPPOS*%
%LPD*%
%AMOC8*
5,1,8,0,0,1.08239X$1,22.5*
%
%ADD10C,0.0000*%
%ADD11C,0.0060*%
%ADD12C,0.0030*%
%ADD13C,0.0080*%
%ADD14R,0.0620X0.0240*%
%ADD15C,0.0200*%
%ADD16C,0.0040*%
%ADD17C,0.0020*%
%ADD18R,0.0240X0.0620*%
%ADD19C,0.0100*%
%ADD20R,0.0340X0.0300*%
%ADD21C,0.0256*%
D10*
X014513Y003778D02*
X014513Y010865D01*
X014511Y010919D01*
X014506Y010972D01*
X014497Y011025D01*
X014484Y011077D01*
X014468Y011129D01*
X014448Y011179D01*
X014425Y011227D01*
X014398Y011274D01*
X014369Y011319D01*
X014336Y011362D01*
X014301Y011402D01*
X014263Y011440D01*
X014223Y011475D01*
X014180Y011508D01*
X014135Y011537D01*
X014088Y011564D01*
X014040Y011587D01*
X013990Y011607D01*
X013938Y011623D01*
X013886Y011636D01*
X013833Y011645D01*
X013780Y011650D01*
X013726Y011652D01*
X002111Y011652D01*
X002057Y011654D01*
X002004Y011659D01*
X001951Y011668D01*
X001899Y011681D01*
X001847Y011697D01*
X001797Y011717D01*
X001749Y011740D01*
X001702Y011767D01*
X001657Y011796D01*
X001614Y011829D01*
X001574Y011864D01*
X001536Y011902D01*
X001501Y011942D01*
X001468Y011985D01*
X001439Y012030D01*
X001412Y012077D01*
X001389Y012125D01*
X001369Y012175D01*
X001353Y012227D01*
X001340Y012279D01*
X001331Y012332D01*
X001326Y012385D01*
X001324Y012439D01*
X001324Y015195D01*
X002111Y015195D01*
X002111Y017557D01*
X001324Y017557D01*
X001324Y021888D01*
X012741Y021888D01*
X012780Y021886D01*
X012818Y021880D01*
X012855Y021871D01*
X012892Y021858D01*
X012927Y021841D01*
X012960Y021822D01*
X012991Y021799D01*
X013020Y021773D01*
X013046Y021744D01*
X013069Y021713D01*
X013088Y021680D01*
X013105Y021645D01*
X013118Y021608D01*
X013127Y021571D01*
X013133Y021533D01*
X013135Y021494D01*
X013135Y020904D01*
X013922Y020904D01*
X013922Y021494D01*
X013924Y021533D01*
X013930Y021571D01*
X013939Y021608D01*
X013952Y021645D01*
X013969Y021680D01*
X013988Y021713D01*
X014011Y021744D01*
X014037Y021773D01*
X014066Y021799D01*
X014097Y021822D01*
X014130Y021841D01*
X014165Y021858D01*
X014202Y021871D01*
X014239Y021880D01*
X014277Y021886D01*
X014316Y021888D01*
X015300Y021888D01*
X015301Y021886D02*
X015300Y021691D01*
X015302Y021652D01*
X015308Y021614D01*
X015317Y021577D01*
X015330Y021540D01*
X015347Y021505D01*
X015366Y021472D01*
X015389Y021441D01*
X015415Y021412D01*
X015444Y021386D01*
X015475Y021363D01*
X015508Y021344D01*
X015543Y021327D01*
X015580Y021314D01*
X015617Y021305D01*
X015655Y021299D01*
X015694Y021297D01*
X015694Y021298D02*
X018056Y021298D01*
X018056Y021297D02*
X018095Y021299D01*
X018133Y021305D01*
X018170Y021314D01*
X018207Y021327D01*
X018242Y021344D01*
X018275Y021363D01*
X018306Y021386D01*
X018335Y021412D01*
X018361Y021441D01*
X018384Y021472D01*
X018403Y021505D01*
X018420Y021540D01*
X018433Y021577D01*
X018442Y021614D01*
X018448Y021652D01*
X018450Y021691D01*
X018450Y021887D01*
X018450Y021888D02*
X060281Y021888D01*
X060281Y021691D01*
X060283Y021652D01*
X060289Y021614D01*
X060298Y021576D01*
X060311Y021540D01*
X060328Y021505D01*
X060348Y021472D01*
X060371Y021441D01*
X060397Y021412D01*
X060426Y021386D01*
X060457Y021363D01*
X060491Y021343D01*
X060526Y021327D01*
X060562Y021314D01*
X060600Y021304D01*
X060638Y021299D01*
X060677Y021297D01*
X060674Y021298D02*
X064021Y021298D01*
X064021Y021297D02*
X064060Y021299D01*
X064098Y021305D01*
X064135Y021314D01*
X064172Y021327D01*
X064207Y021344D01*
X064240Y021363D01*
X064271Y021386D01*
X064300Y021412D01*
X064326Y021441D01*
X064349Y021472D01*
X064368Y021505D01*
X064385Y021540D01*
X064398Y021577D01*
X064407Y021614D01*
X064413Y021652D01*
X064415Y021691D01*
X064413Y021887D01*
X064415Y021888D02*
X076127Y021888D01*
X076915Y021101D01*
X076915Y017557D01*
X076127Y017557D01*
X076127Y015195D01*
X076915Y015195D01*
X076915Y010471D01*
X076913Y010432D01*
X076907Y010394D01*
X076898Y010357D01*
X076885Y010320D01*
X076868Y010285D01*
X076849Y010252D01*
X076826Y010221D01*
X076800Y010192D01*
X076771Y010166D01*
X076740Y010143D01*
X076707Y010124D01*
X076672Y010107D01*
X076635Y010094D01*
X076598Y010085D01*
X076560Y010079D01*
X076521Y010077D01*
X075733Y010077D01*
X075733Y009290D01*
X076521Y009290D01*
X076560Y009288D01*
X076598Y009282D01*
X076635Y009273D01*
X076672Y009260D01*
X076707Y009243D01*
X076740Y009224D01*
X076771Y009201D01*
X076800Y009175D01*
X076826Y009146D01*
X076849Y009115D01*
X076868Y009082D01*
X076885Y009047D01*
X076898Y009010D01*
X076907Y008973D01*
X076913Y008935D01*
X076915Y008896D01*
X076915Y003778D01*
X076127Y002991D01*
X074159Y002991D01*
X074159Y002990D02*
X074120Y002992D01*
X074082Y002998D01*
X074045Y003007D01*
X074008Y003020D01*
X073973Y003037D01*
X073940Y003056D01*
X073909Y003079D01*
X073880Y003105D01*
X073854Y003134D01*
X073831Y003165D01*
X073812Y003198D01*
X073795Y003233D01*
X073782Y003270D01*
X073773Y003307D01*
X073767Y003345D01*
X073765Y003384D01*
X073765Y003975D01*
X072978Y003975D01*
X072978Y003384D01*
X072976Y003345D01*
X072970Y003307D01*
X072961Y003270D01*
X072948Y003233D01*
X072931Y003198D01*
X072912Y003165D01*
X072889Y003134D01*
X072863Y003105D01*
X072834Y003079D01*
X072803Y003056D01*
X072770Y003037D01*
X072735Y003020D01*
X072698Y003007D01*
X072661Y002998D01*
X072623Y002992D01*
X072584Y002990D01*
X072584Y002991D02*
X061560Y002991D01*
X061506Y002993D01*
X061453Y002998D01*
X061400Y003007D01*
X061348Y003020D01*
X061296Y003036D01*
X061246Y003056D01*
X061198Y003079D01*
X061151Y003106D01*
X061106Y003135D01*
X061063Y003168D01*
X061023Y003203D01*
X060985Y003241D01*
X060950Y003281D01*
X060917Y003324D01*
X060888Y003369D01*
X060861Y003416D01*
X060838Y003464D01*
X060818Y003514D01*
X060802Y003566D01*
X060789Y003618D01*
X060780Y003671D01*
X060775Y003724D01*
X060773Y003778D01*
X060773Y004959D01*
X060771Y005036D01*
X060765Y005113D01*
X060756Y005190D01*
X060743Y005266D01*
X060726Y005342D01*
X060705Y005416D01*
X060681Y005490D01*
X060653Y005562D01*
X060622Y005632D01*
X060587Y005701D01*
X060549Y005769D01*
X060508Y005834D01*
X060463Y005897D01*
X060415Y005958D01*
X060365Y006017D01*
X060312Y006073D01*
X060256Y006126D01*
X060197Y006176D01*
X060136Y006224D01*
X060073Y006269D01*
X060008Y006310D01*
X059940Y006348D01*
X059871Y006383D01*
X059801Y006414D01*
X059729Y006442D01*
X059655Y006466D01*
X059581Y006487D01*
X059505Y006504D01*
X059429Y006517D01*
X059352Y006526D01*
X059275Y006532D01*
X059198Y006534D01*
X059121Y006532D01*
X059044Y006526D01*
X058967Y006517D01*
X058891Y006504D01*
X058815Y006487D01*
X058741Y006466D01*
X058667Y006442D01*
X058595Y006414D01*
X058525Y006383D01*
X058456Y006348D01*
X058388Y006310D01*
X058323Y006269D01*
X058260Y006224D01*
X058199Y006176D01*
X058140Y006126D01*
X058084Y006073D01*
X058031Y006017D01*
X057981Y005958D01*
X057933Y005897D01*
X057888Y005834D01*
X057847Y005769D01*
X057809Y005701D01*
X057774Y005632D01*
X057743Y005562D01*
X057715Y005490D01*
X057691Y005416D01*
X057670Y005342D01*
X057653Y005266D01*
X057640Y005190D01*
X057631Y005113D01*
X057625Y005036D01*
X057623Y004959D01*
X057623Y003778D01*
X057621Y003724D01*
X057616Y003671D01*
X057607Y003618D01*
X057594Y003566D01*
X057578Y003514D01*
X057558Y003464D01*
X057535Y003416D01*
X057508Y003369D01*
X057479Y003324D01*
X057446Y003281D01*
X057411Y003241D01*
X057373Y003203D01*
X057333Y003168D01*
X057290Y003135D01*
X057245Y003106D01*
X057198Y003079D01*
X057150Y003056D01*
X057100Y003036D01*
X057048Y003020D01*
X056996Y003007D01*
X056943Y002998D01*
X056890Y002993D01*
X056836Y002991D01*
X048568Y002991D01*
X048568Y002990D02*
X048529Y002992D01*
X048491Y002998D01*
X048454Y003007D01*
X048417Y003020D01*
X048382Y003037D01*
X048349Y003056D01*
X048318Y003079D01*
X048289Y003105D01*
X048263Y003134D01*
X048240Y003165D01*
X048221Y003198D01*
X048204Y003233D01*
X048191Y003270D01*
X048182Y003307D01*
X048176Y003345D01*
X048174Y003384D01*
X048174Y003778D01*
X046796Y003778D01*
X046796Y003384D01*
X046797Y003384D02*
X046795Y003345D01*
X046789Y003307D01*
X046780Y003270D01*
X046767Y003233D01*
X046750Y003198D01*
X046731Y003165D01*
X046708Y003134D01*
X046682Y003105D01*
X046653Y003079D01*
X046622Y003056D01*
X046589Y003037D01*
X046554Y003020D01*
X046517Y003007D01*
X046480Y002998D01*
X046442Y002992D01*
X046403Y002990D01*
X046403Y002991D02*
X032820Y002991D01*
X032820Y002990D02*
X032781Y002992D01*
X032743Y002998D01*
X032706Y003007D01*
X032669Y003020D01*
X032634Y003037D01*
X032601Y003056D01*
X032570Y003079D01*
X032541Y003105D01*
X032515Y003134D01*
X032492Y003165D01*
X032473Y003198D01*
X032456Y003233D01*
X032443Y003270D01*
X032434Y003307D01*
X032428Y003345D01*
X032426Y003384D01*
X032426Y003778D01*
X031048Y003778D01*
X031048Y003384D01*
X031049Y003384D02*
X031047Y003345D01*
X031041Y003307D01*
X031032Y003270D01*
X031019Y003233D01*
X031002Y003198D01*
X030983Y003165D01*
X030960Y003134D01*
X030934Y003105D01*
X030905Y003079D01*
X030874Y003056D01*
X030841Y003037D01*
X030806Y003020D01*
X030769Y003007D01*
X030732Y002998D01*
X030694Y002992D01*
X030655Y002990D01*
X030655Y002991D02*
X024946Y002991D01*
X024946Y002990D02*
X024907Y002992D01*
X024869Y002998D01*
X024832Y003007D01*
X024795Y003020D01*
X024760Y003037D01*
X024727Y003056D01*
X024696Y003079D01*
X024667Y003105D01*
X024641Y003134D01*
X024618Y003165D01*
X024599Y003198D01*
X024582Y003233D01*
X024569Y003270D01*
X024560Y003307D01*
X024554Y003345D01*
X024552Y003384D01*
X024552Y003778D01*
X023174Y003778D01*
X023174Y003384D01*
X023175Y003384D02*
X023173Y003345D01*
X023167Y003307D01*
X023158Y003270D01*
X023145Y003233D01*
X023128Y003198D01*
X023109Y003165D01*
X023086Y003134D01*
X023060Y003105D01*
X023031Y003079D01*
X023000Y003056D01*
X022967Y003037D01*
X022932Y003020D01*
X022895Y003007D01*
X022858Y002998D01*
X022820Y002992D01*
X022781Y002990D01*
X022781Y002991D02*
X015300Y002991D01*
X015246Y002993D01*
X015193Y002998D01*
X015140Y003007D01*
X015088Y003020D01*
X015036Y003036D01*
X014986Y003056D01*
X014938Y003079D01*
X014891Y003106D01*
X014846Y003135D01*
X014803Y003168D01*
X014763Y003203D01*
X014725Y003241D01*
X014690Y003281D01*
X014657Y003324D01*
X014628Y003369D01*
X014601Y003416D01*
X014578Y003464D01*
X014558Y003514D01*
X014542Y003566D01*
X014529Y003618D01*
X014520Y003671D01*
X014515Y003724D01*
X014513Y003778D01*
X015694Y012735D02*
X015694Y013128D01*
X018450Y013128D01*
X018450Y012735D01*
X015694Y012735D01*
X021009Y020609D02*
X021011Y020648D01*
X021017Y020687D01*
X021027Y020725D01*
X021040Y020762D01*
X021057Y020797D01*
X021077Y020831D01*
X021101Y020862D01*
X021128Y020891D01*
X021157Y020917D01*
X021189Y020940D01*
X021223Y020960D01*
X021259Y020976D01*
X021296Y020988D01*
X021335Y020997D01*
X021374Y021002D01*
X021413Y021003D01*
X021452Y021000D01*
X021491Y020993D01*
X021528Y020982D01*
X021565Y020968D01*
X021600Y020950D01*
X021633Y020929D01*
X021664Y020904D01*
X021692Y020877D01*
X021717Y020847D01*
X021739Y020814D01*
X021758Y020780D01*
X021773Y020744D01*
X021785Y020706D01*
X021793Y020668D01*
X021797Y020629D01*
X021797Y020589D01*
X021793Y020550D01*
X021785Y020512D01*
X021773Y020474D01*
X021758Y020438D01*
X021739Y020404D01*
X021717Y020371D01*
X021692Y020341D01*
X021664Y020314D01*
X021633Y020289D01*
X021600Y020268D01*
X021565Y020250D01*
X021528Y020236D01*
X021491Y020225D01*
X021452Y020218D01*
X021413Y020215D01*
X021374Y020216D01*
X021335Y020221D01*
X021296Y020230D01*
X021259Y020242D01*
X021223Y020258D01*
X021189Y020278D01*
X021157Y020301D01*
X021128Y020327D01*
X021101Y020356D01*
X021077Y020387D01*
X021057Y020421D01*
X021040Y020456D01*
X021027Y020493D01*
X021017Y020531D01*
X021011Y020570D01*
X021009Y020609D01*
X057032Y020609D02*
X057034Y020648D01*
X057040Y020687D01*
X057050Y020725D01*
X057063Y020762D01*
X057080Y020797D01*
X057100Y020831D01*
X057124Y020862D01*
X057151Y020891D01*
X057180Y020917D01*
X057212Y020940D01*
X057246Y020960D01*
X057282Y020976D01*
X057319Y020988D01*
X057358Y020997D01*
X057397Y021002D01*
X057436Y021003D01*
X057475Y021000D01*
X057514Y020993D01*
X057551Y020982D01*
X057588Y020968D01*
X057623Y020950D01*
X057656Y020929D01*
X057687Y020904D01*
X057715Y020877D01*
X057740Y020847D01*
X057762Y020814D01*
X057781Y020780D01*
X057796Y020744D01*
X057808Y020706D01*
X057816Y020668D01*
X057820Y020629D01*
X057820Y020589D01*
X057816Y020550D01*
X057808Y020512D01*
X057796Y020474D01*
X057781Y020438D01*
X057762Y020404D01*
X057740Y020371D01*
X057715Y020341D01*
X057687Y020314D01*
X057656Y020289D01*
X057623Y020268D01*
X057588Y020250D01*
X057551Y020236D01*
X057514Y020225D01*
X057475Y020218D01*
X057436Y020215D01*
X057397Y020216D01*
X057358Y020221D01*
X057319Y020230D01*
X057282Y020242D01*
X057246Y020258D01*
X057212Y020278D01*
X057180Y020301D01*
X057151Y020327D01*
X057124Y020356D01*
X057100Y020387D01*
X057080Y020421D01*
X057063Y020456D01*
X057050Y020493D01*
X057040Y020531D01*
X057034Y020570D01*
X057032Y020609D01*
X060576Y013128D02*
X060576Y012735D01*
X063332Y012735D01*
X063332Y013128D01*
X060576Y013128D01*
X067859Y007420D02*
X068647Y007420D01*
X068647Y006435D01*
X067859Y006435D01*
X067859Y007420D01*
X071600Y007420D02*
X071600Y006435D01*
X072387Y006435D01*
X072387Y007420D01*
X071600Y007420D01*
D11*
X075656Y007324D02*
X075656Y006924D01*
X076006Y006574D01*
X076406Y006574D01*
X076756Y006924D01*
X076756Y007324D01*
X076406Y007674D01*
X076006Y007674D01*
X075656Y007324D01*
X076006Y007952D02*
X076406Y007952D01*
X076756Y008302D01*
X076756Y008702D01*
X076406Y009052D01*
X076006Y009052D01*
X075656Y008702D01*
X075656Y008302D01*
X076006Y007952D01*
X059945Y007915D02*
X059945Y007515D01*
X059595Y007165D01*
X059195Y007165D01*
X058845Y007515D01*
X058845Y007915D01*
X059195Y008265D01*
X059595Y008265D01*
X059945Y007915D01*
X058567Y007915D02*
X058567Y007515D01*
X058217Y007165D01*
X057817Y007165D01*
X057467Y007515D01*
X057467Y007915D01*
X057817Y008265D01*
X058217Y008265D01*
X058567Y007915D01*
X049315Y008302D02*
X048965Y007952D01*
X048565Y007952D01*
X048215Y008302D01*
X048215Y008702D01*
X048565Y009052D01*
X048965Y009052D01*
X049315Y008702D01*
X049315Y008302D01*
X046559Y008302D02*
X046209Y007952D01*
X045809Y007952D01*
X045459Y008302D01*
X045459Y008702D01*
X045809Y009052D01*
X046209Y009052D01*
X046559Y008702D01*
X046559Y008302D01*
X043464Y010627D02*
X043294Y010457D01*
X037924Y010457D01*
X037924Y015997D01*
X043464Y015997D01*
X043464Y010627D01*
X042789Y010912D02*
X042791Y010941D01*
X042797Y010970D01*
X042806Y010998D01*
X042820Y011024D01*
X042836Y011048D01*
X042856Y011070D01*
X042879Y011089D01*
X042903Y011105D01*
X042930Y011117D01*
X042958Y011126D01*
X042987Y011131D01*
X043016Y011132D01*
X043046Y011129D01*
X043074Y011122D01*
X043102Y011112D01*
X043127Y011097D01*
X043151Y011080D01*
X043172Y011060D01*
X043190Y011037D01*
X043205Y011011D01*
X043217Y010984D01*
X043225Y010956D01*
X043229Y010927D01*
X043229Y010897D01*
X043225Y010868D01*
X043217Y010840D01*
X043205Y010813D01*
X043190Y010787D01*
X043172Y010764D01*
X043151Y010744D01*
X043127Y010727D01*
X043102Y010712D01*
X043074Y010702D01*
X043046Y010695D01*
X043016Y010692D01*
X042987Y010693D01*
X042958Y010698D01*
X042930Y010707D01*
X042903Y010719D01*
X042879Y010735D01*
X042856Y010754D01*
X042836Y010776D01*
X042820Y010800D01*
X042806Y010826D01*
X042797Y010854D01*
X042791Y010883D01*
X042789Y010912D01*
X032976Y008899D02*
X032976Y008499D01*
X032626Y008149D01*
X032226Y008149D01*
X031876Y008499D01*
X031876Y008899D01*
X032226Y009249D01*
X032626Y009249D01*
X032976Y008899D01*
X031402Y008899D02*
X031402Y008499D01*
X031052Y008149D01*
X030652Y008149D01*
X030302Y008499D01*
X030302Y008899D01*
X030652Y009249D01*
X031052Y009249D01*
X031402Y008899D01*
X032270Y010457D02*
X026900Y010457D01*
X026900Y015997D01*
X032441Y015997D01*
X032441Y010627D01*
X032270Y010457D01*
X031765Y010912D02*
X031767Y010941D01*
X031773Y010970D01*
X031782Y010998D01*
X031796Y011024D01*
X031812Y011048D01*
X031832Y011070D01*
X031855Y011089D01*
X031879Y011105D01*
X031906Y011117D01*
X031934Y011126D01*
X031963Y011131D01*
X031992Y011132D01*
X032022Y011129D01*
X032050Y011122D01*
X032078Y011112D01*
X032103Y011097D01*
X032127Y011080D01*
X032148Y011060D01*
X032166Y011037D01*
X032181Y011011D01*
X032193Y010984D01*
X032201Y010956D01*
X032205Y010927D01*
X032205Y010897D01*
X032201Y010868D01*
X032193Y010840D01*
X032181Y010813D01*
X032166Y010787D01*
X032148Y010764D01*
X032127Y010744D01*
X032103Y010727D01*
X032078Y010712D01*
X032050Y010702D01*
X032022Y010695D01*
X031992Y010692D01*
X031963Y010693D01*
X031934Y010698D01*
X031906Y010707D01*
X031879Y010719D01*
X031855Y010735D01*
X031832Y010754D01*
X031812Y010776D01*
X031796Y010800D01*
X031782Y010826D01*
X031773Y010854D01*
X031767Y010883D01*
X031765Y010912D01*
X025068Y010825D02*
X025068Y009405D01*
X024058Y009405D01*
X024058Y010825D02*
X025068Y010825D01*
X019538Y010825D02*
X018528Y010825D01*
X018528Y009405D01*
X019538Y009405D01*
X015850Y009214D02*
X015850Y008814D01*
X015500Y008464D01*
X015100Y008464D01*
X014750Y008814D01*
X014750Y009214D01*
X015100Y009564D01*
X015500Y009564D01*
X015850Y009214D01*
X015500Y008265D02*
X015100Y008265D01*
X014750Y007915D01*
X014750Y007515D01*
X015100Y007165D01*
X015500Y007165D01*
X015850Y007515D01*
X015850Y007915D01*
X015500Y008265D01*
X015500Y004328D02*
X015100Y004328D01*
X014750Y003978D01*
X014750Y003578D01*
X015100Y003228D01*
X015500Y003228D01*
X015850Y003578D01*
X015850Y003978D01*
X015500Y004328D01*
X015931Y003978D02*
X015931Y003578D01*
X016281Y003228D01*
X016681Y003228D01*
X017031Y003578D01*
X017031Y003978D01*
X016681Y004328D01*
X016281Y004328D01*
X015931Y003978D01*
X002661Y012239D02*
X002311Y011889D01*
X001911Y011889D01*
X001561Y012239D01*
X001561Y012639D01*
X001911Y012989D01*
X002311Y012989D01*
X002661Y012639D01*
X002661Y012239D01*
X021240Y012652D02*
X021240Y016952D01*
X021242Y016969D01*
X021246Y016986D01*
X021253Y017002D01*
X021263Y017016D01*
X021276Y017029D01*
X021290Y017039D01*
X021306Y017046D01*
X021323Y017050D01*
X021340Y017052D01*
X021740Y017052D01*
X022640Y017052D02*
X023040Y017052D01*
X023057Y017050D01*
X023074Y017046D01*
X023090Y017039D01*
X023104Y017029D01*
X023117Y017016D01*
X023127Y017002D01*
X023134Y016986D01*
X023138Y016969D01*
X023140Y016952D01*
X023140Y012652D01*
X023138Y012635D01*
X023134Y012618D01*
X023127Y012602D01*
X023117Y012588D01*
X023104Y012575D01*
X023090Y012565D01*
X023074Y012558D01*
X023057Y012554D01*
X023040Y012552D01*
X022640Y012552D01*
X021740Y012552D02*
X021340Y012552D01*
X021323Y012554D01*
X021306Y012558D01*
X021290Y012565D01*
X021276Y012575D01*
X021263Y012588D01*
X021253Y012602D01*
X021246Y012618D01*
X021242Y012635D01*
X021240Y012652D01*
X021940Y014552D02*
X022190Y014552D01*
X022440Y014552D01*
X022440Y014702D02*
X021940Y014702D01*
X021940Y014902D01*
X022440Y014902D01*
X022440Y014702D01*
X022440Y015052D02*
X022190Y015052D01*
X021940Y015052D01*
X023843Y017672D02*
X023843Y019092D01*
X024853Y019092D01*
X021953Y018932D02*
X021603Y018582D01*
X021203Y018582D01*
X020853Y018932D01*
X020853Y019332D01*
X021203Y019682D01*
X021603Y019682D01*
X021953Y019332D01*
X021953Y018932D01*
X020575Y018932D02*
X020225Y018582D01*
X019825Y018582D01*
X019475Y018932D01*
X019475Y019332D01*
X019825Y019682D01*
X020225Y019682D01*
X020575Y019332D01*
X020575Y018932D01*
X023843Y017672D02*
X024853Y017672D01*
X029373Y017672D02*
X030383Y017672D01*
X030383Y019092D01*
X029373Y019092D01*
X005417Y020605D02*
X005067Y020255D01*
X004667Y020255D01*
X004317Y020605D01*
X004317Y021005D01*
X004667Y021355D01*
X005067Y021355D01*
X005417Y021005D01*
X005417Y020605D01*
X004039Y020605D02*
X003689Y020255D01*
X003289Y020255D01*
X002939Y020605D01*
X002939Y021005D01*
X003289Y021355D01*
X003689Y021355D01*
X004039Y021005D01*
X004039Y020605D01*
X002661Y020605D02*
X002661Y021005D01*
X002311Y021355D01*
X001911Y021355D01*
X001561Y021005D01*
X001561Y020605D01*
X001911Y020255D01*
X002311Y020255D01*
X002661Y020605D01*
X075577Y014411D02*
X075577Y014011D01*
X075927Y013661D01*
X076327Y013661D01*
X076677Y014011D01*
X076677Y014411D01*
X076327Y014761D01*
X075927Y014761D01*
X075577Y014411D01*
D12*
X074980Y014373D02*
X074980Y014228D01*
X074690Y014228D01*
X074786Y014228D02*
X074786Y014373D01*
X074835Y014422D01*
X074931Y014422D01*
X074980Y014373D01*
X074931Y014523D02*
X074980Y014571D01*
X074980Y014668D01*
X074931Y014716D01*
X074883Y014716D01*
X074835Y014668D01*
X074786Y014716D01*
X074738Y014716D01*
X074690Y014668D01*
X074690Y014571D01*
X074738Y014523D01*
X074690Y014422D02*
X074786Y014325D01*
X074835Y014619D02*
X074835Y014668D01*
X074883Y014817D02*
X074980Y014914D01*
X074690Y014914D01*
X074690Y014817D02*
X074690Y015011D01*
X074885Y015700D02*
X075175Y015700D01*
X075175Y015845D01*
X075127Y015893D01*
X075030Y015893D01*
X074982Y015845D01*
X074982Y015700D01*
X074982Y015797D02*
X074885Y015893D01*
X074885Y015995D02*
X074885Y016188D01*
X074885Y016091D02*
X075175Y016091D01*
X075078Y015995D01*
X075078Y016289D02*
X075127Y016289D01*
X075175Y016338D01*
X075175Y016434D01*
X075127Y016483D01*
X075078Y016483D01*
X075030Y016434D01*
X075030Y016338D01*
X075078Y016289D01*
X075030Y016338D02*
X074982Y016289D01*
X074933Y016289D01*
X074885Y016338D01*
X074885Y016434D01*
X074933Y016483D01*
X074982Y016483D01*
X075030Y016434D01*
X073228Y017001D02*
X072937Y017001D01*
X073034Y017001D02*
X073034Y017146D01*
X073083Y017194D01*
X073179Y017194D01*
X073228Y017146D01*
X073228Y017001D01*
X073034Y017097D02*
X072937Y017194D01*
X072937Y017295D02*
X073131Y017489D01*
X073179Y017489D01*
X073228Y017440D01*
X073228Y017344D01*
X073179Y017295D01*
X072937Y017295D02*
X072937Y017489D01*
X072937Y017590D02*
X073131Y017783D01*
X073179Y017783D01*
X073228Y017735D01*
X073228Y017638D01*
X073179Y017590D01*
X072937Y017590D02*
X072937Y017783D01*
X072929Y018209D02*
X073219Y018209D01*
X073219Y018354D01*
X073171Y018402D01*
X073074Y018402D01*
X073026Y018354D01*
X073026Y018209D01*
X073026Y018305D02*
X072929Y018402D01*
X072929Y018503D02*
X072929Y018697D01*
X072929Y018600D02*
X073219Y018600D01*
X073123Y018503D01*
X074877Y018430D02*
X074877Y018236D01*
X074877Y018333D02*
X075167Y018333D01*
X075071Y018236D01*
X075119Y018135D02*
X075022Y018135D01*
X074974Y018087D01*
X074974Y017942D01*
X074974Y018038D02*
X074877Y018135D01*
X074877Y017942D02*
X075167Y017942D01*
X075167Y018087D01*
X075119Y018135D01*
X075119Y018531D02*
X075071Y018531D01*
X075022Y018579D01*
X075022Y018724D01*
X074925Y018724D02*
X075119Y018724D01*
X075167Y018676D01*
X075167Y018579D01*
X075119Y018531D01*
X074925Y018531D02*
X074877Y018579D01*
X074877Y018676D01*
X074925Y018724D01*
X074896Y020124D02*
X075186Y020124D01*
X075186Y020269D01*
X075138Y020317D01*
X075041Y020317D01*
X074993Y020269D01*
X074993Y020124D01*
X074993Y020221D02*
X074896Y020317D01*
X074896Y020419D02*
X075090Y020612D01*
X075138Y020612D01*
X075186Y020564D01*
X075186Y020467D01*
X075138Y020419D01*
X074896Y020419D02*
X074896Y020612D01*
X074944Y020713D02*
X075138Y020907D01*
X074944Y020907D01*
X074896Y020858D01*
X074896Y020762D01*
X074944Y020713D01*
X075138Y020713D01*
X075186Y020762D01*
X075186Y020858D01*
X075138Y020907D01*
X072816Y020249D02*
X072622Y020249D01*
X072719Y020249D02*
X072719Y019959D01*
X072521Y020007D02*
X072473Y019959D01*
X072376Y019959D01*
X072327Y020007D01*
X072327Y020056D01*
X072376Y020104D01*
X072521Y020104D01*
X072521Y020007D01*
X072521Y020104D02*
X072424Y020201D01*
X072327Y020249D01*
X070217Y020293D02*
X070072Y020293D01*
X070024Y020342D01*
X070024Y020438D01*
X070072Y020487D01*
X070217Y020487D01*
X070217Y020197D01*
X070120Y020293D02*
X070024Y020197D01*
X069923Y020197D02*
X069729Y020197D01*
X069826Y020197D02*
X069826Y020487D01*
X069923Y020390D01*
X069628Y020487D02*
X069434Y020487D01*
X069434Y020438D01*
X069628Y020245D01*
X069628Y020197D01*
X068149Y020206D02*
X068149Y020496D01*
X068004Y020496D01*
X067955Y020448D01*
X067955Y020351D01*
X068004Y020303D01*
X068149Y020303D01*
X068052Y020303D02*
X067955Y020206D01*
X067854Y020206D02*
X067661Y020206D01*
X067757Y020206D02*
X067757Y020496D01*
X067854Y020399D01*
X067559Y020448D02*
X067511Y020496D01*
X067414Y020496D01*
X067366Y020448D01*
X067559Y020254D01*
X067511Y020206D01*
X067414Y020206D01*
X067366Y020254D01*
X067366Y020448D01*
X067559Y020448D02*
X067559Y020254D01*
X067509Y020988D02*
X067316Y020988D01*
X067267Y021036D01*
X067267Y021133D01*
X067316Y021181D01*
X067267Y021282D02*
X067461Y021476D01*
X067509Y021476D01*
X067558Y021428D01*
X067558Y021331D01*
X067509Y021282D01*
X067509Y021181D02*
X067558Y021133D01*
X067558Y021036D01*
X067509Y020988D01*
X067267Y021282D02*
X067267Y021476D01*
X067316Y021577D02*
X067509Y021771D01*
X067316Y021771D01*
X067267Y021722D01*
X067267Y021625D01*
X067316Y021577D01*
X067509Y021577D01*
X067558Y021625D01*
X067558Y021722D01*
X067509Y021771D01*
X066083Y021733D02*
X065890Y021733D01*
X065986Y021733D02*
X065986Y021443D01*
X065789Y021491D02*
X065740Y021443D01*
X065643Y021443D01*
X065595Y021491D01*
X065595Y021588D01*
X065643Y021636D01*
X065692Y021636D01*
X065789Y021588D01*
X065789Y021733D01*
X065595Y021733D01*
X065565Y019277D02*
X065565Y018987D01*
X065661Y018987D02*
X065468Y018987D01*
X065367Y018987D02*
X065173Y018987D01*
X065270Y018987D02*
X065270Y019277D01*
X065367Y019180D01*
X065565Y019277D02*
X065661Y019180D01*
X065763Y019132D02*
X065811Y019084D01*
X065956Y019084D01*
X065859Y019084D02*
X065763Y018987D01*
X065763Y019132D02*
X065763Y019229D01*
X065811Y019277D01*
X065956Y019277D01*
X065956Y018987D01*
X070253Y019024D02*
X070253Y018830D01*
X070446Y019024D01*
X070495Y019024D01*
X070543Y018976D01*
X070543Y018879D01*
X070495Y018830D01*
X070495Y018729D02*
X070543Y018681D01*
X070543Y018584D01*
X070495Y018536D01*
X070301Y018536D01*
X070253Y018584D01*
X070253Y018681D01*
X070301Y018729D01*
X070253Y018436D02*
X070253Y018339D01*
X070253Y018388D02*
X070543Y018388D01*
X070543Y018436D02*
X070543Y018339D01*
X070006Y016963D02*
X069813Y016963D01*
X069764Y016915D01*
X069764Y016818D01*
X069813Y016770D01*
X069909Y016818D02*
X069909Y016963D01*
X070006Y016963D02*
X070055Y016915D01*
X070055Y016818D01*
X070006Y016770D01*
X069958Y016770D01*
X069909Y016818D01*
X069764Y016668D02*
X069764Y016475D01*
X069764Y016572D02*
X070055Y016572D01*
X069958Y016475D01*
X070006Y016374D02*
X070055Y016325D01*
X070055Y016229D01*
X070006Y016180D01*
X069813Y016180D01*
X069764Y016229D01*
X069764Y016325D01*
X069813Y016374D01*
X071742Y015517D02*
X071887Y015372D01*
X071694Y015372D01*
X071742Y015227D02*
X071742Y015517D01*
X071988Y015469D02*
X072037Y015517D01*
X072133Y015517D01*
X072182Y015469D01*
X072182Y015275D01*
X072133Y015227D01*
X072037Y015227D01*
X071988Y015275D01*
X071624Y014762D02*
X071624Y014569D01*
X071479Y014569D01*
X071527Y014666D01*
X071527Y014714D01*
X071479Y014762D01*
X071382Y014762D01*
X071334Y014714D01*
X071334Y014617D01*
X071382Y014569D01*
X071334Y014468D02*
X071334Y014274D01*
X071334Y014371D02*
X071624Y014371D01*
X071527Y014274D01*
X071576Y014173D02*
X071624Y014125D01*
X071624Y014028D01*
X071576Y013980D01*
X071382Y013980D01*
X071334Y014028D01*
X071334Y014125D01*
X071382Y014173D01*
X075773Y013541D02*
X075966Y013347D01*
X075918Y013395D02*
X075773Y013250D01*
X075966Y013250D02*
X075966Y013541D01*
X076067Y013492D02*
X076067Y013395D01*
X076116Y013347D01*
X076261Y013347D01*
X076261Y013250D02*
X076261Y013541D01*
X076116Y013541D01*
X076067Y013492D01*
X076362Y013492D02*
X076410Y013541D01*
X076507Y013541D01*
X076555Y013492D01*
X076555Y013444D01*
X076507Y013395D01*
X076410Y013395D01*
X076362Y013347D01*
X076362Y013299D01*
X076410Y013250D01*
X076507Y013250D01*
X076555Y013299D01*
X076457Y012358D02*
X076506Y012310D01*
X076506Y012213D01*
X076457Y012165D01*
X076457Y012064D02*
X076409Y012064D01*
X076361Y012015D01*
X076312Y012064D01*
X076264Y012064D01*
X076216Y012015D01*
X076216Y011918D01*
X076264Y011870D01*
X076216Y011769D02*
X076312Y011672D01*
X076312Y011721D02*
X076312Y011575D01*
X076216Y011575D02*
X076506Y011575D01*
X076506Y011721D01*
X076457Y011769D01*
X076361Y011769D01*
X076312Y011721D01*
X076457Y011870D02*
X076506Y011918D01*
X076506Y012015D01*
X076457Y012064D01*
X076361Y012015D02*
X076361Y011967D01*
X076216Y012165D02*
X076409Y012358D01*
X076457Y012358D01*
X076216Y012358D02*
X076216Y012165D01*
X071624Y012232D02*
X071479Y012232D01*
X071527Y012329D01*
X071527Y012377D01*
X071479Y012426D01*
X071382Y012426D01*
X071334Y012377D01*
X071334Y012281D01*
X071382Y012232D01*
X071334Y012131D02*
X071334Y011938D01*
X071334Y012034D02*
X071624Y012034D01*
X071527Y011938D01*
X071479Y011836D02*
X071431Y011788D01*
X071431Y011643D01*
X071431Y011740D02*
X071334Y011836D01*
X071479Y011836D02*
X071576Y011836D01*
X071624Y011788D01*
X071624Y011643D01*
X071334Y011643D01*
X071624Y012232D02*
X071624Y012426D01*
X065948Y014087D02*
X065900Y014039D01*
X065706Y014039D01*
X065658Y014087D01*
X065658Y014184D01*
X065706Y014232D01*
X065658Y014333D02*
X065658Y014527D01*
X065658Y014430D02*
X065948Y014430D01*
X065852Y014333D01*
X065900Y014232D02*
X065948Y014184D01*
X065948Y014087D01*
X065803Y014628D02*
X065803Y014822D01*
X065658Y014773D02*
X065948Y014773D01*
X065803Y014628D01*
X065832Y016606D02*
X065638Y016799D01*
X065638Y016848D01*
X065686Y016896D01*
X065783Y016896D01*
X065832Y016848D01*
X065933Y016848D02*
X065933Y016751D01*
X065981Y016703D01*
X066126Y016703D01*
X066029Y016703D02*
X065933Y016606D01*
X065832Y016606D02*
X065638Y016606D01*
X065537Y016606D02*
X065343Y016606D01*
X065440Y016606D02*
X065440Y016896D01*
X065537Y016799D01*
X065933Y016848D02*
X065981Y016896D01*
X066126Y016896D01*
X066126Y016606D01*
X052266Y012103D02*
X052266Y011909D01*
X052121Y011909D01*
X052169Y012006D01*
X052169Y012054D01*
X052121Y012103D01*
X052024Y012103D01*
X051976Y012054D01*
X051976Y011957D01*
X052024Y011909D01*
X051976Y011808D02*
X052073Y011711D01*
X052073Y011760D02*
X052073Y011614D01*
X051976Y011614D02*
X052266Y011614D01*
X052266Y011760D01*
X052218Y011808D01*
X052121Y011808D01*
X052073Y011760D01*
X051270Y011732D02*
X051270Y011587D01*
X050980Y011587D01*
X050980Y011732D01*
X051029Y011781D01*
X051222Y011781D01*
X051270Y011732D01*
X051125Y011882D02*
X051125Y012075D01*
X050980Y012027D02*
X051270Y012027D01*
X051125Y011882D01*
X050309Y011737D02*
X050260Y011785D01*
X050164Y011785D01*
X050115Y011737D01*
X050115Y011592D01*
X050019Y011592D02*
X050309Y011592D01*
X050309Y011737D01*
X050115Y011689D02*
X050019Y011785D01*
X050164Y011886D02*
X050164Y012080D01*
X050309Y012032D02*
X050164Y011886D01*
X050019Y012032D02*
X050309Y012032D01*
X049202Y009458D02*
X049250Y009409D01*
X049250Y009216D01*
X049202Y009167D01*
X049105Y009167D01*
X049056Y009216D01*
X049056Y009312D01*
X049153Y009312D01*
X049056Y009409D02*
X049105Y009458D01*
X049202Y009458D01*
X048955Y009458D02*
X048762Y009167D01*
X048762Y009458D01*
X048661Y009458D02*
X048516Y009458D01*
X048467Y009409D01*
X048467Y009216D01*
X048516Y009167D01*
X048661Y009167D01*
X048661Y009458D01*
X048955Y009458D02*
X048955Y009167D01*
X046259Y009192D02*
X046211Y009144D01*
X046114Y009144D01*
X046065Y009192D01*
X046065Y009289D01*
X046114Y009337D01*
X046162Y009337D01*
X046259Y009289D01*
X046259Y009434D01*
X046065Y009434D01*
X045964Y009434D02*
X045964Y009241D01*
X045868Y009144D01*
X045771Y009241D01*
X045771Y009434D01*
X039550Y008484D02*
X039550Y008291D01*
X039501Y008243D01*
X039405Y008243D01*
X039356Y008291D01*
X039255Y008243D02*
X039062Y008243D01*
X039158Y008243D02*
X039158Y008533D01*
X039255Y008436D01*
X039356Y008484D02*
X039405Y008533D01*
X039501Y008533D01*
X039550Y008484D01*
X038960Y008484D02*
X038912Y008533D01*
X038815Y008533D01*
X038767Y008484D01*
X038767Y008436D01*
X038815Y008388D01*
X038767Y008339D01*
X038767Y008291D01*
X038815Y008243D01*
X038912Y008243D01*
X038960Y008291D01*
X038864Y008388D02*
X038815Y008388D01*
X037215Y010186D02*
X037215Y010476D01*
X037070Y010476D01*
X037021Y010428D01*
X037021Y010331D01*
X037070Y010283D01*
X037215Y010283D01*
X037118Y010283D02*
X037021Y010186D01*
X036920Y010235D02*
X036872Y010186D01*
X036775Y010186D01*
X036727Y010235D01*
X036727Y010283D01*
X036775Y010331D01*
X036823Y010331D01*
X036775Y010331D02*
X036727Y010380D01*
X036727Y010428D01*
X036775Y010476D01*
X036872Y010476D01*
X036920Y010428D01*
X036625Y010428D02*
X036577Y010476D01*
X036480Y010476D01*
X036432Y010428D01*
X036625Y010235D01*
X036577Y010186D01*
X036480Y010186D01*
X036432Y010235D01*
X036432Y010428D01*
X036625Y010428D02*
X036625Y010235D01*
X036787Y011070D02*
X036787Y011118D01*
X036593Y011311D01*
X036593Y011360D01*
X036787Y011360D01*
X036888Y011311D02*
X036936Y011360D01*
X037033Y011360D01*
X037082Y011311D01*
X037082Y011118D01*
X037033Y011070D01*
X036936Y011070D01*
X036888Y011118D01*
X036894Y012412D02*
X037087Y012412D01*
X037087Y012702D01*
X036793Y012605D02*
X036696Y012702D01*
X036696Y012412D01*
X036793Y012412D02*
X036599Y012412D01*
X036505Y013817D02*
X036553Y013866D01*
X036553Y013914D01*
X036505Y013963D01*
X036408Y013963D01*
X036359Y013914D01*
X036359Y013866D01*
X036408Y013817D01*
X036505Y013817D01*
X036505Y013963D02*
X036553Y014011D01*
X036553Y014059D01*
X036505Y014108D01*
X036408Y014108D01*
X036359Y014059D01*
X036359Y014011D01*
X036408Y013963D01*
X036654Y014059D02*
X036703Y014108D01*
X036799Y014108D01*
X036848Y014059D01*
X036848Y013866D01*
X036799Y013817D01*
X036703Y013817D01*
X036654Y013866D01*
X036575Y014783D02*
X036769Y014783D01*
X036575Y014976D01*
X036575Y015024D01*
X036624Y015073D01*
X036721Y015073D01*
X036769Y015024D01*
X036870Y015024D02*
X036870Y014928D01*
X036918Y014879D01*
X037064Y014879D01*
X037064Y014783D02*
X037064Y015073D01*
X036918Y015073D01*
X036870Y015024D01*
X036967Y014879D02*
X036870Y014783D01*
X036474Y014783D02*
X036474Y014831D01*
X036281Y015024D01*
X036281Y015073D01*
X036474Y015073D01*
X036453Y015753D02*
X036356Y015753D01*
X036308Y015802D01*
X036308Y015850D01*
X036356Y015898D01*
X036501Y015898D01*
X036501Y015802D01*
X036453Y015753D01*
X036603Y015753D02*
X036796Y015753D01*
X036603Y015947D01*
X036603Y015995D01*
X036651Y016043D01*
X036748Y016043D01*
X036796Y015995D01*
X036897Y015995D02*
X036897Y015898D01*
X036946Y015850D01*
X037091Y015850D01*
X037091Y015753D02*
X037091Y016043D01*
X036946Y016043D01*
X036897Y015995D01*
X036994Y015850D02*
X036897Y015753D01*
X036501Y015898D02*
X036405Y015995D01*
X036308Y016043D01*
X037273Y016314D02*
X037321Y016266D01*
X037418Y016266D01*
X037466Y016314D01*
X037466Y016363D01*
X037418Y016411D01*
X037321Y016411D01*
X037273Y016363D01*
X037273Y016314D01*
X037321Y016411D02*
X037273Y016459D01*
X037273Y016508D01*
X037321Y016556D01*
X037418Y016556D01*
X037466Y016508D01*
X037466Y016459D01*
X037418Y016411D01*
X037568Y016314D02*
X037616Y016266D01*
X037713Y016266D01*
X037761Y016314D01*
X037761Y016508D01*
X037713Y016556D01*
X037616Y016556D01*
X037568Y016508D01*
X037861Y016556D02*
X037957Y016556D01*
X037909Y016556D02*
X037909Y016266D01*
X037957Y016266D02*
X037861Y016266D01*
X026834Y016307D02*
X026738Y016307D01*
X026786Y016307D02*
X026786Y016598D01*
X026834Y016598D02*
X026738Y016598D01*
X026638Y016549D02*
X026638Y016356D01*
X026590Y016307D01*
X026493Y016307D01*
X026444Y016356D01*
X026343Y016307D02*
X026150Y016307D01*
X026247Y016307D02*
X026247Y016598D01*
X026343Y016501D01*
X026444Y016549D02*
X026493Y016598D01*
X026590Y016598D01*
X026638Y016549D01*
X024344Y017221D02*
X024296Y017172D01*
X024199Y017172D01*
X024151Y017221D01*
X024151Y017463D01*
X024049Y017366D02*
X023953Y017463D01*
X023953Y017172D01*
X024049Y017172D02*
X023856Y017172D01*
X024344Y017221D02*
X024344Y017463D01*
X021801Y018177D02*
X021801Y018370D01*
X021752Y018419D01*
X021656Y018419D01*
X021607Y018370D01*
X021607Y018273D02*
X021704Y018273D01*
X021607Y018273D02*
X021607Y018177D01*
X021656Y018128D01*
X021752Y018128D01*
X021801Y018177D01*
X021506Y018177D02*
X021458Y018128D01*
X021361Y018128D01*
X021313Y018177D01*
X021211Y018273D02*
X021018Y018273D01*
X021115Y018177D02*
X021115Y018370D01*
X021313Y018370D02*
X021361Y018419D01*
X021458Y018419D01*
X021506Y018370D01*
X021506Y018177D01*
X021443Y017820D02*
X021346Y017820D01*
X021298Y017772D01*
X021298Y017578D01*
X021346Y017530D01*
X021443Y017530D01*
X021492Y017578D01*
X021492Y017772D01*
X021443Y017820D01*
X021395Y017627D02*
X021298Y017530D01*
X021197Y017530D02*
X021003Y017530D01*
X021100Y017530D02*
X021100Y017820D01*
X021197Y017723D01*
X020399Y018185D02*
X020351Y018136D01*
X020254Y018136D01*
X020206Y018185D01*
X020206Y018281D01*
X020302Y018281D01*
X020206Y018378D02*
X020254Y018426D01*
X020351Y018426D01*
X020399Y018378D01*
X020399Y018185D01*
X020105Y018185D02*
X020056Y018136D01*
X019959Y018136D01*
X019911Y018185D01*
X019810Y018281D02*
X019616Y018281D01*
X019911Y018378D02*
X019959Y018426D01*
X020056Y018426D01*
X020105Y018378D01*
X020105Y018185D01*
X023248Y019481D02*
X023296Y019433D01*
X023393Y019433D01*
X023441Y019481D01*
X023542Y019433D02*
X023736Y019433D01*
X023542Y019626D01*
X023542Y019674D01*
X023591Y019723D01*
X023687Y019723D01*
X023736Y019674D01*
X023837Y019674D02*
X023837Y019578D01*
X023885Y019529D01*
X024030Y019529D01*
X023934Y019529D02*
X023837Y019433D01*
X024030Y019433D02*
X024030Y019723D01*
X023885Y019723D01*
X023837Y019674D01*
X023441Y019674D02*
X023393Y019723D01*
X023296Y019723D01*
X023248Y019674D01*
X023248Y019626D01*
X023296Y019578D01*
X023248Y019529D01*
X023248Y019481D01*
X023296Y019578D02*
X023344Y019578D01*
X025145Y020480D02*
X025339Y020480D01*
X025145Y020673D01*
X025145Y020721D01*
X025194Y020770D01*
X025290Y020770D01*
X025339Y020721D01*
X025440Y020721D02*
X025488Y020770D01*
X025633Y020770D01*
X025633Y020480D01*
X025488Y020480D01*
X025440Y020528D01*
X025440Y020721D01*
X022065Y021366D02*
X022065Y021656D01*
X021920Y021656D01*
X021872Y021608D01*
X021872Y021415D01*
X021920Y021366D01*
X022065Y021366D01*
X021771Y021415D02*
X021722Y021366D01*
X021626Y021366D01*
X021577Y021415D01*
X021577Y021463D01*
X021626Y021511D01*
X021674Y021511D01*
X021626Y021511D02*
X021577Y021560D01*
X021577Y021608D01*
X021626Y021656D01*
X021722Y021656D01*
X021771Y021608D01*
X020748Y021169D02*
X020748Y021073D01*
X020700Y021024D01*
X020651Y021024D01*
X020603Y021073D01*
X020603Y021218D01*
X020506Y021218D02*
X020700Y021218D01*
X020748Y021169D01*
X020506Y021218D02*
X020458Y021169D01*
X020458Y021073D01*
X020506Y021024D01*
X020458Y020923D02*
X020458Y020730D01*
X020651Y020923D01*
X020700Y020923D01*
X020748Y020875D01*
X020748Y020778D01*
X020700Y020730D01*
X020700Y020629D02*
X020603Y020629D01*
X020555Y020580D01*
X020555Y020435D01*
X020555Y020532D02*
X020458Y020629D01*
X020458Y020435D02*
X020748Y020435D01*
X020748Y020580D01*
X020700Y020629D01*
X014645Y020016D02*
X014645Y019919D01*
X014597Y019871D01*
X014645Y020016D02*
X014597Y020064D01*
X014549Y020064D01*
X014355Y019871D01*
X014355Y020064D01*
X014355Y019770D02*
X014355Y019576D01*
X014355Y019673D02*
X014645Y019673D01*
X014549Y019576D01*
X014597Y019475D02*
X014500Y019475D01*
X014452Y019427D01*
X014452Y019281D01*
X014355Y019281D02*
X014645Y019281D01*
X014645Y019427D01*
X014597Y019475D01*
X014452Y019378D02*
X014355Y019475D01*
X010644Y021380D02*
X010644Y021671D01*
X010548Y021671D02*
X010741Y021671D01*
X010446Y021574D02*
X010350Y021671D01*
X010350Y021380D01*
X010446Y021380D02*
X010253Y021380D01*
X005272Y021502D02*
X005223Y021453D01*
X005127Y021453D01*
X005078Y021502D01*
X005078Y021550D01*
X005127Y021599D01*
X005223Y021599D01*
X005272Y021647D01*
X005272Y021695D01*
X005223Y021744D01*
X005127Y021744D01*
X005078Y021695D01*
X004977Y021695D02*
X004977Y021502D01*
X004929Y021453D01*
X004832Y021453D01*
X004783Y021502D01*
X004682Y021550D02*
X004489Y021744D01*
X004682Y021744D02*
X004682Y021453D01*
X004634Y021599D02*
X004489Y021453D01*
X004783Y021695D02*
X004832Y021744D01*
X004929Y021744D01*
X004977Y021695D01*
X003824Y021772D02*
X003824Y021482D01*
X003824Y021578D02*
X003679Y021578D01*
X003631Y021627D01*
X003631Y021723D01*
X003679Y021772D01*
X003824Y021772D01*
X003530Y021772D02*
X003385Y021772D01*
X003336Y021723D01*
X003336Y021530D01*
X003385Y021482D01*
X003530Y021482D01*
X003530Y021772D01*
X003235Y021772D02*
X003138Y021772D01*
X003187Y021772D02*
X003187Y021482D01*
X003235Y021482D02*
X003138Y021482D01*
X002517Y021466D02*
X002517Y021756D01*
X002372Y021756D01*
X002323Y021708D01*
X002323Y021611D01*
X002372Y021562D01*
X002517Y021562D01*
X002420Y021562D02*
X002323Y021466D01*
X002222Y021514D02*
X002174Y021466D01*
X002077Y021466D01*
X002029Y021514D01*
X002029Y021562D01*
X002077Y021611D01*
X002174Y021611D01*
X002222Y021659D01*
X002222Y021708D01*
X002174Y021756D01*
X002077Y021756D01*
X002029Y021708D01*
X001927Y021756D02*
X001734Y021756D01*
X001831Y021756D02*
X001831Y021466D01*
X004182Y019376D02*
X004182Y019183D01*
X004182Y019279D02*
X004472Y019279D01*
X004376Y019183D01*
X004424Y019081D02*
X004472Y019033D01*
X004472Y018888D01*
X004182Y018888D01*
X004182Y019033D01*
X004230Y019081D01*
X004424Y019081D01*
X004821Y017463D02*
X004870Y017463D01*
X004918Y017414D01*
X004918Y017269D01*
X004821Y017269D01*
X004773Y017318D01*
X004773Y017414D01*
X004821Y017463D01*
X005015Y017366D02*
X005063Y017463D01*
X005015Y017366D02*
X004918Y017269D01*
X004773Y017168D02*
X004773Y016974D01*
X004773Y017071D02*
X005063Y017071D01*
X004966Y016974D01*
X005015Y016873D02*
X005063Y016825D01*
X005063Y016728D01*
X005015Y016680D01*
X004821Y016680D01*
X004773Y016728D01*
X004773Y016825D01*
X004821Y016873D01*
X007664Y016872D02*
X007955Y016872D01*
X007955Y016824D02*
X007955Y016921D01*
X007906Y017020D02*
X007713Y017020D01*
X007664Y017069D01*
X007664Y017166D01*
X007713Y017214D01*
X007713Y017315D02*
X007664Y017315D01*
X007713Y017315D02*
X007906Y017509D01*
X007955Y017509D01*
X007955Y017315D01*
X007906Y017214D02*
X007955Y017166D01*
X007955Y017069D01*
X007906Y017020D01*
X007664Y016921D02*
X007664Y016824D01*
X014369Y016311D02*
X014417Y016359D01*
X014514Y016359D01*
X014562Y016311D01*
X014664Y016311D02*
X014712Y016359D01*
X014809Y016359D01*
X014857Y016311D01*
X014857Y016117D01*
X014809Y016069D01*
X014712Y016069D01*
X014664Y016117D01*
X014562Y016069D02*
X014369Y016262D01*
X014369Y016311D01*
X014369Y016069D02*
X014562Y016069D01*
X014496Y015372D02*
X014399Y015372D01*
X014350Y015324D01*
X014350Y015275D01*
X014399Y015227D01*
X014496Y015227D01*
X014544Y015275D01*
X014544Y015324D01*
X014496Y015372D01*
X014496Y015227D02*
X014544Y015179D01*
X014544Y015130D01*
X014496Y015082D01*
X014399Y015082D01*
X014350Y015130D01*
X014350Y015179D01*
X014399Y015227D01*
X014645Y015275D02*
X014645Y015324D01*
X014693Y015372D01*
X014790Y015372D01*
X014839Y015324D01*
X014940Y015324D02*
X014940Y015227D01*
X014988Y015179D01*
X015133Y015179D01*
X015036Y015179D02*
X014940Y015082D01*
X014839Y015082D02*
X014645Y015275D01*
X014645Y015082D02*
X014839Y015082D01*
X014940Y015324D02*
X014988Y015372D01*
X015133Y015372D01*
X015133Y015082D01*
X014813Y014392D02*
X014862Y014343D01*
X014862Y014150D01*
X014813Y014101D01*
X014716Y014101D01*
X014668Y014150D01*
X014567Y014101D02*
X014373Y014101D01*
X014470Y014101D02*
X014470Y014392D01*
X014567Y014295D01*
X014668Y014343D02*
X014716Y014392D01*
X014813Y014392D01*
X011185Y014022D02*
X011185Y013732D01*
X011185Y013829D02*
X011040Y013829D01*
X010992Y013877D01*
X010992Y013974D01*
X011040Y014022D01*
X011185Y014022D01*
X011088Y013829D02*
X010992Y013732D01*
X010890Y013732D02*
X010697Y013925D01*
X010697Y013974D01*
X010745Y014022D01*
X010842Y014022D01*
X010890Y013974D01*
X010890Y013732D02*
X010697Y013732D01*
X010596Y013877D02*
X010402Y013877D01*
X010451Y013732D02*
X010451Y014022D01*
X010596Y013877D01*
X007519Y013010D02*
X007374Y013010D01*
X007325Y012962D01*
X007325Y012865D01*
X007374Y012816D01*
X007519Y012816D01*
X007519Y012720D02*
X007519Y013010D01*
X007422Y012816D02*
X007325Y012720D01*
X007224Y012768D02*
X007176Y012720D01*
X007079Y012720D01*
X007031Y012768D01*
X007031Y012962D01*
X007079Y013010D01*
X007176Y013010D01*
X007224Y012962D01*
X007224Y012913D01*
X007176Y012865D01*
X007031Y012865D01*
X005498Y012886D02*
X005353Y012886D01*
X005305Y012934D01*
X005305Y013031D01*
X005353Y013079D01*
X005498Y013079D01*
X005498Y012789D01*
X005401Y012886D02*
X005305Y012789D01*
X005203Y012837D02*
X005203Y012886D01*
X005155Y012934D01*
X005058Y012934D01*
X005010Y012886D01*
X005010Y012837D01*
X005058Y012789D01*
X005155Y012789D01*
X005203Y012837D01*
X005155Y012934D02*
X005203Y012982D01*
X005203Y013031D01*
X005155Y013079D01*
X005058Y013079D01*
X005010Y013031D01*
X005010Y012982D01*
X005058Y012934D01*
X004108Y012911D02*
X004108Y013008D01*
X004060Y013056D01*
X004011Y013056D01*
X003963Y013008D01*
X003963Y012911D01*
X004011Y012863D01*
X004060Y012863D01*
X004108Y012911D01*
X003963Y012911D02*
X003914Y012863D01*
X003866Y012863D01*
X003818Y012911D01*
X003818Y013008D01*
X003866Y013056D01*
X003914Y013056D01*
X003963Y013008D01*
X003818Y012762D02*
X003818Y012568D01*
X003818Y012665D02*
X004108Y012665D01*
X004011Y012568D01*
X004060Y012467D02*
X004108Y012419D01*
X004108Y012322D01*
X004060Y012274D01*
X003866Y012274D01*
X003818Y012322D01*
X003818Y012419D01*
X003866Y012467D01*
X002570Y013097D02*
X002570Y013387D01*
X002425Y013387D01*
X002377Y013339D01*
X002377Y013242D01*
X002425Y013194D01*
X002570Y013194D01*
X002276Y013097D02*
X002276Y013387D01*
X002131Y013387D01*
X002082Y013339D01*
X002082Y013145D01*
X002131Y013097D01*
X002276Y013097D01*
X001981Y013145D02*
X001933Y013097D01*
X001836Y013097D01*
X001788Y013145D01*
X001788Y013339D01*
X001836Y013387D01*
X001933Y013387D01*
X001981Y013339D01*
X001981Y013145D01*
X014932Y009981D02*
X015126Y009981D01*
X015126Y009836D01*
X015029Y009884D01*
X014980Y009884D01*
X014932Y009836D01*
X014932Y009739D01*
X014980Y009691D01*
X015077Y009691D01*
X015126Y009739D01*
X015227Y009739D02*
X015275Y009691D01*
X015372Y009691D01*
X015420Y009739D01*
X015420Y009933D01*
X015372Y009981D01*
X015275Y009981D01*
X015227Y009933D01*
X015521Y009933D02*
X015521Y009836D01*
X015570Y009788D01*
X015715Y009788D01*
X015715Y009691D02*
X015715Y009981D01*
X015570Y009981D01*
X015521Y009933D01*
X018550Y009125D02*
X018598Y009174D01*
X018695Y009174D01*
X018743Y009125D01*
X018844Y009174D02*
X018844Y008932D01*
X018893Y008884D01*
X018990Y008884D01*
X019038Y008932D01*
X019038Y009174D01*
X018743Y008884D02*
X018550Y009077D01*
X018550Y009125D01*
X018550Y008884D02*
X018743Y008884D01*
X015750Y006960D02*
X015605Y006960D01*
X015557Y006911D01*
X015557Y006814D01*
X015605Y006766D01*
X015750Y006766D01*
X015750Y006669D02*
X015750Y006960D01*
X015456Y006911D02*
X015456Y006718D01*
X015407Y006669D01*
X015310Y006669D01*
X015262Y006718D01*
X015161Y006814D02*
X014967Y006814D01*
X015016Y006669D02*
X015016Y006960D01*
X015161Y006814D01*
X015262Y006911D02*
X015310Y006960D01*
X015407Y006960D01*
X015456Y006911D01*
X015475Y004753D02*
X015475Y004463D01*
X015282Y004463D01*
X015180Y004511D02*
X015132Y004463D01*
X015035Y004463D01*
X014987Y004511D01*
X014987Y004559D01*
X015035Y004608D01*
X015180Y004608D01*
X015180Y004511D01*
X015180Y004608D02*
X015084Y004704D01*
X014987Y004753D01*
X015282Y004753D02*
X015475Y004753D01*
X015576Y004704D02*
X015576Y004608D01*
X015625Y004559D01*
X015770Y004559D01*
X015770Y004463D02*
X015770Y004753D01*
X015625Y004753D01*
X015576Y004704D01*
X015475Y004608D02*
X015378Y004608D01*
X016156Y004652D02*
X016205Y004604D01*
X016156Y004555D01*
X016156Y004507D01*
X016205Y004459D01*
X016301Y004459D01*
X016350Y004507D01*
X016451Y004507D02*
X016499Y004459D01*
X016596Y004459D01*
X016644Y004507D01*
X016644Y004700D01*
X016596Y004749D01*
X016499Y004749D01*
X016451Y004700D01*
X016350Y004700D02*
X016301Y004749D01*
X016205Y004749D01*
X016156Y004700D01*
X016156Y004652D01*
X016205Y004604D02*
X016253Y004604D01*
X016746Y004604D02*
X016746Y004700D01*
X016794Y004749D01*
X016939Y004749D01*
X016939Y004459D01*
X016939Y004555D02*
X016794Y004555D01*
X016746Y004604D01*
X030478Y008011D02*
X030672Y008011D01*
X030575Y008011D02*
X030575Y007720D01*
X030870Y007720D02*
X030870Y008011D01*
X030967Y008011D02*
X030773Y008011D01*
X031068Y007962D02*
X031068Y007865D01*
X031116Y007817D01*
X031261Y007817D01*
X031261Y007720D02*
X031261Y008011D01*
X031116Y008011D01*
X031068Y007962D01*
X031558Y008046D02*
X031558Y007756D01*
X031751Y008046D01*
X031751Y007756D01*
X031853Y007756D02*
X031853Y008046D01*
X032046Y008046D02*
X032046Y007756D01*
X031949Y007853D01*
X031853Y007756D01*
X032147Y007804D02*
X032147Y007998D01*
X032196Y008046D01*
X032292Y008046D01*
X032341Y007998D01*
X032341Y007804D01*
X032292Y007756D01*
X032196Y007756D01*
X032147Y007804D01*
X032442Y007804D02*
X032442Y007998D01*
X032490Y008046D01*
X032635Y008046D01*
X032635Y007756D01*
X032490Y007756D01*
X032442Y007804D01*
X032736Y008046D02*
X032930Y007756D01*
X033031Y007901D02*
X033080Y007853D01*
X033225Y007853D01*
X033225Y007756D02*
X033225Y008046D01*
X033080Y008046D01*
X033031Y007998D01*
X033031Y007901D01*
X033326Y007804D02*
X033326Y008046D01*
X033519Y008046D02*
X033519Y007804D01*
X033471Y007756D01*
X033374Y007756D01*
X033326Y007804D01*
X032737Y006757D02*
X032689Y006757D01*
X032640Y006709D01*
X032592Y006757D01*
X032544Y006757D01*
X032495Y006709D01*
X032495Y006612D01*
X032544Y006564D01*
X032544Y006463D02*
X032495Y006414D01*
X032495Y006318D01*
X032544Y006269D01*
X032737Y006269D01*
X032785Y006318D01*
X032785Y006414D01*
X032737Y006463D01*
X032737Y006564D02*
X032785Y006612D01*
X032785Y006709D01*
X032737Y006757D01*
X032640Y006709D02*
X032640Y006661D01*
X032136Y005220D02*
X031991Y005220D01*
X031943Y005172D01*
X031943Y005075D01*
X031991Y005026D01*
X032136Y005026D01*
X032136Y004930D02*
X032136Y005220D01*
X032039Y005026D02*
X031943Y004930D01*
X031841Y004930D02*
X031648Y005123D01*
X031648Y005172D01*
X031696Y005220D01*
X031793Y005220D01*
X031841Y005172D01*
X031841Y004930D02*
X031648Y004930D01*
X031547Y004978D02*
X031498Y004930D01*
X031402Y004930D01*
X031353Y004978D01*
X031353Y005075D01*
X031402Y005123D01*
X031450Y005123D01*
X031547Y005075D01*
X031547Y005220D01*
X031353Y005220D01*
X039278Y004383D02*
X039278Y004335D01*
X039471Y004142D01*
X039471Y004093D01*
X039572Y004093D02*
X039669Y004190D01*
X039621Y004190D02*
X039766Y004190D01*
X039766Y004093D02*
X039766Y004383D01*
X039621Y004383D01*
X039572Y004335D01*
X039572Y004238D01*
X039621Y004190D01*
X039471Y004383D02*
X039278Y004383D01*
X026591Y008923D02*
X026591Y009213D01*
X026446Y009213D01*
X026398Y009165D01*
X026398Y009068D01*
X026446Y009019D01*
X026591Y009019D01*
X026495Y009019D02*
X026398Y008923D01*
X026297Y008923D02*
X026103Y009116D01*
X026103Y009165D01*
X026152Y009213D01*
X026248Y009213D01*
X026297Y009165D01*
X026297Y008923D02*
X026103Y008923D01*
X024828Y012623D02*
X024732Y012623D01*
X024683Y012672D01*
X024582Y012672D02*
X024534Y012623D01*
X024437Y012623D01*
X024389Y012672D01*
X024389Y012768D01*
X024437Y012817D01*
X024485Y012817D01*
X024582Y012768D01*
X024582Y012913D01*
X024389Y012913D01*
X024683Y012865D02*
X024732Y012913D01*
X024828Y012913D01*
X024877Y012865D01*
X024877Y012672D01*
X024828Y012623D01*
X024823Y014878D02*
X024726Y014878D01*
X024678Y014927D01*
X024577Y014927D02*
X024528Y014878D01*
X024431Y014878D01*
X024383Y014927D01*
X024383Y014975D01*
X024431Y015023D01*
X024577Y015023D01*
X024577Y014927D01*
X024577Y015023D02*
X024480Y015120D01*
X024383Y015168D01*
X024678Y015120D02*
X024726Y015168D01*
X024823Y015168D01*
X024871Y015120D01*
X024871Y014927D01*
X024823Y014878D01*
X057825Y008708D02*
X058018Y008418D01*
X057825Y008418D02*
X058018Y008708D01*
X058120Y008708D02*
X058313Y008708D01*
X058216Y008708D02*
X058216Y008418D01*
X059212Y008441D02*
X059406Y008731D01*
X059507Y008683D02*
X059507Y008586D01*
X059555Y008538D01*
X059700Y008538D01*
X059604Y008538D02*
X059507Y008441D01*
X059406Y008441D02*
X059212Y008731D01*
X059507Y008683D02*
X059555Y008731D01*
X059700Y008731D01*
X059700Y008441D01*
X061522Y007332D02*
X061570Y007381D01*
X061667Y007381D01*
X061715Y007332D01*
X061816Y007381D02*
X062010Y007381D01*
X061913Y007381D02*
X061913Y007091D01*
X061715Y007091D02*
X061522Y007284D01*
X061522Y007332D01*
X061522Y007091D02*
X061715Y007091D01*
X064617Y007084D02*
X064665Y007036D01*
X064762Y007036D01*
X064811Y007084D01*
X064714Y007181D02*
X064665Y007181D01*
X064617Y007133D01*
X064617Y007084D01*
X064665Y007181D02*
X064617Y007230D01*
X064617Y007278D01*
X064665Y007326D01*
X064762Y007326D01*
X064811Y007278D01*
X064912Y007326D02*
X065105Y007326D01*
X065008Y007326D02*
X065008Y007036D01*
X070023Y004279D02*
X070023Y004231D01*
X070071Y004182D01*
X070023Y004134D01*
X070023Y004085D01*
X070071Y004037D01*
X070168Y004037D01*
X070216Y004085D01*
X070317Y004037D02*
X070414Y004134D01*
X070366Y004134D02*
X070511Y004134D01*
X070511Y004037D02*
X070511Y004327D01*
X070366Y004327D01*
X070317Y004279D01*
X070317Y004182D01*
X070366Y004134D01*
X070216Y004279D02*
X070168Y004327D01*
X070071Y004327D01*
X070023Y004279D01*
X070071Y004182D02*
X070119Y004182D01*
X074765Y006986D02*
X074765Y007180D01*
X074862Y007276D01*
X074959Y007180D01*
X074959Y006986D01*
X075060Y007034D02*
X075060Y007228D01*
X075108Y007276D01*
X075254Y007276D01*
X075254Y006986D01*
X075108Y006986D01*
X075060Y007034D01*
X074959Y007131D02*
X074765Y007131D01*
X075355Y007083D02*
X075355Y007034D01*
X075403Y006986D01*
X075500Y006986D01*
X075548Y007034D01*
X075500Y007131D02*
X075403Y007131D01*
X075355Y007083D01*
X075355Y007228D02*
X075403Y007276D01*
X075500Y007276D01*
X075548Y007228D01*
X075548Y007180D01*
X075500Y007131D01*
X075472Y008355D02*
X075520Y008403D01*
X075472Y008355D02*
X075375Y008355D01*
X075326Y008403D01*
X075326Y008451D01*
X075375Y008500D01*
X075472Y008500D01*
X075520Y008548D01*
X075520Y008596D01*
X075472Y008645D01*
X075375Y008645D01*
X075326Y008596D01*
X075225Y008596D02*
X075225Y008403D01*
X075177Y008355D01*
X075080Y008355D01*
X075032Y008403D01*
X074931Y008355D02*
X074737Y008355D01*
X074931Y008355D02*
X074931Y008645D01*
X075032Y008596D02*
X075080Y008645D01*
X075177Y008645D01*
X075225Y008596D01*
X073708Y010067D02*
X073708Y010357D01*
X073805Y010357D02*
X073611Y010357D01*
X073510Y010212D02*
X073317Y010212D01*
X073365Y010357D02*
X073510Y010212D01*
X073365Y010067D02*
X073365Y010357D01*
X069175Y010276D02*
X069078Y010276D01*
X069127Y010276D02*
X069127Y010566D01*
X069175Y010566D02*
X069078Y010566D01*
X068978Y010518D02*
X068978Y010324D01*
X068930Y010276D01*
X068833Y010276D01*
X068785Y010324D01*
X068684Y010421D02*
X068490Y010421D01*
X068539Y010566D02*
X068684Y010421D01*
X068785Y010518D02*
X068833Y010566D01*
X068930Y010566D01*
X068978Y010518D01*
X068539Y010566D02*
X068539Y010276D01*
D13*
X067357Y011520D02*
X067357Y013880D01*
X069937Y013880D01*
X069937Y011520D01*
X072278Y011542D02*
X074858Y011542D01*
X074858Y012942D01*
X072278Y012942D01*
X072278Y011542D01*
X066984Y005856D02*
X064404Y005856D01*
X064404Y004456D01*
X066984Y004456D01*
X066984Y005856D01*
X063834Y005856D02*
X061254Y005856D01*
X061254Y004456D01*
X063834Y004456D01*
X063834Y005856D01*
X051363Y010718D02*
X051127Y010324D01*
X050891Y010718D01*
X051363Y010718D01*
X025487Y021298D02*
X025093Y021061D01*
X025093Y021534D01*
X025487Y021298D01*
X023421Y021534D02*
X023421Y021061D01*
X023028Y021298D01*
X023421Y021534D01*
X013047Y020423D02*
X013047Y019023D01*
X010467Y019023D01*
X010467Y020423D01*
X013047Y020423D01*
X007387Y018010D02*
X006285Y018010D01*
X006285Y016317D01*
X007387Y016317D01*
X007387Y018010D01*
X003824Y019379D02*
X003588Y018985D01*
X003352Y019379D01*
X003824Y019379D01*
D14*
X003588Y018912D03*
X051127Y010251D03*
D15*
X025493Y016862D02*
X025491Y016839D01*
X025486Y016816D01*
X025477Y016794D01*
X025464Y016774D01*
X025449Y016756D01*
X025431Y016741D01*
X025411Y016728D01*
X025389Y016719D01*
X025366Y016714D01*
X025343Y016712D01*
X025320Y016714D01*
X025297Y016719D01*
X025275Y016728D01*
X025255Y016741D01*
X025237Y016756D01*
X025222Y016774D01*
X025209Y016794D01*
X025200Y016816D01*
X025195Y016839D01*
X025193Y016862D01*
X025195Y016885D01*
X025200Y016908D01*
X025209Y016930D01*
X025222Y016950D01*
X025237Y016968D01*
X025255Y016983D01*
X025275Y016996D01*
X025297Y017005D01*
X025320Y017010D01*
X025343Y017012D01*
X025366Y017010D01*
X025389Y017005D01*
X025411Y016996D01*
X025431Y016983D01*
X025449Y016968D01*
X025464Y016950D01*
X025477Y016930D01*
X025486Y016908D01*
X025491Y016885D01*
X025493Y016862D01*
X020178Y008595D02*
X020176Y008572D01*
X020171Y008549D01*
X020162Y008527D01*
X020149Y008507D01*
X020134Y008489D01*
X020116Y008474D01*
X020096Y008461D01*
X020074Y008452D01*
X020051Y008447D01*
X020028Y008445D01*
X020005Y008447D01*
X019982Y008452D01*
X019960Y008461D01*
X019940Y008474D01*
X019922Y008489D01*
X019907Y008507D01*
X019894Y008527D01*
X019885Y008549D01*
X019880Y008572D01*
X019878Y008595D01*
X019880Y008618D01*
X019885Y008641D01*
X019894Y008663D01*
X019907Y008683D01*
X019922Y008701D01*
X019940Y008716D01*
X019960Y008729D01*
X019982Y008738D01*
X020005Y008743D01*
X020028Y008745D01*
X020051Y008743D01*
X020074Y008738D01*
X020096Y008729D01*
X020116Y008716D01*
X020134Y008701D01*
X020149Y008683D01*
X020162Y008663D01*
X020171Y008641D01*
X020176Y008618D01*
X020178Y008595D01*
D16*
X010970Y015038D02*
X010418Y015589D01*
X010556Y015727D02*
X011107Y015176D01*
X010340Y015392D02*
X010342Y015433D01*
X010348Y015474D01*
X010358Y015514D01*
X010371Y015553D01*
X010388Y015590D01*
X010409Y015626D01*
X010433Y015660D01*
X010460Y015691D01*
X010489Y015719D01*
X010522Y015745D01*
X010556Y015767D01*
X010593Y015786D01*
X010631Y015801D01*
X010671Y015813D01*
X010711Y015821D01*
X010752Y015825D01*
X010794Y015825D01*
X010835Y015821D01*
X010875Y015813D01*
X010915Y015801D01*
X010953Y015786D01*
X010989Y015767D01*
X011024Y015745D01*
X011057Y015719D01*
X011086Y015691D01*
X011113Y015660D01*
X011137Y015626D01*
X011158Y015590D01*
X011175Y015553D01*
X011188Y015514D01*
X011198Y015474D01*
X011204Y015433D01*
X011206Y015392D01*
X011204Y015351D01*
X011198Y015310D01*
X011188Y015270D01*
X011175Y015231D01*
X011158Y015194D01*
X011137Y015158D01*
X011113Y015124D01*
X011086Y015093D01*
X011057Y015065D01*
X011024Y015039D01*
X010990Y015017D01*
X010953Y014998D01*
X010915Y014983D01*
X010875Y014971D01*
X010835Y014963D01*
X010794Y014959D01*
X010752Y014959D01*
X010711Y014963D01*
X010671Y014971D01*
X010631Y014983D01*
X010593Y014998D01*
X010557Y015017D01*
X010522Y015039D01*
X010489Y015065D01*
X010460Y015093D01*
X010433Y015124D01*
X010409Y015158D01*
X010388Y015194D01*
X010371Y015231D01*
X010358Y015270D01*
X010348Y015310D01*
X010342Y015351D01*
X010340Y015392D01*
X011195Y018043D02*
X011288Y018043D01*
X011335Y018090D01*
X011242Y018183D02*
X011195Y018183D01*
X011148Y018136D01*
X011148Y018090D01*
X011195Y018043D01*
X011195Y018183D02*
X011148Y018230D01*
X011148Y018276D01*
X011195Y018323D01*
X011288Y018323D01*
X011335Y018276D01*
X012058Y018273D02*
X012105Y018319D01*
X012198Y018319D01*
X012245Y018273D01*
X012058Y018273D02*
X012058Y018226D01*
X012245Y018039D01*
X012058Y018039D01*
X012910Y018043D02*
X013096Y018043D01*
X013003Y018043D02*
X013003Y018323D01*
X013096Y018230D01*
X010847Y020743D02*
X010847Y021023D01*
X010987Y020883D01*
X010800Y020883D01*
X061273Y006556D02*
X061460Y006556D01*
X061366Y006556D02*
X061366Y006836D01*
X061460Y006743D01*
X062124Y006746D02*
X062311Y006560D01*
X062124Y006560D01*
X062124Y006746D02*
X062124Y006793D01*
X062171Y006840D01*
X062264Y006840D01*
X062311Y006793D01*
X063034Y006789D02*
X063034Y006743D01*
X063081Y006696D01*
X063034Y006649D01*
X063034Y006603D01*
X063081Y006556D01*
X063174Y006556D01*
X063221Y006603D01*
X063128Y006696D02*
X063081Y006696D01*
X063034Y006789D02*
X063081Y006836D01*
X063174Y006836D01*
X063221Y006789D01*
X064423Y006556D02*
X064609Y006556D01*
X064516Y006556D02*
X064516Y006836D01*
X064609Y006743D01*
X065274Y006746D02*
X065461Y006560D01*
X065274Y006560D01*
X065274Y006746D02*
X065274Y006793D01*
X065321Y006840D01*
X065414Y006840D01*
X065461Y006793D01*
X066184Y006789D02*
X066184Y006743D01*
X066231Y006696D01*
X066184Y006649D01*
X066184Y006603D01*
X066231Y006556D01*
X066324Y006556D01*
X066371Y006603D01*
X066277Y006696D02*
X066231Y006696D01*
X066184Y006789D02*
X066231Y006836D01*
X066324Y006836D01*
X066371Y006789D01*
X066579Y004136D02*
X066719Y003996D01*
X066532Y003996D01*
X066579Y003856D02*
X066579Y004136D01*
X063569Y003996D02*
X063382Y003996D01*
X063429Y004136D02*
X063569Y003996D01*
X063429Y003856D02*
X063429Y004136D01*
X074453Y010942D02*
X074453Y011223D01*
X074593Y011083D01*
X074406Y011083D01*
X074198Y013642D02*
X074245Y013689D01*
X074198Y013642D02*
X074105Y013642D01*
X074058Y013689D01*
X074058Y013736D01*
X074105Y013783D01*
X074151Y013783D01*
X074105Y013783D02*
X074058Y013829D01*
X074058Y013876D01*
X074105Y013923D01*
X074198Y013923D01*
X074245Y013876D01*
X073335Y013880D02*
X073288Y013926D01*
X073195Y013926D01*
X073148Y013880D01*
X073148Y013833D01*
X073335Y013646D01*
X073148Y013646D01*
X072483Y013642D02*
X072297Y013642D01*
X072390Y013642D02*
X072390Y013923D01*
X072483Y013829D01*
D17*
X022990Y013452D02*
X022990Y016152D01*
X022690Y016152D02*
X022690Y013452D01*
X022689Y013414D01*
X022684Y013377D01*
X022677Y013340D01*
X022668Y013304D01*
X022655Y013268D01*
X022640Y013234D01*
X021740Y012791D02*
X021695Y012823D01*
X021653Y012859D01*
X021613Y012898D01*
X021576Y012940D01*
X021542Y012983D01*
X021511Y013030D01*
X021483Y013078D01*
X021459Y013128D01*
X021438Y013179D01*
X021421Y013232D01*
X021407Y013286D01*
X021398Y013341D01*
X021392Y013396D01*
X021390Y013452D01*
X021390Y016152D01*
X021690Y016152D02*
X021690Y013452D01*
X021691Y013414D01*
X021696Y013377D01*
X021703Y013340D01*
X021712Y013304D01*
X021725Y013268D01*
X021740Y013234D01*
X022640Y012791D02*
X022685Y012823D01*
X022727Y012859D01*
X022767Y012898D01*
X022804Y012939D01*
X022838Y012983D01*
X022869Y013030D01*
X022897Y013078D01*
X022921Y013128D01*
X022942Y013179D01*
X022959Y013232D01*
X022973Y013286D01*
X022982Y013341D01*
X022988Y013396D01*
X022990Y013452D01*
X022190Y014402D02*
X022190Y014552D01*
X022190Y015052D02*
X022190Y015202D01*
X021390Y016151D02*
X021392Y016207D01*
X021398Y016262D01*
X021407Y016317D01*
X021421Y016371D01*
X021438Y016424D01*
X021459Y016475D01*
X021483Y016525D01*
X021511Y016573D01*
X021542Y016620D01*
X021576Y016664D01*
X021613Y016705D01*
X021653Y016744D01*
X021695Y016780D01*
X021740Y016812D01*
X022640Y016813D02*
X022685Y016781D01*
X022727Y016745D01*
X022767Y016706D01*
X022804Y016664D01*
X022838Y016621D01*
X022869Y016574D01*
X022897Y016526D01*
X022921Y016476D01*
X022942Y016425D01*
X022959Y016372D01*
X022973Y016318D01*
X022982Y016263D01*
X022988Y016208D01*
X022990Y016152D01*
X022690Y016152D02*
X022689Y016190D01*
X022684Y016227D01*
X022677Y016264D01*
X022668Y016300D01*
X022655Y016336D01*
X022640Y016370D01*
X021740Y016370D02*
X021725Y016336D01*
X021712Y016300D01*
X021703Y016264D01*
X021696Y016227D01*
X021691Y016190D01*
X021690Y016152D01*
D18*
X022954Y021298D03*
X025560Y021298D03*
D19*
X011619Y016239D02*
X011619Y015077D01*
X009926Y015077D02*
X009926Y016239D01*
X010300Y016239D01*
X011245Y016239D02*
X011619Y016239D01*
X011147Y014546D02*
X010399Y014546D01*
D20*
X068647Y014070D03*
D21*
X007092Y016524D03*
M02*
