G75*
G70*
%OFA0B0*%
%FSLAX24Y24*%
%IPPOS*%
%LPD*%
%AMOC8*
5,1,8,0,0,1.08239X$1,22.5*
%
%ADD10R,0.0550X0.0300*%
%ADD11R,0.0300X0.0550*%
%ADD12C,0.0671*%
%ADD13C,0.0867*%
%ADD14OC8,0.0671*%
%ADD15R,0.0789X0.0789*%
%ADD16R,0.0789X0.0631*%
%ADD17R,0.0710X0.0790*%
%ADD18R,0.0790X0.0710*%
%ADD19R,0.0320X0.0790*%
%ADD20OC8,0.0930*%
%ADD21R,0.0560X0.0960*%
%ADD22R,0.1497X0.0946*%
%ADD23R,0.0840X0.2180*%
%ADD24R,0.0710X0.0789*%
%ADD25R,0.0631X0.0789*%
%ADD26R,0.0789X0.0710*%
%ADD27R,0.0867X0.0552*%
%ADD28C,0.2442*%
%ADD29R,0.0631X0.0474*%
%ADD30R,0.0946X0.0316*%
%ADD31R,0.0592X0.0867*%
%ADD32R,0.0867X0.0867*%
%ADD33R,0.0828X0.1419*%
%ADD34R,0.0552X0.0867*%
%ADD35R,0.2206X0.2521*%
%ADD36R,0.0474X0.0710*%
%ADD37R,0.0218X0.0552*%
%ADD38C,0.0358*%
%ADD39C,0.0457*%
D10*
X026600Y010865D03*
X026600Y011179D03*
X026600Y011494D03*
X026600Y011809D03*
X026600Y012124D03*
X026600Y012439D03*
X026600Y012754D03*
X026600Y013069D03*
X026600Y013384D03*
X026600Y013699D03*
X026600Y014014D03*
X026600Y014329D03*
X026600Y014644D03*
X026600Y014959D03*
X026600Y015274D03*
X026600Y015589D03*
X032741Y015589D03*
X032741Y015274D03*
X032741Y014959D03*
X032741Y014644D03*
X032741Y014329D03*
X032741Y014014D03*
X032741Y013699D03*
X032741Y013384D03*
X032741Y013069D03*
X032741Y012754D03*
X032741Y012439D03*
X032741Y012124D03*
X032741Y011809D03*
X032741Y011494D03*
X032741Y011179D03*
X032741Y010865D03*
X037639Y010902D03*
X037639Y011212D03*
X037639Y011522D03*
X037639Y011832D03*
X037639Y012142D03*
X037639Y012452D03*
X037639Y012762D03*
X037639Y013072D03*
X037639Y013382D03*
X037639Y013692D03*
X037639Y014002D03*
X037639Y014312D03*
X037639Y014622D03*
X037639Y014932D03*
X037639Y015242D03*
X037639Y015552D03*
X043749Y015552D03*
X043749Y015242D03*
X043749Y014932D03*
X043749Y014622D03*
X043749Y014312D03*
X043749Y014002D03*
X043749Y013692D03*
X043749Y013382D03*
X043749Y013072D03*
X043749Y012762D03*
X043749Y012452D03*
X043749Y012142D03*
X043749Y011832D03*
X043749Y011522D03*
X043749Y011212D03*
X043749Y010902D03*
D11*
X043019Y010172D03*
X042709Y010172D03*
X042399Y010172D03*
X042089Y010172D03*
X041779Y010172D03*
X041469Y010172D03*
X041159Y010172D03*
X040849Y010172D03*
X040539Y010172D03*
X040229Y010172D03*
X039919Y010172D03*
X039609Y010172D03*
X039299Y010172D03*
X038989Y010172D03*
X038679Y010172D03*
X038369Y010172D03*
X032033Y010156D03*
X031718Y010156D03*
X031403Y010156D03*
X031088Y010156D03*
X030773Y010156D03*
X030458Y010156D03*
X030143Y010156D03*
X029828Y010156D03*
X029513Y010156D03*
X029198Y010156D03*
X028883Y010156D03*
X028568Y010156D03*
X028253Y010156D03*
X027938Y010156D03*
X027623Y010156D03*
X027308Y010156D03*
X027308Y016298D03*
X027623Y016298D03*
X027938Y016298D03*
X028253Y016298D03*
X028568Y016298D03*
X028883Y016298D03*
X029198Y016298D03*
X029513Y016298D03*
X029828Y016298D03*
X030143Y016298D03*
X030458Y016298D03*
X030773Y016298D03*
X031088Y016298D03*
X031403Y016298D03*
X031718Y016298D03*
X032033Y016298D03*
X038369Y016282D03*
X038679Y016282D03*
X038989Y016282D03*
X039299Y016282D03*
X039609Y016282D03*
X039919Y016282D03*
X040229Y016282D03*
X040539Y016282D03*
X040849Y016282D03*
X041159Y016282D03*
X041469Y016282D03*
X041779Y016282D03*
X042089Y016282D03*
X042399Y016282D03*
X042709Y016282D03*
X043019Y016282D03*
D12*
X042702Y021199D03*
X043411Y021199D03*
X044119Y021199D03*
X044828Y021199D03*
X045537Y021199D03*
X046245Y021199D03*
X046954Y021199D03*
X047663Y021199D03*
X048371Y021199D03*
X049080Y021199D03*
X049789Y021199D03*
X050497Y021199D03*
X051206Y021199D03*
X051915Y021199D03*
X041993Y021199D03*
X041285Y021199D03*
X040576Y021199D03*
X039867Y021199D03*
X039159Y021199D03*
X038450Y021199D03*
X037741Y021199D03*
X037033Y021199D03*
X036324Y021199D03*
X035615Y021199D03*
X034907Y021199D03*
X034198Y021199D03*
X033489Y021199D03*
X032781Y021199D03*
X032072Y021199D03*
X031363Y021199D03*
X030655Y021199D03*
X029946Y021199D03*
X029237Y021199D03*
X028529Y021199D03*
X027820Y021199D03*
X027111Y021199D03*
D13*
X021403Y020609D03*
X057426Y020609D03*
D14*
X061651Y018246D03*
X062651Y018246D03*
X062651Y015687D03*
X061651Y015687D03*
X017375Y015687D03*
X016375Y015687D03*
X016375Y018246D03*
X017375Y018246D03*
D15*
X018794Y008010D03*
X019779Y008010D03*
X020763Y008010D03*
X026668Y008010D03*
X027653Y008010D03*
X028637Y008010D03*
X034543Y008010D03*
X035527Y008010D03*
X036511Y008010D03*
X042417Y008010D03*
X043401Y008010D03*
X044385Y008010D03*
X050291Y008010D03*
X051275Y008010D03*
X052259Y008010D03*
X053243Y005057D03*
X049306Y005057D03*
X045369Y005057D03*
X041432Y005057D03*
X037495Y005057D03*
X033558Y005057D03*
X029621Y005057D03*
X025684Y005057D03*
X021747Y005057D03*
X017810Y005057D03*
X069139Y009683D03*
X070123Y009683D03*
X071107Y009683D03*
D16*
X051127Y009802D03*
X051127Y011140D03*
X003588Y018463D03*
X003588Y019802D03*
D17*
X012575Y015392D03*
X013695Y015392D03*
X007789Y012242D03*
X006670Y012242D03*
X005821Y012242D03*
X004701Y012242D03*
X027088Y009082D03*
X028207Y009082D03*
X034622Y010274D03*
X035742Y010274D03*
X035742Y014998D03*
X034622Y014998D03*
X034622Y015983D03*
X035742Y015983D03*
X024522Y020313D03*
X023402Y020313D03*
X064937Y018453D03*
X066057Y018453D03*
X066057Y017449D03*
X064937Y017449D03*
X071237Y017449D03*
X072356Y017449D03*
X072356Y018453D03*
X071237Y018453D03*
X070260Y019723D03*
X069140Y019723D03*
X068154Y019723D03*
X067034Y019723D03*
X073008Y014605D03*
X074128Y014605D03*
X070781Y003542D03*
X069662Y003542D03*
X040073Y003581D03*
X038953Y003581D03*
X032297Y004368D03*
X031178Y004368D03*
D18*
X050143Y009911D03*
X052111Y009911D03*
X052111Y011031D03*
X050143Y011031D03*
X070812Y011486D03*
X070812Y012605D03*
X075733Y012605D03*
X075733Y011486D03*
X074355Y015620D03*
X074355Y016739D03*
X074355Y017785D03*
X074355Y018905D03*
X074355Y019950D03*
X074355Y021070D03*
X019828Y021365D03*
X019828Y020246D03*
X013726Y020283D03*
X013726Y019163D03*
D19*
X025343Y019132D03*
X025733Y019132D03*
X026123Y019132D03*
X026523Y019132D03*
X026913Y019132D03*
X027313Y019132D03*
X027703Y019132D03*
X028093Y019132D03*
X028493Y019132D03*
X028883Y019132D03*
X028883Y017612D03*
X028493Y017612D03*
X028093Y017612D03*
X027703Y017612D03*
X027313Y017612D03*
X026913Y017612D03*
X026523Y017612D03*
X026123Y017612D03*
X025733Y017612D03*
X025343Y017612D03*
X023568Y010865D03*
X023178Y010865D03*
X022778Y010865D03*
X022388Y010865D03*
X021998Y010865D03*
X021598Y010865D03*
X021208Y010865D03*
X020808Y010865D03*
X020418Y010865D03*
X020028Y010865D03*
X020028Y009345D03*
X020418Y009345D03*
X020808Y009345D03*
X021208Y009345D03*
X021598Y009345D03*
X021998Y009345D03*
X022388Y009345D03*
X022778Y009345D03*
X023178Y009345D03*
X023568Y009345D03*
D20*
X015300Y003778D03*
X016481Y003778D03*
X015300Y007715D03*
X015300Y009014D03*
X002111Y012439D03*
X020025Y019132D03*
X021403Y019132D03*
X004867Y020805D03*
X003489Y020805D03*
X002111Y020805D03*
X030852Y008699D03*
X032426Y008699D03*
X046009Y008502D03*
X048765Y008502D03*
X058017Y007715D03*
X059395Y007715D03*
X076206Y007124D03*
X076206Y008502D03*
X076127Y014211D03*
D21*
X074478Y013462D03*
X073568Y013462D03*
X072658Y013462D03*
X066604Y006376D03*
X065694Y006376D03*
X064784Y006376D03*
X063454Y006376D03*
X062544Y006376D03*
X061634Y006376D03*
X012667Y018503D03*
X011757Y018503D03*
X010847Y018503D03*
D22*
X011757Y020943D03*
X062544Y003936D03*
X065694Y003936D03*
X073568Y011022D03*
D23*
X022190Y012902D03*
X022190Y016702D03*
D24*
X024001Y014408D03*
X025104Y014408D03*
X025104Y013424D03*
X024001Y013424D03*
X013686Y014408D03*
X012584Y014408D03*
X012584Y016376D03*
X013686Y016376D03*
X034631Y014014D03*
X035733Y014014D03*
X035733Y011258D03*
X034631Y011258D03*
X038371Y009093D03*
X039474Y009093D03*
X068096Y016376D03*
X069198Y016376D03*
X069198Y021101D03*
X068096Y021101D03*
D25*
X026009Y021298D03*
X024670Y021298D03*
X023844Y021298D03*
X022505Y021298D03*
D26*
X005655Y017715D03*
X005655Y016613D03*
X003293Y013286D03*
X003293Y012183D03*
X066481Y013857D03*
X066481Y014959D03*
X070812Y014959D03*
X070812Y013857D03*
D27*
X071245Y016179D03*
X072348Y016179D03*
D28*
X075044Y004861D03*
X008657Y020313D03*
D29*
X065458Y020333D03*
X066324Y020707D03*
X065458Y021081D03*
X071363Y021081D03*
X072230Y020707D03*
X071363Y020333D03*
D30*
X069670Y018701D03*
X069670Y018201D03*
X069670Y017701D03*
X069670Y017201D03*
X067623Y017201D03*
X067623Y017701D03*
X067623Y018201D03*
X067623Y018701D03*
D31*
X011481Y014605D03*
X010064Y014605D03*
D32*
X010773Y016179D03*
D33*
X034415Y012636D03*
X035950Y012636D03*
D34*
X031737Y007282D03*
X031737Y006179D03*
D35*
X068647Y012046D03*
D36*
X069544Y014920D03*
X067749Y014920D03*
D37*
X007220Y016012D03*
X006964Y016012D03*
X006708Y016012D03*
X006452Y016012D03*
X006452Y018315D03*
X006708Y018315D03*
X006964Y018315D03*
X007220Y018315D03*
D38*
X006727Y017678D03*
X006477Y017428D03*
X007665Y017053D03*
X007915Y016803D03*
X008165Y016491D03*
X007165Y016491D03*
X010040Y015553D03*
X011665Y015428D03*
X013165Y016303D03*
X014915Y016803D03*
X015102Y016303D03*
X015352Y016053D03*
X015852Y015803D03*
X015540Y015491D03*
X015352Y015178D03*
X015102Y014928D03*
X014915Y014366D03*
X015165Y014116D03*
X015727Y014053D03*
X014415Y013491D03*
X013665Y013803D03*
X013290Y013803D03*
X014977Y012553D03*
X013540Y012303D03*
X012415Y012428D03*
X012415Y012053D03*
X014415Y011678D03*
X014977Y011491D03*
X014977Y011116D03*
X015790Y010866D03*
X018852Y011116D03*
X019665Y011241D03*
X019352Y010241D03*
X021790Y010303D03*
X024227Y011491D03*
X023977Y012116D03*
X025477Y012116D03*
X026040Y011803D03*
X027477Y011803D03*
X027477Y011428D03*
X028477Y011491D03*
X028915Y011866D03*
X029290Y011866D03*
X029915Y012053D03*
X029102Y012678D03*
X029102Y013053D03*
X030040Y013366D03*
X029290Y013553D03*
X029102Y013866D03*
X028602Y013553D03*
X027540Y013866D03*
X028102Y014178D03*
X028852Y014178D03*
X028602Y014678D03*
X027102Y014678D03*
X027102Y015053D03*
X025977Y014616D03*
X025665Y014803D03*
X025665Y014428D03*
X024540Y014491D03*
X024727Y015678D03*
X024290Y015678D03*
X023540Y015741D03*
X023540Y016116D03*
X024727Y016053D03*
X025352Y016303D03*
X025727Y016741D03*
X027102Y016741D03*
X028102Y016741D03*
X029227Y017241D03*
X028790Y018178D03*
X028102Y018178D03*
X028290Y018553D03*
X027352Y018553D03*
X025977Y018303D03*
X025227Y018178D03*
X024727Y018053D03*
X025227Y018553D03*
X024290Y018803D03*
X023790Y018553D03*
X020977Y019616D03*
X020602Y018303D03*
X018352Y018053D03*
X020540Y017241D03*
X020540Y016866D03*
X020790Y016366D03*
X020790Y015991D03*
X020352Y015616D03*
X020790Y015303D03*
X019665Y015303D03*
X020790Y014803D03*
X019790Y014491D03*
X020790Y013116D03*
X020790Y012741D03*
X020540Y012491D03*
X021540Y012053D03*
X024540Y013053D03*
X025977Y013116D03*
X027040Y013366D03*
X027102Y012366D03*
X031352Y013491D03*
X030040Y013741D03*
X031602Y014678D03*
X032102Y014928D03*
X033665Y014741D03*
X035165Y014991D03*
X036290Y014928D03*
X036477Y014616D03*
X035165Y014303D03*
X037165Y013991D03*
X038102Y013678D03*
X038352Y014241D03*
X039415Y013553D03*
X039665Y013303D03*
X040727Y013116D03*
X040727Y013491D03*
X040477Y013741D03*
X041227Y013803D03*
X041477Y013553D03*
X041977Y013678D03*
X042227Y013928D03*
X042227Y014303D03*
X043227Y014178D03*
X042227Y014866D03*
X040165Y015303D03*
X039665Y015678D03*
X040165Y015803D03*
X040540Y015803D03*
X041040Y015803D03*
X038540Y015803D03*
X038540Y015428D03*
X038352Y015116D03*
X036915Y015366D03*
X037165Y015616D03*
X036540Y015303D03*
X035227Y015553D03*
X037040Y016491D03*
X037102Y017241D03*
X036727Y017241D03*
X036352Y017241D03*
X037540Y017428D03*
X037790Y017678D03*
X037290Y017803D03*
X038915Y017241D03*
X039415Y017241D03*
X040227Y017241D03*
X040602Y017241D03*
X040977Y017241D03*
X041352Y017241D03*
X041727Y017241D03*
X041977Y017491D03*
X041352Y017866D03*
X040977Y017866D03*
X040602Y017866D03*
X039977Y017991D03*
X042977Y017116D03*
X042977Y016741D03*
X044102Y016428D03*
X044477Y016803D03*
X043665Y018178D03*
X042227Y019053D03*
X041477Y019991D03*
X036477Y019928D03*
X036040Y020178D03*
X034165Y019928D03*
X033915Y020178D03*
X032665Y020678D03*
X029352Y020428D03*
X028915Y020678D03*
X026977Y020553D03*
X026977Y019866D03*
X025665Y019866D03*
X025477Y021428D03*
X026540Y021616D03*
X020477Y021366D03*
X012352Y019428D03*
X011852Y019178D03*
X010352Y017991D03*
X006165Y019553D03*
X004165Y020053D03*
X016477Y016241D03*
X025415Y015616D03*
X028477Y015803D03*
X028852Y015803D03*
X029227Y015803D03*
X029727Y015553D03*
X028852Y015303D03*
X032102Y015616D03*
X033915Y017116D03*
X034290Y017116D03*
X034665Y017241D03*
X034227Y017491D03*
X033415Y017241D03*
X032915Y017366D03*
X039915Y015053D03*
X041977Y013303D03*
X041977Y012803D03*
X039415Y012553D03*
X038727Y012741D03*
X038477Y012491D03*
X039415Y012178D03*
X037165Y012491D03*
X038540Y013053D03*
X039227Y010928D03*
X039665Y010678D03*
X040477Y010741D03*
X040852Y010741D03*
X038540Y010616D03*
X038040Y010178D03*
X038352Y009678D03*
X036665Y009803D03*
X036727Y008991D03*
X037352Y008616D03*
X037727Y008616D03*
X039665Y008366D03*
X040040Y008366D03*
X040040Y009116D03*
X041227Y009678D03*
X041977Y009678D03*
X044290Y009741D03*
X045540Y010053D03*
X045790Y009803D03*
X047165Y010116D03*
X049102Y011116D03*
X044352Y010741D03*
X047040Y013303D03*
X047665Y013428D03*
X052040Y013928D03*
X052040Y014303D03*
X053665Y013866D03*
X062165Y016491D03*
X062040Y017053D03*
X061540Y016928D03*
X063290Y017241D03*
X064165Y016303D03*
X067477Y015491D03*
X068290Y015428D03*
X069540Y015803D03*
X070102Y015303D03*
X068665Y016303D03*
X069852Y016803D03*
X073165Y016616D03*
X066977Y018178D03*
X066665Y018366D03*
X069727Y019241D03*
X070040Y019053D03*
X070665Y019053D03*
X070665Y018553D03*
X072540Y019303D03*
X068040Y020491D03*
X063665Y020366D03*
X062915Y020366D03*
X060415Y019491D03*
X057540Y018866D03*
X057040Y018866D03*
X056540Y018866D03*
X056040Y018866D03*
X055290Y018866D03*
X054540Y018866D03*
X055852Y019491D03*
X056290Y019616D03*
X051977Y018741D03*
X051852Y019241D03*
X049477Y020428D03*
X049915Y020678D03*
X048477Y019803D03*
X047977Y019928D03*
X047165Y019803D03*
X046790Y019928D03*
X053040Y017553D03*
X053540Y017553D03*
X054415Y017241D03*
X057665Y017241D03*
X059165Y016803D03*
X060165Y017741D03*
X061165Y018741D03*
X062915Y014366D03*
X066852Y012866D03*
X066665Y012303D03*
X066852Y011678D03*
X071977Y011741D03*
X072727Y011741D03*
X073977Y009053D03*
X071040Y009053D03*
X070290Y008553D03*
X069602Y008178D03*
X068227Y008866D03*
X067352Y008616D03*
X063790Y008241D03*
X063102Y008366D03*
X062602Y008116D03*
X062352Y007741D03*
X063227Y007866D03*
X063290Y007366D03*
X063915Y006803D03*
X063915Y006053D03*
X064290Y006053D03*
X064477Y005428D03*
X064102Y005428D03*
X063540Y005428D03*
X061415Y005241D03*
X062727Y004616D03*
X061165Y006553D03*
X060102Y007241D03*
X060102Y007741D03*
X057040Y007116D03*
X056790Y007366D03*
X058290Y006553D03*
X053602Y006491D03*
X053540Y007803D03*
X053040Y007678D03*
X049415Y006678D03*
X049165Y006428D03*
X048915Y006178D03*
X049290Y005803D03*
X050102Y006428D03*
X049040Y007053D03*
X047915Y007928D03*
X046165Y006616D03*
X046165Y006241D03*
X046165Y005178D03*
X040727Y006053D03*
X038790Y005803D03*
X037852Y005803D03*
X038290Y006491D03*
X037977Y006678D03*
X039915Y006866D03*
X041665Y007241D03*
X042415Y007241D03*
X033165Y010053D03*
X032477Y009366D03*
X030852Y009428D03*
X029852Y009303D03*
X029290Y009553D03*
X028727Y009553D03*
X028977Y008803D03*
X029165Y008491D03*
X030540Y008116D03*
X030290Y007866D03*
X029790Y007303D03*
X028790Y007053D03*
X027477Y007303D03*
X030415Y006616D03*
X031227Y006866D03*
X030415Y006053D03*
X032852Y004178D03*
X033227Y004178D03*
X031727Y004053D03*
X037915Y003553D03*
X038415Y003303D03*
X040665Y003428D03*
X041602Y003303D03*
X025852Y008803D03*
X025352Y008928D03*
X024852Y009053D03*
X024852Y008678D03*
X023665Y008178D03*
X022665Y007741D03*
X021977Y007678D03*
X021977Y008678D03*
X020790Y008741D03*
X019227Y007241D03*
X018977Y006991D03*
X017352Y006303D03*
X022540Y006241D03*
X022540Y005178D03*
X016227Y009053D03*
X016790Y012053D03*
X016415Y012116D03*
X017415Y012178D03*
X007227Y012178D03*
X005290Y011928D03*
X028165Y010616D03*
X029540Y011116D03*
X030165Y010678D03*
X030852Y011116D03*
X031165Y010803D03*
X031540Y010678D03*
X059227Y009553D03*
D39*
X062977Y006991D03*
X066477Y007116D03*
X066102Y005178D03*
X056790Y006803D03*
X063540Y012491D03*
X067415Y016553D03*
X070165Y016553D03*
X072915Y016928D03*
X064165Y016741D03*
X063915Y017491D03*
X069790Y020866D03*
X051040Y016928D03*
X038977Y014928D03*
X035165Y016491D03*
X033227Y014428D03*
X024977Y016678D03*
X026540Y018241D03*
X014227Y017866D03*
X008602Y017553D03*
X008602Y018366D03*
X015790Y006678D03*
M02*
