G75*
G70*
%OFA0B0*%
%FSLAX24Y24*%
%IPPOS*%
%LPD*%
%AMOC8*
5,1,8,0,0,1.08239X$1,22.5*
%
%ADD10C,0.0000*%
%ADD11C,0.0060*%
%ADD12C,0.0020*%
%ADD13C,0.0030*%
%ADD14C,0.0050*%
%ADD15R,0.0167X0.0128*%
%ADD16R,0.0138X0.0138*%
%ADD17C,0.0080*%
%ADD18C,0.0040*%
D10*
X014513Y003778D02*
X014513Y010865D01*
X014511Y010919D01*
X014506Y010972D01*
X014497Y011025D01*
X014484Y011077D01*
X014468Y011129D01*
X014448Y011179D01*
X014425Y011227D01*
X014398Y011274D01*
X014369Y011319D01*
X014336Y011362D01*
X014301Y011402D01*
X014263Y011440D01*
X014223Y011475D01*
X014180Y011508D01*
X014135Y011537D01*
X014088Y011564D01*
X014040Y011587D01*
X013990Y011607D01*
X013938Y011623D01*
X013886Y011636D01*
X013833Y011645D01*
X013780Y011650D01*
X013726Y011652D01*
X002111Y011652D01*
X002057Y011654D01*
X002004Y011659D01*
X001951Y011668D01*
X001899Y011681D01*
X001847Y011697D01*
X001797Y011717D01*
X001749Y011740D01*
X001702Y011767D01*
X001657Y011796D01*
X001614Y011829D01*
X001574Y011864D01*
X001536Y011902D01*
X001501Y011942D01*
X001468Y011985D01*
X001439Y012030D01*
X001412Y012077D01*
X001389Y012125D01*
X001369Y012175D01*
X001353Y012227D01*
X001340Y012279D01*
X001331Y012332D01*
X001326Y012385D01*
X001324Y012439D01*
X001324Y015195D01*
X002111Y015195D01*
X002111Y017557D01*
X001324Y017557D01*
X001324Y021888D01*
X012741Y021888D01*
X012780Y021886D01*
X012818Y021880D01*
X012855Y021871D01*
X012892Y021858D01*
X012927Y021841D01*
X012960Y021822D01*
X012991Y021799D01*
X013020Y021773D01*
X013046Y021744D01*
X013069Y021713D01*
X013088Y021680D01*
X013105Y021645D01*
X013118Y021608D01*
X013127Y021571D01*
X013133Y021533D01*
X013135Y021494D01*
X013135Y020904D01*
X013922Y020904D01*
X013922Y021494D01*
X013924Y021533D01*
X013930Y021571D01*
X013939Y021608D01*
X013952Y021645D01*
X013969Y021680D01*
X013988Y021713D01*
X014011Y021744D01*
X014037Y021773D01*
X014066Y021799D01*
X014097Y021822D01*
X014130Y021841D01*
X014165Y021858D01*
X014202Y021871D01*
X014239Y021880D01*
X014277Y021886D01*
X014316Y021888D01*
X015300Y021888D01*
X015301Y021886D02*
X015300Y021691D01*
X015302Y021652D01*
X015308Y021614D01*
X015317Y021577D01*
X015330Y021540D01*
X015347Y021505D01*
X015366Y021472D01*
X015389Y021441D01*
X015415Y021412D01*
X015444Y021386D01*
X015475Y021363D01*
X015508Y021344D01*
X015543Y021327D01*
X015580Y021314D01*
X015617Y021305D01*
X015655Y021299D01*
X015694Y021297D01*
X015694Y021298D02*
X018056Y021298D01*
X018056Y021297D02*
X018095Y021299D01*
X018133Y021305D01*
X018170Y021314D01*
X018207Y021327D01*
X018242Y021344D01*
X018275Y021363D01*
X018306Y021386D01*
X018335Y021412D01*
X018361Y021441D01*
X018384Y021472D01*
X018403Y021505D01*
X018420Y021540D01*
X018433Y021577D01*
X018442Y021614D01*
X018448Y021652D01*
X018450Y021691D01*
X018450Y021887D01*
X018450Y021888D02*
X060281Y021888D01*
X060281Y021691D01*
X060283Y021652D01*
X060289Y021614D01*
X060298Y021576D01*
X060311Y021540D01*
X060328Y021505D01*
X060348Y021472D01*
X060371Y021441D01*
X060397Y021412D01*
X060426Y021386D01*
X060457Y021363D01*
X060491Y021343D01*
X060526Y021327D01*
X060562Y021314D01*
X060600Y021304D01*
X060638Y021299D01*
X060677Y021297D01*
X060674Y021298D02*
X064021Y021298D01*
X064021Y021297D02*
X064060Y021299D01*
X064098Y021305D01*
X064135Y021314D01*
X064172Y021327D01*
X064207Y021344D01*
X064240Y021363D01*
X064271Y021386D01*
X064300Y021412D01*
X064326Y021441D01*
X064349Y021472D01*
X064368Y021505D01*
X064385Y021540D01*
X064398Y021577D01*
X064407Y021614D01*
X064413Y021652D01*
X064415Y021691D01*
X064413Y021887D01*
X064415Y021888D02*
X076127Y021888D01*
X076915Y021101D01*
X076915Y017557D01*
X076127Y017557D01*
X076127Y015195D01*
X076915Y015195D01*
X076915Y010471D01*
X076913Y010432D01*
X076907Y010394D01*
X076898Y010357D01*
X076885Y010320D01*
X076868Y010285D01*
X076849Y010252D01*
X076826Y010221D01*
X076800Y010192D01*
X076771Y010166D01*
X076740Y010143D01*
X076707Y010124D01*
X076672Y010107D01*
X076635Y010094D01*
X076598Y010085D01*
X076560Y010079D01*
X076521Y010077D01*
X075733Y010077D01*
X075733Y009290D01*
X076521Y009290D01*
X076560Y009288D01*
X076598Y009282D01*
X076635Y009273D01*
X076672Y009260D01*
X076707Y009243D01*
X076740Y009224D01*
X076771Y009201D01*
X076800Y009175D01*
X076826Y009146D01*
X076849Y009115D01*
X076868Y009082D01*
X076885Y009047D01*
X076898Y009010D01*
X076907Y008973D01*
X076913Y008935D01*
X076915Y008896D01*
X076915Y003778D01*
X076127Y002991D01*
X074159Y002991D01*
X074159Y002990D02*
X074120Y002992D01*
X074082Y002998D01*
X074045Y003007D01*
X074008Y003020D01*
X073973Y003037D01*
X073940Y003056D01*
X073909Y003079D01*
X073880Y003105D01*
X073854Y003134D01*
X073831Y003165D01*
X073812Y003198D01*
X073795Y003233D01*
X073782Y003270D01*
X073773Y003307D01*
X073767Y003345D01*
X073765Y003384D01*
X073765Y003975D01*
X072978Y003975D01*
X072978Y003384D01*
X072976Y003345D01*
X072970Y003307D01*
X072961Y003270D01*
X072948Y003233D01*
X072931Y003198D01*
X072912Y003165D01*
X072889Y003134D01*
X072863Y003105D01*
X072834Y003079D01*
X072803Y003056D01*
X072770Y003037D01*
X072735Y003020D01*
X072698Y003007D01*
X072661Y002998D01*
X072623Y002992D01*
X072584Y002990D01*
X072584Y002991D02*
X061560Y002991D01*
X061506Y002993D01*
X061453Y002998D01*
X061400Y003007D01*
X061348Y003020D01*
X061296Y003036D01*
X061246Y003056D01*
X061198Y003079D01*
X061151Y003106D01*
X061106Y003135D01*
X061063Y003168D01*
X061023Y003203D01*
X060985Y003241D01*
X060950Y003281D01*
X060917Y003324D01*
X060888Y003369D01*
X060861Y003416D01*
X060838Y003464D01*
X060818Y003514D01*
X060802Y003566D01*
X060789Y003618D01*
X060780Y003671D01*
X060775Y003724D01*
X060773Y003778D01*
X060773Y004959D01*
X060771Y005036D01*
X060765Y005113D01*
X060756Y005190D01*
X060743Y005266D01*
X060726Y005342D01*
X060705Y005416D01*
X060681Y005490D01*
X060653Y005562D01*
X060622Y005632D01*
X060587Y005701D01*
X060549Y005769D01*
X060508Y005834D01*
X060463Y005897D01*
X060415Y005958D01*
X060365Y006017D01*
X060312Y006073D01*
X060256Y006126D01*
X060197Y006176D01*
X060136Y006224D01*
X060073Y006269D01*
X060008Y006310D01*
X059940Y006348D01*
X059871Y006383D01*
X059801Y006414D01*
X059729Y006442D01*
X059655Y006466D01*
X059581Y006487D01*
X059505Y006504D01*
X059429Y006517D01*
X059352Y006526D01*
X059275Y006532D01*
X059198Y006534D01*
X059121Y006532D01*
X059044Y006526D01*
X058967Y006517D01*
X058891Y006504D01*
X058815Y006487D01*
X058741Y006466D01*
X058667Y006442D01*
X058595Y006414D01*
X058525Y006383D01*
X058456Y006348D01*
X058388Y006310D01*
X058323Y006269D01*
X058260Y006224D01*
X058199Y006176D01*
X058140Y006126D01*
X058084Y006073D01*
X058031Y006017D01*
X057981Y005958D01*
X057933Y005897D01*
X057888Y005834D01*
X057847Y005769D01*
X057809Y005701D01*
X057774Y005632D01*
X057743Y005562D01*
X057715Y005490D01*
X057691Y005416D01*
X057670Y005342D01*
X057653Y005266D01*
X057640Y005190D01*
X057631Y005113D01*
X057625Y005036D01*
X057623Y004959D01*
X057623Y003778D01*
X057621Y003724D01*
X057616Y003671D01*
X057607Y003618D01*
X057594Y003566D01*
X057578Y003514D01*
X057558Y003464D01*
X057535Y003416D01*
X057508Y003369D01*
X057479Y003324D01*
X057446Y003281D01*
X057411Y003241D01*
X057373Y003203D01*
X057333Y003168D01*
X057290Y003135D01*
X057245Y003106D01*
X057198Y003079D01*
X057150Y003056D01*
X057100Y003036D01*
X057048Y003020D01*
X056996Y003007D01*
X056943Y002998D01*
X056890Y002993D01*
X056836Y002991D01*
X048568Y002991D01*
X048568Y002990D02*
X048529Y002992D01*
X048491Y002998D01*
X048454Y003007D01*
X048417Y003020D01*
X048382Y003037D01*
X048349Y003056D01*
X048318Y003079D01*
X048289Y003105D01*
X048263Y003134D01*
X048240Y003165D01*
X048221Y003198D01*
X048204Y003233D01*
X048191Y003270D01*
X048182Y003307D01*
X048176Y003345D01*
X048174Y003384D01*
X048174Y003778D01*
X046796Y003778D01*
X046796Y003384D01*
X046797Y003384D02*
X046795Y003345D01*
X046789Y003307D01*
X046780Y003270D01*
X046767Y003233D01*
X046750Y003198D01*
X046731Y003165D01*
X046708Y003134D01*
X046682Y003105D01*
X046653Y003079D01*
X046622Y003056D01*
X046589Y003037D01*
X046554Y003020D01*
X046517Y003007D01*
X046480Y002998D01*
X046442Y002992D01*
X046403Y002990D01*
X046403Y002991D02*
X032820Y002991D01*
X032820Y002990D02*
X032781Y002992D01*
X032743Y002998D01*
X032706Y003007D01*
X032669Y003020D01*
X032634Y003037D01*
X032601Y003056D01*
X032570Y003079D01*
X032541Y003105D01*
X032515Y003134D01*
X032492Y003165D01*
X032473Y003198D01*
X032456Y003233D01*
X032443Y003270D01*
X032434Y003307D01*
X032428Y003345D01*
X032426Y003384D01*
X032426Y003778D01*
X031048Y003778D01*
X031048Y003384D01*
X031049Y003384D02*
X031047Y003345D01*
X031041Y003307D01*
X031032Y003270D01*
X031019Y003233D01*
X031002Y003198D01*
X030983Y003165D01*
X030960Y003134D01*
X030934Y003105D01*
X030905Y003079D01*
X030874Y003056D01*
X030841Y003037D01*
X030806Y003020D01*
X030769Y003007D01*
X030732Y002998D01*
X030694Y002992D01*
X030655Y002990D01*
X030655Y002991D02*
X024946Y002991D01*
X024946Y002990D02*
X024907Y002992D01*
X024869Y002998D01*
X024832Y003007D01*
X024795Y003020D01*
X024760Y003037D01*
X024727Y003056D01*
X024696Y003079D01*
X024667Y003105D01*
X024641Y003134D01*
X024618Y003165D01*
X024599Y003198D01*
X024582Y003233D01*
X024569Y003270D01*
X024560Y003307D01*
X024554Y003345D01*
X024552Y003384D01*
X024552Y003778D01*
X023174Y003778D01*
X023174Y003384D01*
X023175Y003384D02*
X023173Y003345D01*
X023167Y003307D01*
X023158Y003270D01*
X023145Y003233D01*
X023128Y003198D01*
X023109Y003165D01*
X023086Y003134D01*
X023060Y003105D01*
X023031Y003079D01*
X023000Y003056D01*
X022967Y003037D01*
X022932Y003020D01*
X022895Y003007D01*
X022858Y002998D01*
X022820Y002992D01*
X022781Y002990D01*
X022781Y002991D02*
X015300Y002991D01*
X015246Y002993D01*
X015193Y002998D01*
X015140Y003007D01*
X015088Y003020D01*
X015036Y003036D01*
X014986Y003056D01*
X014938Y003079D01*
X014891Y003106D01*
X014846Y003135D01*
X014803Y003168D01*
X014763Y003203D01*
X014725Y003241D01*
X014690Y003281D01*
X014657Y003324D01*
X014628Y003369D01*
X014601Y003416D01*
X014578Y003464D01*
X014558Y003514D01*
X014542Y003566D01*
X014529Y003618D01*
X014520Y003671D01*
X014515Y003724D01*
X014513Y003778D01*
X015694Y012735D02*
X015694Y013128D01*
X018450Y013128D01*
X018450Y012735D01*
X015694Y012735D01*
X021009Y020609D02*
X021011Y020648D01*
X021017Y020687D01*
X021027Y020725D01*
X021040Y020762D01*
X021057Y020797D01*
X021077Y020831D01*
X021101Y020862D01*
X021128Y020891D01*
X021157Y020917D01*
X021189Y020940D01*
X021223Y020960D01*
X021259Y020976D01*
X021296Y020988D01*
X021335Y020997D01*
X021374Y021002D01*
X021413Y021003D01*
X021452Y021000D01*
X021491Y020993D01*
X021528Y020982D01*
X021565Y020968D01*
X021600Y020950D01*
X021633Y020929D01*
X021664Y020904D01*
X021692Y020877D01*
X021717Y020847D01*
X021739Y020814D01*
X021758Y020780D01*
X021773Y020744D01*
X021785Y020706D01*
X021793Y020668D01*
X021797Y020629D01*
X021797Y020589D01*
X021793Y020550D01*
X021785Y020512D01*
X021773Y020474D01*
X021758Y020438D01*
X021739Y020404D01*
X021717Y020371D01*
X021692Y020341D01*
X021664Y020314D01*
X021633Y020289D01*
X021600Y020268D01*
X021565Y020250D01*
X021528Y020236D01*
X021491Y020225D01*
X021452Y020218D01*
X021413Y020215D01*
X021374Y020216D01*
X021335Y020221D01*
X021296Y020230D01*
X021259Y020242D01*
X021223Y020258D01*
X021189Y020278D01*
X021157Y020301D01*
X021128Y020327D01*
X021101Y020356D01*
X021077Y020387D01*
X021057Y020421D01*
X021040Y020456D01*
X021027Y020493D01*
X021017Y020531D01*
X021011Y020570D01*
X021009Y020609D01*
X057032Y020609D02*
X057034Y020648D01*
X057040Y020687D01*
X057050Y020725D01*
X057063Y020762D01*
X057080Y020797D01*
X057100Y020831D01*
X057124Y020862D01*
X057151Y020891D01*
X057180Y020917D01*
X057212Y020940D01*
X057246Y020960D01*
X057282Y020976D01*
X057319Y020988D01*
X057358Y020997D01*
X057397Y021002D01*
X057436Y021003D01*
X057475Y021000D01*
X057514Y020993D01*
X057551Y020982D01*
X057588Y020968D01*
X057623Y020950D01*
X057656Y020929D01*
X057687Y020904D01*
X057715Y020877D01*
X057740Y020847D01*
X057762Y020814D01*
X057781Y020780D01*
X057796Y020744D01*
X057808Y020706D01*
X057816Y020668D01*
X057820Y020629D01*
X057820Y020589D01*
X057816Y020550D01*
X057808Y020512D01*
X057796Y020474D01*
X057781Y020438D01*
X057762Y020404D01*
X057740Y020371D01*
X057715Y020341D01*
X057687Y020314D01*
X057656Y020289D01*
X057623Y020268D01*
X057588Y020250D01*
X057551Y020236D01*
X057514Y020225D01*
X057475Y020218D01*
X057436Y020215D01*
X057397Y020216D01*
X057358Y020221D01*
X057319Y020230D01*
X057282Y020242D01*
X057246Y020258D01*
X057212Y020278D01*
X057180Y020301D01*
X057151Y020327D01*
X057124Y020356D01*
X057100Y020387D01*
X057080Y020421D01*
X057063Y020456D01*
X057050Y020493D01*
X057040Y020531D01*
X057034Y020570D01*
X057032Y020609D01*
X060576Y013128D02*
X060576Y012735D01*
X063332Y012735D01*
X063332Y013128D01*
X060576Y013128D01*
X067859Y009782D02*
X067859Y004073D01*
X072387Y004073D01*
X072387Y009782D01*
X067859Y009782D01*
X067859Y007420D02*
X068647Y007420D01*
X068647Y006435D01*
X067859Y006435D01*
X067859Y007420D01*
X071600Y007420D02*
X071600Y006435D01*
X072387Y006435D01*
X072387Y007420D01*
X071600Y007420D01*
D11*
X061581Y010368D02*
X061581Y010968D01*
X061481Y010968D01*
X061481Y011068D01*
X060181Y010668D02*
X060183Y010688D01*
X060189Y010706D01*
X060198Y010724D01*
X060210Y010739D01*
X060225Y010751D01*
X060243Y010760D01*
X060261Y010766D01*
X060281Y010768D01*
X060301Y010766D01*
X060319Y010760D01*
X060337Y010751D01*
X060352Y010739D01*
X060364Y010724D01*
X060373Y010706D01*
X060379Y010688D01*
X060381Y010668D01*
X060379Y010648D01*
X060373Y010630D01*
X060364Y010612D01*
X060352Y010597D01*
X060337Y010585D01*
X060319Y010576D01*
X060301Y010570D01*
X060281Y010568D01*
X060261Y010570D01*
X060243Y010576D01*
X060225Y010585D01*
X060210Y010597D01*
X060198Y010612D01*
X060189Y010630D01*
X060183Y010648D01*
X060181Y010668D01*
X059581Y010668D02*
X059583Y010720D01*
X059589Y010772D01*
X059599Y010824D01*
X059612Y010874D01*
X059629Y010924D01*
X059650Y010972D01*
X059675Y011018D01*
X059703Y011062D01*
X059734Y011104D01*
X059768Y011144D01*
X059805Y011181D01*
X059845Y011215D01*
X059887Y011246D01*
X059931Y011274D01*
X059977Y011299D01*
X060025Y011320D01*
X060075Y011337D01*
X060125Y011350D01*
X060177Y011360D01*
X060229Y011366D01*
X060281Y011368D01*
X060333Y011366D01*
X060385Y011360D01*
X060437Y011350D01*
X060487Y011337D01*
X060537Y011320D01*
X060585Y011299D01*
X060631Y011274D01*
X060675Y011246D01*
X060717Y011215D01*
X060757Y011181D01*
X060794Y011144D01*
X060828Y011104D01*
X060859Y011062D01*
X060887Y011018D01*
X060912Y010972D01*
X060933Y010924D01*
X060950Y010874D01*
X060963Y010824D01*
X060973Y010772D01*
X060979Y010720D01*
X060981Y010668D01*
X060979Y010616D01*
X060973Y010564D01*
X060963Y010512D01*
X060950Y010462D01*
X060933Y010412D01*
X060912Y010364D01*
X060887Y010318D01*
X060859Y010274D01*
X060828Y010232D01*
X060794Y010192D01*
X060757Y010155D01*
X060717Y010121D01*
X060675Y010090D01*
X060631Y010062D01*
X060585Y010037D01*
X060537Y010016D01*
X060487Y009999D01*
X060437Y009986D01*
X060385Y009976D01*
X060333Y009970D01*
X060281Y009968D01*
X060229Y009970D01*
X060177Y009976D01*
X060125Y009986D01*
X060075Y009999D01*
X060025Y010016D01*
X059977Y010037D01*
X059931Y010062D01*
X059887Y010090D01*
X059845Y010121D01*
X059805Y010155D01*
X059768Y010192D01*
X059734Y010232D01*
X059703Y010274D01*
X059675Y010318D01*
X059650Y010364D01*
X059629Y010412D01*
X059612Y010462D01*
X059599Y010512D01*
X059589Y010564D01*
X059583Y010616D01*
X059581Y010668D01*
X059081Y010968D02*
X059081Y011068D01*
X059081Y010968D02*
X058981Y010968D01*
X058981Y010368D01*
X059081Y010368D01*
X059081Y010268D01*
X056955Y010368D02*
X056955Y010968D01*
X056855Y010968D01*
X056855Y011068D01*
X055555Y010668D02*
X055557Y010688D01*
X055563Y010706D01*
X055572Y010724D01*
X055584Y010739D01*
X055599Y010751D01*
X055617Y010760D01*
X055635Y010766D01*
X055655Y010768D01*
X055675Y010766D01*
X055693Y010760D01*
X055711Y010751D01*
X055726Y010739D01*
X055738Y010724D01*
X055747Y010706D01*
X055753Y010688D01*
X055755Y010668D01*
X055753Y010648D01*
X055747Y010630D01*
X055738Y010612D01*
X055726Y010597D01*
X055711Y010585D01*
X055693Y010576D01*
X055675Y010570D01*
X055655Y010568D01*
X055635Y010570D01*
X055617Y010576D01*
X055599Y010585D01*
X055584Y010597D01*
X055572Y010612D01*
X055563Y010630D01*
X055557Y010648D01*
X055555Y010668D01*
X054955Y010668D02*
X054957Y010720D01*
X054963Y010772D01*
X054973Y010824D01*
X054986Y010874D01*
X055003Y010924D01*
X055024Y010972D01*
X055049Y011018D01*
X055077Y011062D01*
X055108Y011104D01*
X055142Y011144D01*
X055179Y011181D01*
X055219Y011215D01*
X055261Y011246D01*
X055305Y011274D01*
X055351Y011299D01*
X055399Y011320D01*
X055449Y011337D01*
X055499Y011350D01*
X055551Y011360D01*
X055603Y011366D01*
X055655Y011368D01*
X055707Y011366D01*
X055759Y011360D01*
X055811Y011350D01*
X055861Y011337D01*
X055911Y011320D01*
X055959Y011299D01*
X056005Y011274D01*
X056049Y011246D01*
X056091Y011215D01*
X056131Y011181D01*
X056168Y011144D01*
X056202Y011104D01*
X056233Y011062D01*
X056261Y011018D01*
X056286Y010972D01*
X056307Y010924D01*
X056324Y010874D01*
X056337Y010824D01*
X056347Y010772D01*
X056353Y010720D01*
X056355Y010668D01*
X056353Y010616D01*
X056347Y010564D01*
X056337Y010512D01*
X056324Y010462D01*
X056307Y010412D01*
X056286Y010364D01*
X056261Y010318D01*
X056233Y010274D01*
X056202Y010232D01*
X056168Y010192D01*
X056131Y010155D01*
X056091Y010121D01*
X056049Y010090D01*
X056005Y010062D01*
X055959Y010037D01*
X055911Y010016D01*
X055861Y009999D01*
X055811Y009986D01*
X055759Y009976D01*
X055707Y009970D01*
X055655Y009968D01*
X055603Y009970D01*
X055551Y009976D01*
X055499Y009986D01*
X055449Y009999D01*
X055399Y010016D01*
X055351Y010037D01*
X055305Y010062D01*
X055261Y010090D01*
X055219Y010121D01*
X055179Y010155D01*
X055142Y010192D01*
X055108Y010232D01*
X055077Y010274D01*
X055049Y010318D01*
X055024Y010364D01*
X055003Y010412D01*
X054986Y010462D01*
X054973Y010512D01*
X054963Y010564D01*
X054957Y010616D01*
X054955Y010668D01*
X054455Y010968D02*
X054455Y011068D01*
X054455Y010968D02*
X054355Y010968D01*
X054355Y010368D01*
X054455Y010368D01*
X054455Y010268D01*
X052427Y010368D02*
X052427Y010968D01*
X052327Y010968D01*
X052327Y011068D01*
X051027Y010668D02*
X051029Y010688D01*
X051035Y010706D01*
X051044Y010724D01*
X051056Y010739D01*
X051071Y010751D01*
X051089Y010760D01*
X051107Y010766D01*
X051127Y010768D01*
X051147Y010766D01*
X051165Y010760D01*
X051183Y010751D01*
X051198Y010739D01*
X051210Y010724D01*
X051219Y010706D01*
X051225Y010688D01*
X051227Y010668D01*
X051225Y010648D01*
X051219Y010630D01*
X051210Y010612D01*
X051198Y010597D01*
X051183Y010585D01*
X051165Y010576D01*
X051147Y010570D01*
X051127Y010568D01*
X051107Y010570D01*
X051089Y010576D01*
X051071Y010585D01*
X051056Y010597D01*
X051044Y010612D01*
X051035Y010630D01*
X051029Y010648D01*
X051027Y010668D01*
X050427Y010668D02*
X050429Y010720D01*
X050435Y010772D01*
X050445Y010824D01*
X050458Y010874D01*
X050475Y010924D01*
X050496Y010972D01*
X050521Y011018D01*
X050549Y011062D01*
X050580Y011104D01*
X050614Y011144D01*
X050651Y011181D01*
X050691Y011215D01*
X050733Y011246D01*
X050777Y011274D01*
X050823Y011299D01*
X050871Y011320D01*
X050921Y011337D01*
X050971Y011350D01*
X051023Y011360D01*
X051075Y011366D01*
X051127Y011368D01*
X051179Y011366D01*
X051231Y011360D01*
X051283Y011350D01*
X051333Y011337D01*
X051383Y011320D01*
X051431Y011299D01*
X051477Y011274D01*
X051521Y011246D01*
X051563Y011215D01*
X051603Y011181D01*
X051640Y011144D01*
X051674Y011104D01*
X051705Y011062D01*
X051733Y011018D01*
X051758Y010972D01*
X051779Y010924D01*
X051796Y010874D01*
X051809Y010824D01*
X051819Y010772D01*
X051825Y010720D01*
X051827Y010668D01*
X051825Y010616D01*
X051819Y010564D01*
X051809Y010512D01*
X051796Y010462D01*
X051779Y010412D01*
X051758Y010364D01*
X051733Y010318D01*
X051705Y010274D01*
X051674Y010232D01*
X051640Y010192D01*
X051603Y010155D01*
X051563Y010121D01*
X051521Y010090D01*
X051477Y010062D01*
X051431Y010037D01*
X051383Y010016D01*
X051333Y009999D01*
X051283Y009986D01*
X051231Y009976D01*
X051179Y009970D01*
X051127Y009968D01*
X051075Y009970D01*
X051023Y009976D01*
X050971Y009986D01*
X050921Y009999D01*
X050871Y010016D01*
X050823Y010037D01*
X050777Y010062D01*
X050733Y010090D01*
X050691Y010121D01*
X050651Y010155D01*
X050614Y010192D01*
X050580Y010232D01*
X050549Y010274D01*
X050521Y010318D01*
X050496Y010364D01*
X050475Y010412D01*
X050458Y010462D01*
X050445Y010512D01*
X050435Y010564D01*
X050429Y010616D01*
X050427Y010668D01*
X049927Y010968D02*
X049927Y011068D01*
X049927Y010968D02*
X049827Y010968D01*
X049827Y010368D01*
X049927Y010368D01*
X049927Y010268D01*
X047900Y010368D02*
X047900Y010968D01*
X047800Y010968D01*
X047800Y011068D01*
X046500Y010668D02*
X046502Y010688D01*
X046508Y010706D01*
X046517Y010724D01*
X046529Y010739D01*
X046544Y010751D01*
X046562Y010760D01*
X046580Y010766D01*
X046600Y010768D01*
X046620Y010766D01*
X046638Y010760D01*
X046656Y010751D01*
X046671Y010739D01*
X046683Y010724D01*
X046692Y010706D01*
X046698Y010688D01*
X046700Y010668D01*
X046698Y010648D01*
X046692Y010630D01*
X046683Y010612D01*
X046671Y010597D01*
X046656Y010585D01*
X046638Y010576D01*
X046620Y010570D01*
X046600Y010568D01*
X046580Y010570D01*
X046562Y010576D01*
X046544Y010585D01*
X046529Y010597D01*
X046517Y010612D01*
X046508Y010630D01*
X046502Y010648D01*
X046500Y010668D01*
X045900Y010668D02*
X045902Y010720D01*
X045908Y010772D01*
X045918Y010824D01*
X045931Y010874D01*
X045948Y010924D01*
X045969Y010972D01*
X045994Y011018D01*
X046022Y011062D01*
X046053Y011104D01*
X046087Y011144D01*
X046124Y011181D01*
X046164Y011215D01*
X046206Y011246D01*
X046250Y011274D01*
X046296Y011299D01*
X046344Y011320D01*
X046394Y011337D01*
X046444Y011350D01*
X046496Y011360D01*
X046548Y011366D01*
X046600Y011368D01*
X046652Y011366D01*
X046704Y011360D01*
X046756Y011350D01*
X046806Y011337D01*
X046856Y011320D01*
X046904Y011299D01*
X046950Y011274D01*
X046994Y011246D01*
X047036Y011215D01*
X047076Y011181D01*
X047113Y011144D01*
X047147Y011104D01*
X047178Y011062D01*
X047206Y011018D01*
X047231Y010972D01*
X047252Y010924D01*
X047269Y010874D01*
X047282Y010824D01*
X047292Y010772D01*
X047298Y010720D01*
X047300Y010668D01*
X047298Y010616D01*
X047292Y010564D01*
X047282Y010512D01*
X047269Y010462D01*
X047252Y010412D01*
X047231Y010364D01*
X047206Y010318D01*
X047178Y010274D01*
X047147Y010232D01*
X047113Y010192D01*
X047076Y010155D01*
X047036Y010121D01*
X046994Y010090D01*
X046950Y010062D01*
X046904Y010037D01*
X046856Y010016D01*
X046806Y009999D01*
X046756Y009986D01*
X046704Y009976D01*
X046652Y009970D01*
X046600Y009968D01*
X046548Y009970D01*
X046496Y009976D01*
X046444Y009986D01*
X046394Y009999D01*
X046344Y010016D01*
X046296Y010037D01*
X046250Y010062D01*
X046206Y010090D01*
X046164Y010121D01*
X046124Y010155D01*
X046087Y010192D01*
X046053Y010232D01*
X046022Y010274D01*
X045994Y010318D01*
X045969Y010364D01*
X045948Y010412D01*
X045931Y010462D01*
X045918Y010512D01*
X045908Y010564D01*
X045902Y010616D01*
X045900Y010668D01*
X045400Y010968D02*
X045400Y011068D01*
X045400Y010968D02*
X045300Y010968D01*
X045300Y010368D01*
X045400Y010368D01*
X045400Y010268D01*
X043372Y010368D02*
X043372Y010968D01*
X043272Y010968D01*
X043272Y011068D01*
X041972Y010668D02*
X041974Y010688D01*
X041980Y010706D01*
X041989Y010724D01*
X042001Y010739D01*
X042016Y010751D01*
X042034Y010760D01*
X042052Y010766D01*
X042072Y010768D01*
X042092Y010766D01*
X042110Y010760D01*
X042128Y010751D01*
X042143Y010739D01*
X042155Y010724D01*
X042164Y010706D01*
X042170Y010688D01*
X042172Y010668D01*
X042170Y010648D01*
X042164Y010630D01*
X042155Y010612D01*
X042143Y010597D01*
X042128Y010585D01*
X042110Y010576D01*
X042092Y010570D01*
X042072Y010568D01*
X042052Y010570D01*
X042034Y010576D01*
X042016Y010585D01*
X042001Y010597D01*
X041989Y010612D01*
X041980Y010630D01*
X041974Y010648D01*
X041972Y010668D01*
X041372Y010668D02*
X041374Y010720D01*
X041380Y010772D01*
X041390Y010824D01*
X041403Y010874D01*
X041420Y010924D01*
X041441Y010972D01*
X041466Y011018D01*
X041494Y011062D01*
X041525Y011104D01*
X041559Y011144D01*
X041596Y011181D01*
X041636Y011215D01*
X041678Y011246D01*
X041722Y011274D01*
X041768Y011299D01*
X041816Y011320D01*
X041866Y011337D01*
X041916Y011350D01*
X041968Y011360D01*
X042020Y011366D01*
X042072Y011368D01*
X042124Y011366D01*
X042176Y011360D01*
X042228Y011350D01*
X042278Y011337D01*
X042328Y011320D01*
X042376Y011299D01*
X042422Y011274D01*
X042466Y011246D01*
X042508Y011215D01*
X042548Y011181D01*
X042585Y011144D01*
X042619Y011104D01*
X042650Y011062D01*
X042678Y011018D01*
X042703Y010972D01*
X042724Y010924D01*
X042741Y010874D01*
X042754Y010824D01*
X042764Y010772D01*
X042770Y010720D01*
X042772Y010668D01*
X042770Y010616D01*
X042764Y010564D01*
X042754Y010512D01*
X042741Y010462D01*
X042724Y010412D01*
X042703Y010364D01*
X042678Y010318D01*
X042650Y010274D01*
X042619Y010232D01*
X042585Y010192D01*
X042548Y010155D01*
X042508Y010121D01*
X042466Y010090D01*
X042422Y010062D01*
X042376Y010037D01*
X042328Y010016D01*
X042278Y009999D01*
X042228Y009986D01*
X042176Y009976D01*
X042124Y009970D01*
X042072Y009968D01*
X042020Y009970D01*
X041968Y009976D01*
X041916Y009986D01*
X041866Y009999D01*
X041816Y010016D01*
X041768Y010037D01*
X041722Y010062D01*
X041678Y010090D01*
X041636Y010121D01*
X041596Y010155D01*
X041559Y010192D01*
X041525Y010232D01*
X041494Y010274D01*
X041466Y010318D01*
X041441Y010364D01*
X041420Y010412D01*
X041403Y010462D01*
X041390Y010512D01*
X041380Y010564D01*
X041374Y010616D01*
X041372Y010668D01*
X040872Y010968D02*
X040772Y010968D01*
X040772Y010368D01*
X040872Y010368D01*
X040872Y010268D01*
X040872Y010968D02*
X040872Y011068D01*
X038844Y010968D02*
X038844Y010368D01*
X038744Y010368D01*
X038744Y010268D01*
X037444Y010668D02*
X037446Y010688D01*
X037452Y010706D01*
X037461Y010724D01*
X037473Y010739D01*
X037488Y010751D01*
X037506Y010760D01*
X037524Y010766D01*
X037544Y010768D01*
X037564Y010766D01*
X037582Y010760D01*
X037600Y010751D01*
X037615Y010739D01*
X037627Y010724D01*
X037636Y010706D01*
X037642Y010688D01*
X037644Y010668D01*
X037642Y010648D01*
X037636Y010630D01*
X037627Y010612D01*
X037615Y010597D01*
X037600Y010585D01*
X037582Y010576D01*
X037564Y010570D01*
X037544Y010568D01*
X037524Y010570D01*
X037506Y010576D01*
X037488Y010585D01*
X037473Y010597D01*
X037461Y010612D01*
X037452Y010630D01*
X037446Y010648D01*
X037444Y010668D01*
X036844Y010668D02*
X036846Y010720D01*
X036852Y010772D01*
X036862Y010824D01*
X036875Y010874D01*
X036892Y010924D01*
X036913Y010972D01*
X036938Y011018D01*
X036966Y011062D01*
X036997Y011104D01*
X037031Y011144D01*
X037068Y011181D01*
X037108Y011215D01*
X037150Y011246D01*
X037194Y011274D01*
X037240Y011299D01*
X037288Y011320D01*
X037338Y011337D01*
X037388Y011350D01*
X037440Y011360D01*
X037492Y011366D01*
X037544Y011368D01*
X037596Y011366D01*
X037648Y011360D01*
X037700Y011350D01*
X037750Y011337D01*
X037800Y011320D01*
X037848Y011299D01*
X037894Y011274D01*
X037938Y011246D01*
X037980Y011215D01*
X038020Y011181D01*
X038057Y011144D01*
X038091Y011104D01*
X038122Y011062D01*
X038150Y011018D01*
X038175Y010972D01*
X038196Y010924D01*
X038213Y010874D01*
X038226Y010824D01*
X038236Y010772D01*
X038242Y010720D01*
X038244Y010668D01*
X038242Y010616D01*
X038236Y010564D01*
X038226Y010512D01*
X038213Y010462D01*
X038196Y010412D01*
X038175Y010364D01*
X038150Y010318D01*
X038122Y010274D01*
X038091Y010232D01*
X038057Y010192D01*
X038020Y010155D01*
X037980Y010121D01*
X037938Y010090D01*
X037894Y010062D01*
X037848Y010037D01*
X037800Y010016D01*
X037750Y009999D01*
X037700Y009986D01*
X037648Y009976D01*
X037596Y009970D01*
X037544Y009968D01*
X037492Y009970D01*
X037440Y009976D01*
X037388Y009986D01*
X037338Y009999D01*
X037288Y010016D01*
X037240Y010037D01*
X037194Y010062D01*
X037150Y010090D01*
X037108Y010121D01*
X037068Y010155D01*
X037031Y010192D01*
X036997Y010232D01*
X036966Y010274D01*
X036938Y010318D01*
X036913Y010364D01*
X036892Y010412D01*
X036875Y010462D01*
X036862Y010512D01*
X036852Y010564D01*
X036846Y010616D01*
X036844Y010668D01*
X036344Y010968D02*
X036344Y011068D01*
X036344Y010968D02*
X036244Y010968D01*
X036244Y010368D01*
X036344Y010368D01*
X036344Y010268D01*
X034317Y010368D02*
X034317Y010968D01*
X034217Y010968D01*
X034217Y011068D01*
X032917Y010668D02*
X032919Y010688D01*
X032925Y010706D01*
X032934Y010724D01*
X032946Y010739D01*
X032961Y010751D01*
X032979Y010760D01*
X032997Y010766D01*
X033017Y010768D01*
X033037Y010766D01*
X033055Y010760D01*
X033073Y010751D01*
X033088Y010739D01*
X033100Y010724D01*
X033109Y010706D01*
X033115Y010688D01*
X033117Y010668D01*
X033115Y010648D01*
X033109Y010630D01*
X033100Y010612D01*
X033088Y010597D01*
X033073Y010585D01*
X033055Y010576D01*
X033037Y010570D01*
X033017Y010568D01*
X032997Y010570D01*
X032979Y010576D01*
X032961Y010585D01*
X032946Y010597D01*
X032934Y010612D01*
X032925Y010630D01*
X032919Y010648D01*
X032917Y010668D01*
X032317Y010668D02*
X032319Y010720D01*
X032325Y010772D01*
X032335Y010824D01*
X032348Y010874D01*
X032365Y010924D01*
X032386Y010972D01*
X032411Y011018D01*
X032439Y011062D01*
X032470Y011104D01*
X032504Y011144D01*
X032541Y011181D01*
X032581Y011215D01*
X032623Y011246D01*
X032667Y011274D01*
X032713Y011299D01*
X032761Y011320D01*
X032811Y011337D01*
X032861Y011350D01*
X032913Y011360D01*
X032965Y011366D01*
X033017Y011368D01*
X033069Y011366D01*
X033121Y011360D01*
X033173Y011350D01*
X033223Y011337D01*
X033273Y011320D01*
X033321Y011299D01*
X033367Y011274D01*
X033411Y011246D01*
X033453Y011215D01*
X033493Y011181D01*
X033530Y011144D01*
X033564Y011104D01*
X033595Y011062D01*
X033623Y011018D01*
X033648Y010972D01*
X033669Y010924D01*
X033686Y010874D01*
X033699Y010824D01*
X033709Y010772D01*
X033715Y010720D01*
X033717Y010668D01*
X033715Y010616D01*
X033709Y010564D01*
X033699Y010512D01*
X033686Y010462D01*
X033669Y010412D01*
X033648Y010364D01*
X033623Y010318D01*
X033595Y010274D01*
X033564Y010232D01*
X033530Y010192D01*
X033493Y010155D01*
X033453Y010121D01*
X033411Y010090D01*
X033367Y010062D01*
X033321Y010037D01*
X033273Y010016D01*
X033223Y009999D01*
X033173Y009986D01*
X033121Y009976D01*
X033069Y009970D01*
X033017Y009968D01*
X032965Y009970D01*
X032913Y009976D01*
X032861Y009986D01*
X032811Y009999D01*
X032761Y010016D01*
X032713Y010037D01*
X032667Y010062D01*
X032623Y010090D01*
X032581Y010121D01*
X032541Y010155D01*
X032504Y010192D01*
X032470Y010232D01*
X032439Y010274D01*
X032411Y010318D01*
X032386Y010364D01*
X032365Y010412D01*
X032348Y010462D01*
X032335Y010512D01*
X032325Y010564D01*
X032319Y010616D01*
X032317Y010668D01*
X031817Y010968D02*
X031817Y011068D01*
X031817Y010968D02*
X031717Y010968D01*
X031717Y010368D01*
X031817Y010368D01*
X031817Y010268D01*
X029789Y010368D02*
X029789Y010968D01*
X029689Y010968D01*
X029689Y011068D01*
X028389Y010668D02*
X028391Y010688D01*
X028397Y010706D01*
X028406Y010724D01*
X028418Y010739D01*
X028433Y010751D01*
X028451Y010760D01*
X028469Y010766D01*
X028489Y010768D01*
X028509Y010766D01*
X028527Y010760D01*
X028545Y010751D01*
X028560Y010739D01*
X028572Y010724D01*
X028581Y010706D01*
X028587Y010688D01*
X028589Y010668D01*
X028587Y010648D01*
X028581Y010630D01*
X028572Y010612D01*
X028560Y010597D01*
X028545Y010585D01*
X028527Y010576D01*
X028509Y010570D01*
X028489Y010568D01*
X028469Y010570D01*
X028451Y010576D01*
X028433Y010585D01*
X028418Y010597D01*
X028406Y010612D01*
X028397Y010630D01*
X028391Y010648D01*
X028389Y010668D01*
X027789Y010668D02*
X027791Y010720D01*
X027797Y010772D01*
X027807Y010824D01*
X027820Y010874D01*
X027837Y010924D01*
X027858Y010972D01*
X027883Y011018D01*
X027911Y011062D01*
X027942Y011104D01*
X027976Y011144D01*
X028013Y011181D01*
X028053Y011215D01*
X028095Y011246D01*
X028139Y011274D01*
X028185Y011299D01*
X028233Y011320D01*
X028283Y011337D01*
X028333Y011350D01*
X028385Y011360D01*
X028437Y011366D01*
X028489Y011368D01*
X028541Y011366D01*
X028593Y011360D01*
X028645Y011350D01*
X028695Y011337D01*
X028745Y011320D01*
X028793Y011299D01*
X028839Y011274D01*
X028883Y011246D01*
X028925Y011215D01*
X028965Y011181D01*
X029002Y011144D01*
X029036Y011104D01*
X029067Y011062D01*
X029095Y011018D01*
X029120Y010972D01*
X029141Y010924D01*
X029158Y010874D01*
X029171Y010824D01*
X029181Y010772D01*
X029187Y010720D01*
X029189Y010668D01*
X029187Y010616D01*
X029181Y010564D01*
X029171Y010512D01*
X029158Y010462D01*
X029141Y010412D01*
X029120Y010364D01*
X029095Y010318D01*
X029067Y010274D01*
X029036Y010232D01*
X029002Y010192D01*
X028965Y010155D01*
X028925Y010121D01*
X028883Y010090D01*
X028839Y010062D01*
X028793Y010037D01*
X028745Y010016D01*
X028695Y009999D01*
X028645Y009986D01*
X028593Y009976D01*
X028541Y009970D01*
X028489Y009968D01*
X028437Y009970D01*
X028385Y009976D01*
X028333Y009986D01*
X028283Y009999D01*
X028233Y010016D01*
X028185Y010037D01*
X028139Y010062D01*
X028095Y010090D01*
X028053Y010121D01*
X028013Y010155D01*
X027976Y010192D01*
X027942Y010232D01*
X027911Y010274D01*
X027883Y010318D01*
X027858Y010364D01*
X027837Y010412D01*
X027820Y010462D01*
X027807Y010512D01*
X027797Y010564D01*
X027791Y010616D01*
X027789Y010668D01*
X027289Y010968D02*
X027289Y011068D01*
X027289Y010968D02*
X027189Y010968D01*
X027189Y010368D01*
X027289Y010368D01*
X027289Y010268D01*
X025262Y010368D02*
X025262Y010968D01*
X025162Y010968D01*
X025162Y011068D01*
X023862Y010668D02*
X023864Y010688D01*
X023870Y010706D01*
X023879Y010724D01*
X023891Y010739D01*
X023906Y010751D01*
X023924Y010760D01*
X023942Y010766D01*
X023962Y010768D01*
X023982Y010766D01*
X024000Y010760D01*
X024018Y010751D01*
X024033Y010739D01*
X024045Y010724D01*
X024054Y010706D01*
X024060Y010688D01*
X024062Y010668D01*
X024060Y010648D01*
X024054Y010630D01*
X024045Y010612D01*
X024033Y010597D01*
X024018Y010585D01*
X024000Y010576D01*
X023982Y010570D01*
X023962Y010568D01*
X023942Y010570D01*
X023924Y010576D01*
X023906Y010585D01*
X023891Y010597D01*
X023879Y010612D01*
X023870Y010630D01*
X023864Y010648D01*
X023862Y010668D01*
X023262Y010668D02*
X023264Y010720D01*
X023270Y010772D01*
X023280Y010824D01*
X023293Y010874D01*
X023310Y010924D01*
X023331Y010972D01*
X023356Y011018D01*
X023384Y011062D01*
X023415Y011104D01*
X023449Y011144D01*
X023486Y011181D01*
X023526Y011215D01*
X023568Y011246D01*
X023612Y011274D01*
X023658Y011299D01*
X023706Y011320D01*
X023756Y011337D01*
X023806Y011350D01*
X023858Y011360D01*
X023910Y011366D01*
X023962Y011368D01*
X024014Y011366D01*
X024066Y011360D01*
X024118Y011350D01*
X024168Y011337D01*
X024218Y011320D01*
X024266Y011299D01*
X024312Y011274D01*
X024356Y011246D01*
X024398Y011215D01*
X024438Y011181D01*
X024475Y011144D01*
X024509Y011104D01*
X024540Y011062D01*
X024568Y011018D01*
X024593Y010972D01*
X024614Y010924D01*
X024631Y010874D01*
X024644Y010824D01*
X024654Y010772D01*
X024660Y010720D01*
X024662Y010668D01*
X024660Y010616D01*
X024654Y010564D01*
X024644Y010512D01*
X024631Y010462D01*
X024614Y010412D01*
X024593Y010364D01*
X024568Y010318D01*
X024540Y010274D01*
X024509Y010232D01*
X024475Y010192D01*
X024438Y010155D01*
X024398Y010121D01*
X024356Y010090D01*
X024312Y010062D01*
X024266Y010037D01*
X024218Y010016D01*
X024168Y009999D01*
X024118Y009986D01*
X024066Y009976D01*
X024014Y009970D01*
X023962Y009968D01*
X023910Y009970D01*
X023858Y009976D01*
X023806Y009986D01*
X023756Y009999D01*
X023706Y010016D01*
X023658Y010037D01*
X023612Y010062D01*
X023568Y010090D01*
X023526Y010121D01*
X023486Y010155D01*
X023449Y010192D01*
X023415Y010232D01*
X023384Y010274D01*
X023356Y010318D01*
X023331Y010364D01*
X023310Y010412D01*
X023293Y010462D01*
X023280Y010512D01*
X023270Y010564D01*
X023264Y010616D01*
X023262Y010668D01*
X022762Y010968D02*
X022662Y010968D01*
X022662Y010368D01*
X022762Y010368D01*
X022762Y010268D01*
X022762Y010968D02*
X022762Y011068D01*
X020734Y010968D02*
X020734Y010368D01*
X020634Y010368D01*
X020634Y010268D01*
X019334Y010668D02*
X019336Y010688D01*
X019342Y010706D01*
X019351Y010724D01*
X019363Y010739D01*
X019378Y010751D01*
X019396Y010760D01*
X019414Y010766D01*
X019434Y010768D01*
X019454Y010766D01*
X019472Y010760D01*
X019490Y010751D01*
X019505Y010739D01*
X019517Y010724D01*
X019526Y010706D01*
X019532Y010688D01*
X019534Y010668D01*
X019532Y010648D01*
X019526Y010630D01*
X019517Y010612D01*
X019505Y010597D01*
X019490Y010585D01*
X019472Y010576D01*
X019454Y010570D01*
X019434Y010568D01*
X019414Y010570D01*
X019396Y010576D01*
X019378Y010585D01*
X019363Y010597D01*
X019351Y010612D01*
X019342Y010630D01*
X019336Y010648D01*
X019334Y010668D01*
X018734Y010668D02*
X018736Y010720D01*
X018742Y010772D01*
X018752Y010824D01*
X018765Y010874D01*
X018782Y010924D01*
X018803Y010972D01*
X018828Y011018D01*
X018856Y011062D01*
X018887Y011104D01*
X018921Y011144D01*
X018958Y011181D01*
X018998Y011215D01*
X019040Y011246D01*
X019084Y011274D01*
X019130Y011299D01*
X019178Y011320D01*
X019228Y011337D01*
X019278Y011350D01*
X019330Y011360D01*
X019382Y011366D01*
X019434Y011368D01*
X019486Y011366D01*
X019538Y011360D01*
X019590Y011350D01*
X019640Y011337D01*
X019690Y011320D01*
X019738Y011299D01*
X019784Y011274D01*
X019828Y011246D01*
X019870Y011215D01*
X019910Y011181D01*
X019947Y011144D01*
X019981Y011104D01*
X020012Y011062D01*
X020040Y011018D01*
X020065Y010972D01*
X020086Y010924D01*
X020103Y010874D01*
X020116Y010824D01*
X020126Y010772D01*
X020132Y010720D01*
X020134Y010668D01*
X020132Y010616D01*
X020126Y010564D01*
X020116Y010512D01*
X020103Y010462D01*
X020086Y010412D01*
X020065Y010364D01*
X020040Y010318D01*
X020012Y010274D01*
X019981Y010232D01*
X019947Y010192D01*
X019910Y010155D01*
X019870Y010121D01*
X019828Y010090D01*
X019784Y010062D01*
X019738Y010037D01*
X019690Y010016D01*
X019640Y009999D01*
X019590Y009986D01*
X019538Y009976D01*
X019486Y009970D01*
X019434Y009968D01*
X019382Y009970D01*
X019330Y009976D01*
X019278Y009986D01*
X019228Y009999D01*
X019178Y010016D01*
X019130Y010037D01*
X019084Y010062D01*
X019040Y010090D01*
X018998Y010121D01*
X018958Y010155D01*
X018921Y010192D01*
X018887Y010232D01*
X018856Y010274D01*
X018828Y010318D01*
X018803Y010364D01*
X018782Y010412D01*
X018765Y010462D01*
X018752Y010512D01*
X018742Y010564D01*
X018736Y010616D01*
X018734Y010668D01*
X018234Y010968D02*
X018234Y011068D01*
X018234Y010968D02*
X018134Y010968D01*
X018134Y010368D01*
X018234Y010368D01*
X018234Y010268D01*
X020634Y010968D02*
X020634Y011068D01*
X020634Y010968D02*
X020734Y010968D01*
X020284Y011868D02*
X019934Y011868D01*
X018934Y011868D01*
X018584Y011868D01*
X023112Y011868D02*
X023462Y011868D01*
X024462Y011868D01*
X024812Y011868D01*
X027639Y011868D02*
X027989Y011868D01*
X028989Y011868D01*
X029339Y011868D01*
X032167Y011868D02*
X032517Y011868D01*
X033517Y011868D01*
X033867Y011868D01*
X036694Y011868D02*
X037044Y011868D01*
X038044Y011868D01*
X038394Y011868D01*
X038744Y011068D02*
X038744Y010968D01*
X038844Y010968D01*
X041222Y011868D02*
X041572Y011868D01*
X042572Y011868D01*
X042922Y011868D01*
X045750Y011868D02*
X046100Y011868D01*
X047100Y011868D01*
X047450Y011868D01*
X050277Y011868D02*
X050627Y011868D01*
X051627Y011868D01*
X051977Y011868D01*
X054805Y011868D02*
X055155Y011868D01*
X056155Y011868D01*
X056505Y011868D01*
X059431Y011868D02*
X059781Y011868D01*
X060781Y011868D01*
X061131Y011868D01*
X061481Y010368D02*
X061481Y010268D01*
X061481Y010368D02*
X061581Y010368D01*
X061131Y009468D02*
X060731Y009468D01*
X059781Y009468D01*
X059431Y009468D01*
X056955Y010368D02*
X056855Y010368D01*
X056855Y010268D01*
X056505Y009468D02*
X056105Y009468D01*
X055155Y009468D01*
X054805Y009468D01*
X051977Y009468D02*
X051577Y009468D01*
X050627Y009468D01*
X050277Y009468D01*
X052327Y010268D02*
X052327Y010368D01*
X052427Y010368D01*
X047900Y010368D02*
X047800Y010368D01*
X047800Y010268D01*
X047450Y009468D02*
X047050Y009468D01*
X046100Y009468D01*
X045750Y009468D01*
X043372Y010368D02*
X043272Y010368D01*
X043272Y010268D01*
X042922Y009468D02*
X042522Y009468D01*
X041572Y009468D01*
X041222Y009468D01*
X038394Y009468D02*
X037994Y009468D01*
X037044Y009468D01*
X036694Y009468D01*
X033867Y009468D02*
X033467Y009468D01*
X032517Y009468D01*
X032167Y009468D01*
X029339Y009468D02*
X028939Y009468D01*
X027989Y009468D01*
X027639Y009468D01*
X029689Y010268D02*
X029689Y010368D01*
X029789Y010368D01*
X025262Y010368D02*
X025162Y010368D01*
X025162Y010268D01*
X024812Y009468D02*
X024412Y009468D01*
X023462Y009468D01*
X023112Y009468D01*
X020284Y009468D02*
X019884Y009468D01*
X018934Y009468D01*
X018584Y009468D01*
X008957Y012714D02*
X008357Y012714D01*
X008357Y012814D01*
X008257Y012814D01*
X008957Y012814D02*
X008957Y012714D01*
X008957Y012814D02*
X009057Y012814D01*
X009857Y013164D02*
X009857Y013514D01*
X009857Y014464D01*
X009857Y014864D01*
X009057Y015214D02*
X008957Y015214D01*
X008957Y015314D01*
X008357Y015314D01*
X008357Y015214D01*
X008257Y015214D01*
X007457Y014864D02*
X007457Y014514D01*
X007457Y013514D01*
X007457Y013164D01*
X006166Y013614D02*
X006166Y013714D01*
X006266Y013714D01*
X006266Y014314D01*
X006166Y014314D01*
X006166Y014414D01*
X004866Y014014D02*
X004868Y014034D01*
X004874Y014052D01*
X004883Y014070D01*
X004895Y014085D01*
X004910Y014097D01*
X004928Y014106D01*
X004946Y014112D01*
X004966Y014114D01*
X004986Y014112D01*
X005004Y014106D01*
X005022Y014097D01*
X005037Y014085D01*
X005049Y014070D01*
X005058Y014052D01*
X005064Y014034D01*
X005066Y014014D01*
X005064Y013994D01*
X005058Y013976D01*
X005049Y013958D01*
X005037Y013943D01*
X005022Y013931D01*
X005004Y013922D01*
X004986Y013916D01*
X004966Y013914D01*
X004946Y013916D01*
X004928Y013922D01*
X004910Y013931D01*
X004895Y013943D01*
X004883Y013958D01*
X004874Y013976D01*
X004868Y013994D01*
X004866Y014014D01*
X004266Y014014D02*
X004268Y014066D01*
X004274Y014118D01*
X004284Y014170D01*
X004297Y014220D01*
X004314Y014270D01*
X004335Y014318D01*
X004360Y014364D01*
X004388Y014408D01*
X004419Y014450D01*
X004453Y014490D01*
X004490Y014527D01*
X004530Y014561D01*
X004572Y014592D01*
X004616Y014620D01*
X004662Y014645D01*
X004710Y014666D01*
X004760Y014683D01*
X004810Y014696D01*
X004862Y014706D01*
X004914Y014712D01*
X004966Y014714D01*
X005018Y014712D01*
X005070Y014706D01*
X005122Y014696D01*
X005172Y014683D01*
X005222Y014666D01*
X005270Y014645D01*
X005316Y014620D01*
X005360Y014592D01*
X005402Y014561D01*
X005442Y014527D01*
X005479Y014490D01*
X005513Y014450D01*
X005544Y014408D01*
X005572Y014364D01*
X005597Y014318D01*
X005618Y014270D01*
X005635Y014220D01*
X005648Y014170D01*
X005658Y014118D01*
X005664Y014066D01*
X005666Y014014D01*
X005664Y013962D01*
X005658Y013910D01*
X005648Y013858D01*
X005635Y013808D01*
X005618Y013758D01*
X005597Y013710D01*
X005572Y013664D01*
X005544Y013620D01*
X005513Y013578D01*
X005479Y013538D01*
X005442Y013501D01*
X005402Y013467D01*
X005360Y013436D01*
X005316Y013408D01*
X005270Y013383D01*
X005222Y013362D01*
X005172Y013345D01*
X005122Y013332D01*
X005070Y013322D01*
X005018Y013316D01*
X004966Y013314D01*
X004914Y013316D01*
X004862Y013322D01*
X004810Y013332D01*
X004760Y013345D01*
X004710Y013362D01*
X004662Y013383D01*
X004616Y013408D01*
X004572Y013436D01*
X004530Y013467D01*
X004490Y013501D01*
X004453Y013538D01*
X004419Y013578D01*
X004388Y013620D01*
X004360Y013664D01*
X004335Y013710D01*
X004314Y013758D01*
X004297Y013808D01*
X004284Y013858D01*
X004274Y013910D01*
X004268Y013962D01*
X004266Y014014D01*
X003766Y013714D02*
X003766Y013614D01*
X003766Y013714D02*
X003666Y013714D01*
X003666Y014314D01*
X003766Y014314D01*
X003766Y014414D01*
X004116Y015214D02*
X004466Y015214D01*
X005466Y015214D01*
X005816Y015214D01*
X008557Y014014D02*
X008559Y014034D01*
X008565Y014052D01*
X008574Y014070D01*
X008586Y014085D01*
X008601Y014097D01*
X008619Y014106D01*
X008637Y014112D01*
X008657Y014114D01*
X008677Y014112D01*
X008695Y014106D01*
X008713Y014097D01*
X008728Y014085D01*
X008740Y014070D01*
X008749Y014052D01*
X008755Y014034D01*
X008757Y014014D01*
X008755Y013994D01*
X008749Y013976D01*
X008740Y013958D01*
X008728Y013943D01*
X008713Y013931D01*
X008695Y013922D01*
X008677Y013916D01*
X008657Y013914D01*
X008637Y013916D01*
X008619Y013922D01*
X008601Y013931D01*
X008586Y013943D01*
X008574Y013958D01*
X008565Y013976D01*
X008559Y013994D01*
X008557Y014014D01*
X007957Y014014D02*
X007959Y014066D01*
X007965Y014118D01*
X007975Y014170D01*
X007988Y014220D01*
X008005Y014270D01*
X008026Y014318D01*
X008051Y014364D01*
X008079Y014408D01*
X008110Y014450D01*
X008144Y014490D01*
X008181Y014527D01*
X008221Y014561D01*
X008263Y014592D01*
X008307Y014620D01*
X008353Y014645D01*
X008401Y014666D01*
X008451Y014683D01*
X008501Y014696D01*
X008553Y014706D01*
X008605Y014712D01*
X008657Y014714D01*
X008709Y014712D01*
X008761Y014706D01*
X008813Y014696D01*
X008863Y014683D01*
X008913Y014666D01*
X008961Y014645D01*
X009007Y014620D01*
X009051Y014592D01*
X009093Y014561D01*
X009133Y014527D01*
X009170Y014490D01*
X009204Y014450D01*
X009235Y014408D01*
X009263Y014364D01*
X009288Y014318D01*
X009309Y014270D01*
X009326Y014220D01*
X009339Y014170D01*
X009349Y014118D01*
X009355Y014066D01*
X009357Y014014D01*
X009355Y013962D01*
X009349Y013910D01*
X009339Y013858D01*
X009326Y013808D01*
X009309Y013758D01*
X009288Y013710D01*
X009263Y013664D01*
X009235Y013620D01*
X009204Y013578D01*
X009170Y013538D01*
X009133Y013501D01*
X009093Y013467D01*
X009051Y013436D01*
X009007Y013408D01*
X008961Y013383D01*
X008913Y013362D01*
X008863Y013345D01*
X008813Y013332D01*
X008761Y013322D01*
X008709Y013316D01*
X008657Y013314D01*
X008605Y013316D01*
X008553Y013322D01*
X008501Y013332D01*
X008451Y013345D01*
X008401Y013362D01*
X008353Y013383D01*
X008307Y013408D01*
X008263Y013436D01*
X008221Y013467D01*
X008181Y013501D01*
X008144Y013538D01*
X008110Y013578D01*
X008079Y013620D01*
X008051Y013664D01*
X008026Y013710D01*
X008005Y013758D01*
X007988Y013808D01*
X007975Y013858D01*
X007965Y013910D01*
X007959Y013962D01*
X007957Y014014D01*
X011048Y013714D02*
X011148Y013714D01*
X011148Y013614D01*
X011048Y013714D02*
X011048Y014314D01*
X011148Y014314D01*
X011148Y014414D01*
X012248Y014014D02*
X012250Y014034D01*
X012256Y014052D01*
X012265Y014070D01*
X012277Y014085D01*
X012292Y014097D01*
X012310Y014106D01*
X012328Y014112D01*
X012348Y014114D01*
X012368Y014112D01*
X012386Y014106D01*
X012404Y014097D01*
X012419Y014085D01*
X012431Y014070D01*
X012440Y014052D01*
X012446Y014034D01*
X012448Y014014D01*
X012446Y013994D01*
X012440Y013976D01*
X012431Y013958D01*
X012419Y013943D01*
X012404Y013931D01*
X012386Y013922D01*
X012368Y013916D01*
X012348Y013914D01*
X012328Y013916D01*
X012310Y013922D01*
X012292Y013931D01*
X012277Y013943D01*
X012265Y013958D01*
X012256Y013976D01*
X012250Y013994D01*
X012248Y014014D01*
X011648Y014014D02*
X011650Y014066D01*
X011656Y014118D01*
X011666Y014170D01*
X011679Y014220D01*
X011696Y014270D01*
X011717Y014318D01*
X011742Y014364D01*
X011770Y014408D01*
X011801Y014450D01*
X011835Y014490D01*
X011872Y014527D01*
X011912Y014561D01*
X011954Y014592D01*
X011998Y014620D01*
X012044Y014645D01*
X012092Y014666D01*
X012142Y014683D01*
X012192Y014696D01*
X012244Y014706D01*
X012296Y014712D01*
X012348Y014714D01*
X012400Y014712D01*
X012452Y014706D01*
X012504Y014696D01*
X012554Y014683D01*
X012604Y014666D01*
X012652Y014645D01*
X012698Y014620D01*
X012742Y014592D01*
X012784Y014561D01*
X012824Y014527D01*
X012861Y014490D01*
X012895Y014450D01*
X012926Y014408D01*
X012954Y014364D01*
X012979Y014318D01*
X013000Y014270D01*
X013017Y014220D01*
X013030Y014170D01*
X013040Y014118D01*
X013046Y014066D01*
X013048Y014014D01*
X013046Y013962D01*
X013040Y013910D01*
X013030Y013858D01*
X013017Y013808D01*
X013000Y013758D01*
X012979Y013710D01*
X012954Y013664D01*
X012926Y013620D01*
X012895Y013578D01*
X012861Y013538D01*
X012824Y013501D01*
X012784Y013467D01*
X012742Y013436D01*
X012698Y013408D01*
X012652Y013383D01*
X012604Y013362D01*
X012554Y013345D01*
X012504Y013332D01*
X012452Y013322D01*
X012400Y013316D01*
X012348Y013314D01*
X012296Y013316D01*
X012244Y013322D01*
X012192Y013332D01*
X012142Y013345D01*
X012092Y013362D01*
X012044Y013383D01*
X011998Y013408D01*
X011954Y013436D01*
X011912Y013467D01*
X011872Y013501D01*
X011835Y013538D01*
X011801Y013578D01*
X011770Y013620D01*
X011742Y013664D01*
X011717Y013710D01*
X011696Y013758D01*
X011679Y013808D01*
X011666Y013858D01*
X011656Y013910D01*
X011650Y013962D01*
X011648Y014014D01*
X013548Y013714D02*
X013548Y013614D01*
X013548Y013714D02*
X013648Y013714D01*
X013648Y014314D01*
X013548Y014314D01*
X013548Y014414D01*
X013198Y015214D02*
X012848Y015214D01*
X011848Y015214D01*
X011498Y015214D01*
X011257Y016751D02*
X010907Y016751D01*
X011257Y016751D02*
X012207Y016751D01*
X012607Y016751D01*
X012957Y017551D02*
X012957Y017651D01*
X013057Y017651D01*
X013057Y018251D01*
X012957Y018251D01*
X012957Y018351D01*
X011657Y017951D02*
X011659Y017971D01*
X011665Y017989D01*
X011674Y018007D01*
X011686Y018022D01*
X011701Y018034D01*
X011719Y018043D01*
X011737Y018049D01*
X011757Y018051D01*
X011777Y018049D01*
X011795Y018043D01*
X011813Y018034D01*
X011828Y018022D01*
X011840Y018007D01*
X011849Y017989D01*
X011855Y017971D01*
X011857Y017951D01*
X011855Y017931D01*
X011849Y017913D01*
X011840Y017895D01*
X011828Y017880D01*
X011813Y017868D01*
X011795Y017859D01*
X011777Y017853D01*
X011757Y017851D01*
X011737Y017853D01*
X011719Y017859D01*
X011701Y017868D01*
X011686Y017880D01*
X011674Y017895D01*
X011665Y017913D01*
X011659Y017931D01*
X011657Y017951D01*
X011057Y017951D02*
X011059Y018003D01*
X011065Y018055D01*
X011075Y018107D01*
X011088Y018157D01*
X011105Y018207D01*
X011126Y018255D01*
X011151Y018301D01*
X011179Y018345D01*
X011210Y018387D01*
X011244Y018427D01*
X011281Y018464D01*
X011321Y018498D01*
X011363Y018529D01*
X011407Y018557D01*
X011453Y018582D01*
X011501Y018603D01*
X011551Y018620D01*
X011601Y018633D01*
X011653Y018643D01*
X011705Y018649D01*
X011757Y018651D01*
X011809Y018649D01*
X011861Y018643D01*
X011913Y018633D01*
X011963Y018620D01*
X012013Y018603D01*
X012061Y018582D01*
X012107Y018557D01*
X012151Y018529D01*
X012193Y018498D01*
X012233Y018464D01*
X012270Y018427D01*
X012304Y018387D01*
X012335Y018345D01*
X012363Y018301D01*
X012388Y018255D01*
X012409Y018207D01*
X012426Y018157D01*
X012439Y018107D01*
X012449Y018055D01*
X012455Y018003D01*
X012457Y017951D01*
X012455Y017899D01*
X012449Y017847D01*
X012439Y017795D01*
X012426Y017745D01*
X012409Y017695D01*
X012388Y017647D01*
X012363Y017601D01*
X012335Y017557D01*
X012304Y017515D01*
X012270Y017475D01*
X012233Y017438D01*
X012193Y017404D01*
X012151Y017373D01*
X012107Y017345D01*
X012061Y017320D01*
X012013Y017299D01*
X011963Y017282D01*
X011913Y017269D01*
X011861Y017259D01*
X011809Y017253D01*
X011757Y017251D01*
X011705Y017253D01*
X011653Y017259D01*
X011601Y017269D01*
X011551Y017282D01*
X011501Y017299D01*
X011453Y017320D01*
X011407Y017345D01*
X011363Y017373D01*
X011321Y017404D01*
X011281Y017438D01*
X011244Y017475D01*
X011210Y017515D01*
X011179Y017557D01*
X011151Y017601D01*
X011126Y017647D01*
X011105Y017695D01*
X011088Y017745D01*
X011075Y017795D01*
X011065Y017847D01*
X011059Y017899D01*
X011057Y017951D01*
X010557Y017651D02*
X010557Y017551D01*
X010557Y017651D02*
X010457Y017651D01*
X010457Y018251D01*
X010557Y018251D01*
X010557Y018351D01*
X010907Y019151D02*
X011257Y019151D01*
X012257Y019151D01*
X012607Y019151D01*
X006856Y018251D02*
X006856Y017651D01*
X006756Y017651D01*
X006756Y017551D01*
X005456Y017951D02*
X005458Y017971D01*
X005464Y017989D01*
X005473Y018007D01*
X005485Y018022D01*
X005500Y018034D01*
X005518Y018043D01*
X005536Y018049D01*
X005556Y018051D01*
X005576Y018049D01*
X005594Y018043D01*
X005612Y018034D01*
X005627Y018022D01*
X005639Y018007D01*
X005648Y017989D01*
X005654Y017971D01*
X005656Y017951D01*
X005654Y017931D01*
X005648Y017913D01*
X005639Y017895D01*
X005627Y017880D01*
X005612Y017868D01*
X005594Y017859D01*
X005576Y017853D01*
X005556Y017851D01*
X005536Y017853D01*
X005518Y017859D01*
X005500Y017868D01*
X005485Y017880D01*
X005473Y017895D01*
X005464Y017913D01*
X005458Y017931D01*
X005456Y017951D01*
X004856Y017951D02*
X004858Y018003D01*
X004864Y018055D01*
X004874Y018107D01*
X004887Y018157D01*
X004904Y018207D01*
X004925Y018255D01*
X004950Y018301D01*
X004978Y018345D01*
X005009Y018387D01*
X005043Y018427D01*
X005080Y018464D01*
X005120Y018498D01*
X005162Y018529D01*
X005206Y018557D01*
X005252Y018582D01*
X005300Y018603D01*
X005350Y018620D01*
X005400Y018633D01*
X005452Y018643D01*
X005504Y018649D01*
X005556Y018651D01*
X005608Y018649D01*
X005660Y018643D01*
X005712Y018633D01*
X005762Y018620D01*
X005812Y018603D01*
X005860Y018582D01*
X005906Y018557D01*
X005950Y018529D01*
X005992Y018498D01*
X006032Y018464D01*
X006069Y018427D01*
X006103Y018387D01*
X006134Y018345D01*
X006162Y018301D01*
X006187Y018255D01*
X006208Y018207D01*
X006225Y018157D01*
X006238Y018107D01*
X006248Y018055D01*
X006254Y018003D01*
X006256Y017951D01*
X006254Y017899D01*
X006248Y017847D01*
X006238Y017795D01*
X006225Y017745D01*
X006208Y017695D01*
X006187Y017647D01*
X006162Y017601D01*
X006134Y017557D01*
X006103Y017515D01*
X006069Y017475D01*
X006032Y017438D01*
X005992Y017404D01*
X005950Y017373D01*
X005906Y017345D01*
X005860Y017320D01*
X005812Y017299D01*
X005762Y017282D01*
X005712Y017269D01*
X005660Y017259D01*
X005608Y017253D01*
X005556Y017251D01*
X005504Y017253D01*
X005452Y017259D01*
X005400Y017269D01*
X005350Y017282D01*
X005300Y017299D01*
X005252Y017320D01*
X005206Y017345D01*
X005162Y017373D01*
X005120Y017404D01*
X005080Y017438D01*
X005043Y017475D01*
X005009Y017515D01*
X004978Y017557D01*
X004950Y017601D01*
X004925Y017647D01*
X004904Y017695D01*
X004887Y017745D01*
X004874Y017795D01*
X004864Y017847D01*
X004858Y017899D01*
X004856Y017951D01*
X004356Y017651D02*
X004356Y017551D01*
X004356Y017651D02*
X004256Y017651D01*
X004256Y018251D01*
X004356Y018251D01*
X004356Y018351D01*
X004706Y019151D02*
X005056Y019151D01*
X006056Y019151D01*
X006406Y019151D01*
X006756Y018351D02*
X006756Y018251D01*
X006856Y018251D01*
X006406Y016751D02*
X006006Y016751D01*
X005056Y016751D01*
X004706Y016751D01*
X004466Y012814D02*
X005416Y012814D01*
X005816Y012814D01*
X004466Y012814D02*
X004116Y012814D01*
X011498Y012814D02*
X011848Y012814D01*
X012798Y012814D01*
X013198Y012814D01*
X034217Y010368D02*
X034217Y010268D01*
X034217Y010368D02*
X034317Y010368D01*
X038415Y014690D02*
X038415Y016488D01*
X042186Y016488D01*
X042186Y014690D01*
X038415Y014690D01*
X038713Y015109D02*
X038715Y015135D01*
X038721Y015161D01*
X038730Y015185D01*
X038743Y015208D01*
X038759Y015229D01*
X038778Y015247D01*
X038799Y015263D01*
X038823Y015275D01*
X038847Y015283D01*
X038873Y015288D01*
X038900Y015289D01*
X038926Y015286D01*
X038951Y015279D01*
X038975Y015269D01*
X038998Y015255D01*
X039018Y015239D01*
X039035Y015219D01*
X039050Y015197D01*
X039061Y015173D01*
X039069Y015148D01*
X039073Y015122D01*
X039073Y015096D01*
X039069Y015070D01*
X039061Y015045D01*
X039050Y015021D01*
X039035Y014999D01*
X039018Y014979D01*
X038998Y014963D01*
X038975Y014949D01*
X038951Y014939D01*
X038926Y014932D01*
X038900Y014929D01*
X038873Y014930D01*
X038847Y014935D01*
X038823Y014943D01*
X038799Y014955D01*
X038778Y014971D01*
X038759Y014989D01*
X038743Y015010D01*
X038730Y015033D01*
X038721Y015057D01*
X038715Y015083D01*
X038713Y015109D01*
X065969Y016076D02*
X066069Y016076D01*
X066069Y015976D01*
X065969Y016076D02*
X065969Y016676D01*
X066069Y016676D01*
X066069Y016776D01*
X067169Y016376D02*
X067171Y016396D01*
X067177Y016414D01*
X067186Y016432D01*
X067198Y016447D01*
X067213Y016459D01*
X067231Y016468D01*
X067249Y016474D01*
X067269Y016476D01*
X067289Y016474D01*
X067307Y016468D01*
X067325Y016459D01*
X067340Y016447D01*
X067352Y016432D01*
X067361Y016414D01*
X067367Y016396D01*
X067369Y016376D01*
X067367Y016356D01*
X067361Y016338D01*
X067352Y016320D01*
X067340Y016305D01*
X067325Y016293D01*
X067307Y016284D01*
X067289Y016278D01*
X067269Y016276D01*
X067249Y016278D01*
X067231Y016284D01*
X067213Y016293D01*
X067198Y016305D01*
X067186Y016320D01*
X067177Y016338D01*
X067171Y016356D01*
X067169Y016376D01*
X066569Y016376D02*
X066571Y016428D01*
X066577Y016480D01*
X066587Y016532D01*
X066600Y016582D01*
X066617Y016632D01*
X066638Y016680D01*
X066663Y016726D01*
X066691Y016770D01*
X066722Y016812D01*
X066756Y016852D01*
X066793Y016889D01*
X066833Y016923D01*
X066875Y016954D01*
X066919Y016982D01*
X066965Y017007D01*
X067013Y017028D01*
X067063Y017045D01*
X067113Y017058D01*
X067165Y017068D01*
X067217Y017074D01*
X067269Y017076D01*
X067321Y017074D01*
X067373Y017068D01*
X067425Y017058D01*
X067475Y017045D01*
X067525Y017028D01*
X067573Y017007D01*
X067619Y016982D01*
X067663Y016954D01*
X067705Y016923D01*
X067745Y016889D01*
X067782Y016852D01*
X067816Y016812D01*
X067847Y016770D01*
X067875Y016726D01*
X067900Y016680D01*
X067921Y016632D01*
X067938Y016582D01*
X067951Y016532D01*
X067961Y016480D01*
X067967Y016428D01*
X067969Y016376D01*
X067967Y016324D01*
X067961Y016272D01*
X067951Y016220D01*
X067938Y016170D01*
X067921Y016120D01*
X067900Y016072D01*
X067875Y016026D01*
X067847Y015982D01*
X067816Y015940D01*
X067782Y015900D01*
X067745Y015863D01*
X067705Y015829D01*
X067663Y015798D01*
X067619Y015770D01*
X067573Y015745D01*
X067525Y015724D01*
X067475Y015707D01*
X067425Y015694D01*
X067373Y015684D01*
X067321Y015678D01*
X067269Y015676D01*
X067217Y015678D01*
X067165Y015684D01*
X067113Y015694D01*
X067063Y015707D01*
X067013Y015724D01*
X066965Y015745D01*
X066919Y015770D01*
X066875Y015798D01*
X066833Y015829D01*
X066793Y015863D01*
X066756Y015900D01*
X066722Y015940D01*
X066691Y015982D01*
X066663Y016026D01*
X066638Y016072D01*
X066617Y016120D01*
X066600Y016170D01*
X066587Y016220D01*
X066577Y016272D01*
X066571Y016324D01*
X066569Y016376D01*
X068469Y016076D02*
X068469Y015976D01*
X068469Y016076D02*
X068569Y016076D01*
X068569Y016676D01*
X068469Y016676D01*
X068469Y016776D01*
X068119Y017576D02*
X067769Y017576D01*
X066769Y017576D01*
X066419Y017576D01*
X066419Y018326D02*
X066769Y018326D01*
X067719Y018326D01*
X068119Y018326D01*
X068469Y019126D02*
X068469Y019226D01*
X068569Y019226D01*
X068569Y019826D01*
X068469Y019826D01*
X068469Y019926D01*
X067169Y019526D02*
X067171Y019546D01*
X067177Y019564D01*
X067186Y019582D01*
X067198Y019597D01*
X067213Y019609D01*
X067231Y019618D01*
X067249Y019624D01*
X067269Y019626D01*
X067289Y019624D01*
X067307Y019618D01*
X067325Y019609D01*
X067340Y019597D01*
X067352Y019582D01*
X067361Y019564D01*
X067367Y019546D01*
X067369Y019526D01*
X067367Y019506D01*
X067361Y019488D01*
X067352Y019470D01*
X067340Y019455D01*
X067325Y019443D01*
X067307Y019434D01*
X067289Y019428D01*
X067269Y019426D01*
X067249Y019428D01*
X067231Y019434D01*
X067213Y019443D01*
X067198Y019455D01*
X067186Y019470D01*
X067177Y019488D01*
X067171Y019506D01*
X067169Y019526D01*
X066569Y019526D02*
X066571Y019578D01*
X066577Y019630D01*
X066587Y019682D01*
X066600Y019732D01*
X066617Y019782D01*
X066638Y019830D01*
X066663Y019876D01*
X066691Y019920D01*
X066722Y019962D01*
X066756Y020002D01*
X066793Y020039D01*
X066833Y020073D01*
X066875Y020104D01*
X066919Y020132D01*
X066965Y020157D01*
X067013Y020178D01*
X067063Y020195D01*
X067113Y020208D01*
X067165Y020218D01*
X067217Y020224D01*
X067269Y020226D01*
X067321Y020224D01*
X067373Y020218D01*
X067425Y020208D01*
X067475Y020195D01*
X067525Y020178D01*
X067573Y020157D01*
X067619Y020132D01*
X067663Y020104D01*
X067705Y020073D01*
X067745Y020039D01*
X067782Y020002D01*
X067816Y019962D01*
X067847Y019920D01*
X067875Y019876D01*
X067900Y019830D01*
X067921Y019782D01*
X067938Y019732D01*
X067951Y019682D01*
X067961Y019630D01*
X067967Y019578D01*
X067969Y019526D01*
X067967Y019474D01*
X067961Y019422D01*
X067951Y019370D01*
X067938Y019320D01*
X067921Y019270D01*
X067900Y019222D01*
X067875Y019176D01*
X067847Y019132D01*
X067816Y019090D01*
X067782Y019050D01*
X067745Y019013D01*
X067705Y018979D01*
X067663Y018948D01*
X067619Y018920D01*
X067573Y018895D01*
X067525Y018874D01*
X067475Y018857D01*
X067425Y018844D01*
X067373Y018834D01*
X067321Y018828D01*
X067269Y018826D01*
X067217Y018828D01*
X067165Y018834D01*
X067113Y018844D01*
X067063Y018857D01*
X067013Y018874D01*
X066965Y018895D01*
X066919Y018920D01*
X066875Y018948D01*
X066833Y018979D01*
X066793Y019013D01*
X066756Y019050D01*
X066722Y019090D01*
X066691Y019132D01*
X066663Y019176D01*
X066638Y019222D01*
X066617Y019270D01*
X066600Y019320D01*
X066587Y019370D01*
X066577Y019422D01*
X066571Y019474D01*
X066569Y019526D01*
X066069Y019826D02*
X066069Y019926D01*
X066069Y019826D02*
X065969Y019826D01*
X065969Y019226D01*
X066069Y019226D01*
X066069Y019126D01*
X066419Y020726D02*
X066769Y020726D01*
X067769Y020726D01*
X068119Y020726D01*
X071678Y019826D02*
X071678Y019226D01*
X071778Y019226D01*
X071778Y019126D01*
X072878Y019526D02*
X072880Y019546D01*
X072886Y019564D01*
X072895Y019582D01*
X072907Y019597D01*
X072922Y019609D01*
X072940Y019618D01*
X072958Y019624D01*
X072978Y019626D01*
X072998Y019624D01*
X073016Y019618D01*
X073034Y019609D01*
X073049Y019597D01*
X073061Y019582D01*
X073070Y019564D01*
X073076Y019546D01*
X073078Y019526D01*
X073076Y019506D01*
X073070Y019488D01*
X073061Y019470D01*
X073049Y019455D01*
X073034Y019443D01*
X073016Y019434D01*
X072998Y019428D01*
X072978Y019426D01*
X072958Y019428D01*
X072940Y019434D01*
X072922Y019443D01*
X072907Y019455D01*
X072895Y019470D01*
X072886Y019488D01*
X072880Y019506D01*
X072878Y019526D01*
X072278Y019526D02*
X072280Y019578D01*
X072286Y019630D01*
X072296Y019682D01*
X072309Y019732D01*
X072326Y019782D01*
X072347Y019830D01*
X072372Y019876D01*
X072400Y019920D01*
X072431Y019962D01*
X072465Y020002D01*
X072502Y020039D01*
X072542Y020073D01*
X072584Y020104D01*
X072628Y020132D01*
X072674Y020157D01*
X072722Y020178D01*
X072772Y020195D01*
X072822Y020208D01*
X072874Y020218D01*
X072926Y020224D01*
X072978Y020226D01*
X073030Y020224D01*
X073082Y020218D01*
X073134Y020208D01*
X073184Y020195D01*
X073234Y020178D01*
X073282Y020157D01*
X073328Y020132D01*
X073372Y020104D01*
X073414Y020073D01*
X073454Y020039D01*
X073491Y020002D01*
X073525Y019962D01*
X073556Y019920D01*
X073584Y019876D01*
X073609Y019830D01*
X073630Y019782D01*
X073647Y019732D01*
X073660Y019682D01*
X073670Y019630D01*
X073676Y019578D01*
X073678Y019526D01*
X073676Y019474D01*
X073670Y019422D01*
X073660Y019370D01*
X073647Y019320D01*
X073630Y019270D01*
X073609Y019222D01*
X073584Y019176D01*
X073556Y019132D01*
X073525Y019090D01*
X073491Y019050D01*
X073454Y019013D01*
X073414Y018979D01*
X073372Y018948D01*
X073328Y018920D01*
X073282Y018895D01*
X073234Y018874D01*
X073184Y018857D01*
X073134Y018844D01*
X073082Y018834D01*
X073030Y018828D01*
X072978Y018826D01*
X072926Y018828D01*
X072874Y018834D01*
X072822Y018844D01*
X072772Y018857D01*
X072722Y018874D01*
X072674Y018895D01*
X072628Y018920D01*
X072584Y018948D01*
X072542Y018979D01*
X072502Y019013D01*
X072465Y019050D01*
X072431Y019090D01*
X072400Y019132D01*
X072372Y019176D01*
X072347Y019222D01*
X072326Y019270D01*
X072309Y019320D01*
X072296Y019370D01*
X072286Y019422D01*
X072280Y019474D01*
X072278Y019526D01*
X071778Y019826D02*
X071778Y019926D01*
X071778Y019826D02*
X071678Y019826D01*
X074178Y019826D02*
X074178Y019926D01*
X074178Y019826D02*
X074278Y019826D01*
X074278Y019226D01*
X074178Y019226D01*
X074178Y019126D01*
X073828Y018326D02*
X073428Y018326D01*
X072478Y018326D01*
X072128Y018326D01*
X072128Y017576D02*
X072478Y017576D01*
X073478Y017576D01*
X073828Y017576D01*
X074178Y016776D02*
X074178Y016676D01*
X074278Y016676D01*
X074278Y016076D01*
X074178Y016076D01*
X074178Y015976D01*
X072878Y016376D02*
X072880Y016396D01*
X072886Y016414D01*
X072895Y016432D01*
X072907Y016447D01*
X072922Y016459D01*
X072940Y016468D01*
X072958Y016474D01*
X072978Y016476D01*
X072998Y016474D01*
X073016Y016468D01*
X073034Y016459D01*
X073049Y016447D01*
X073061Y016432D01*
X073070Y016414D01*
X073076Y016396D01*
X073078Y016376D01*
X073076Y016356D01*
X073070Y016338D01*
X073061Y016320D01*
X073049Y016305D01*
X073034Y016293D01*
X073016Y016284D01*
X072998Y016278D01*
X072978Y016276D01*
X072958Y016278D01*
X072940Y016284D01*
X072922Y016293D01*
X072907Y016305D01*
X072895Y016320D01*
X072886Y016338D01*
X072880Y016356D01*
X072878Y016376D01*
X072278Y016376D02*
X072280Y016428D01*
X072286Y016480D01*
X072296Y016532D01*
X072309Y016582D01*
X072326Y016632D01*
X072347Y016680D01*
X072372Y016726D01*
X072400Y016770D01*
X072431Y016812D01*
X072465Y016852D01*
X072502Y016889D01*
X072542Y016923D01*
X072584Y016954D01*
X072628Y016982D01*
X072674Y017007D01*
X072722Y017028D01*
X072772Y017045D01*
X072822Y017058D01*
X072874Y017068D01*
X072926Y017074D01*
X072978Y017076D01*
X073030Y017074D01*
X073082Y017068D01*
X073134Y017058D01*
X073184Y017045D01*
X073234Y017028D01*
X073282Y017007D01*
X073328Y016982D01*
X073372Y016954D01*
X073414Y016923D01*
X073454Y016889D01*
X073491Y016852D01*
X073525Y016812D01*
X073556Y016770D01*
X073584Y016726D01*
X073609Y016680D01*
X073630Y016632D01*
X073647Y016582D01*
X073660Y016532D01*
X073670Y016480D01*
X073676Y016428D01*
X073678Y016376D01*
X073676Y016324D01*
X073670Y016272D01*
X073660Y016220D01*
X073647Y016170D01*
X073630Y016120D01*
X073609Y016072D01*
X073584Y016026D01*
X073556Y015982D01*
X073525Y015940D01*
X073491Y015900D01*
X073454Y015863D01*
X073414Y015829D01*
X073372Y015798D01*
X073328Y015770D01*
X073282Y015745D01*
X073234Y015724D01*
X073184Y015707D01*
X073134Y015694D01*
X073082Y015684D01*
X073030Y015678D01*
X072978Y015676D01*
X072926Y015678D01*
X072874Y015684D01*
X072822Y015694D01*
X072772Y015707D01*
X072722Y015724D01*
X072674Y015745D01*
X072628Y015770D01*
X072584Y015798D01*
X072542Y015829D01*
X072502Y015863D01*
X072465Y015900D01*
X072431Y015940D01*
X072400Y015982D01*
X072372Y016026D01*
X072347Y016072D01*
X072326Y016120D01*
X072309Y016170D01*
X072296Y016220D01*
X072286Y016272D01*
X072280Y016324D01*
X072278Y016376D01*
X071778Y016076D02*
X071778Y015976D01*
X071778Y016076D02*
X071678Y016076D01*
X071678Y016676D01*
X071778Y016676D01*
X071778Y016776D01*
X072128Y015176D02*
X072478Y015176D01*
X073428Y015176D01*
X073828Y015176D01*
X073828Y014033D02*
X073478Y014033D01*
X072478Y014033D01*
X072128Y014033D01*
X071778Y013233D02*
X071778Y013133D01*
X071678Y013133D01*
X071678Y012533D01*
X071778Y012533D01*
X071778Y012433D01*
X072878Y012833D02*
X072880Y012853D01*
X072886Y012871D01*
X072895Y012889D01*
X072907Y012904D01*
X072922Y012916D01*
X072940Y012925D01*
X072958Y012931D01*
X072978Y012933D01*
X072998Y012931D01*
X073016Y012925D01*
X073034Y012916D01*
X073049Y012904D01*
X073061Y012889D01*
X073070Y012871D01*
X073076Y012853D01*
X073078Y012833D01*
X073076Y012813D01*
X073070Y012795D01*
X073061Y012777D01*
X073049Y012762D01*
X073034Y012750D01*
X073016Y012741D01*
X072998Y012735D01*
X072978Y012733D01*
X072958Y012735D01*
X072940Y012741D01*
X072922Y012750D01*
X072907Y012762D01*
X072895Y012777D01*
X072886Y012795D01*
X072880Y012813D01*
X072878Y012833D01*
X072278Y012833D02*
X072280Y012885D01*
X072286Y012937D01*
X072296Y012989D01*
X072309Y013039D01*
X072326Y013089D01*
X072347Y013137D01*
X072372Y013183D01*
X072400Y013227D01*
X072431Y013269D01*
X072465Y013309D01*
X072502Y013346D01*
X072542Y013380D01*
X072584Y013411D01*
X072628Y013439D01*
X072674Y013464D01*
X072722Y013485D01*
X072772Y013502D01*
X072822Y013515D01*
X072874Y013525D01*
X072926Y013531D01*
X072978Y013533D01*
X073030Y013531D01*
X073082Y013525D01*
X073134Y013515D01*
X073184Y013502D01*
X073234Y013485D01*
X073282Y013464D01*
X073328Y013439D01*
X073372Y013411D01*
X073414Y013380D01*
X073454Y013346D01*
X073491Y013309D01*
X073525Y013269D01*
X073556Y013227D01*
X073584Y013183D01*
X073609Y013137D01*
X073630Y013089D01*
X073647Y013039D01*
X073660Y012989D01*
X073670Y012937D01*
X073676Y012885D01*
X073678Y012833D01*
X073676Y012781D01*
X073670Y012729D01*
X073660Y012677D01*
X073647Y012627D01*
X073630Y012577D01*
X073609Y012529D01*
X073584Y012483D01*
X073556Y012439D01*
X073525Y012397D01*
X073491Y012357D01*
X073454Y012320D01*
X073414Y012286D01*
X073372Y012255D01*
X073328Y012227D01*
X073282Y012202D01*
X073234Y012181D01*
X073184Y012164D01*
X073134Y012151D01*
X073082Y012141D01*
X073030Y012135D01*
X072978Y012133D01*
X072926Y012135D01*
X072874Y012141D01*
X072822Y012151D01*
X072772Y012164D01*
X072722Y012181D01*
X072674Y012202D01*
X072628Y012227D01*
X072584Y012255D01*
X072542Y012286D01*
X072502Y012320D01*
X072465Y012357D01*
X072431Y012397D01*
X072400Y012439D01*
X072372Y012483D01*
X072347Y012529D01*
X072326Y012577D01*
X072309Y012627D01*
X072296Y012677D01*
X072286Y012729D01*
X072280Y012781D01*
X072278Y012833D01*
X074178Y012533D02*
X074178Y012433D01*
X074178Y012533D02*
X074278Y012533D01*
X074278Y013133D01*
X074178Y013133D01*
X074178Y013233D01*
X073828Y011633D02*
X073428Y011633D01*
X072478Y011633D01*
X072128Y011633D01*
X068569Y012533D02*
X068569Y013133D01*
X068469Y013133D01*
X068469Y013233D01*
X067169Y012833D02*
X067171Y012853D01*
X067177Y012871D01*
X067186Y012889D01*
X067198Y012904D01*
X067213Y012916D01*
X067231Y012925D01*
X067249Y012931D01*
X067269Y012933D01*
X067289Y012931D01*
X067307Y012925D01*
X067325Y012916D01*
X067340Y012904D01*
X067352Y012889D01*
X067361Y012871D01*
X067367Y012853D01*
X067369Y012833D01*
X067367Y012813D01*
X067361Y012795D01*
X067352Y012777D01*
X067340Y012762D01*
X067325Y012750D01*
X067307Y012741D01*
X067289Y012735D01*
X067269Y012733D01*
X067249Y012735D01*
X067231Y012741D01*
X067213Y012750D01*
X067198Y012762D01*
X067186Y012777D01*
X067177Y012795D01*
X067171Y012813D01*
X067169Y012833D01*
X066569Y012833D02*
X066571Y012885D01*
X066577Y012937D01*
X066587Y012989D01*
X066600Y013039D01*
X066617Y013089D01*
X066638Y013137D01*
X066663Y013183D01*
X066691Y013227D01*
X066722Y013269D01*
X066756Y013309D01*
X066793Y013346D01*
X066833Y013380D01*
X066875Y013411D01*
X066919Y013439D01*
X066965Y013464D01*
X067013Y013485D01*
X067063Y013502D01*
X067113Y013515D01*
X067165Y013525D01*
X067217Y013531D01*
X067269Y013533D01*
X067321Y013531D01*
X067373Y013525D01*
X067425Y013515D01*
X067475Y013502D01*
X067525Y013485D01*
X067573Y013464D01*
X067619Y013439D01*
X067663Y013411D01*
X067705Y013380D01*
X067745Y013346D01*
X067782Y013309D01*
X067816Y013269D01*
X067847Y013227D01*
X067875Y013183D01*
X067900Y013137D01*
X067921Y013089D01*
X067938Y013039D01*
X067951Y012989D01*
X067961Y012937D01*
X067967Y012885D01*
X067969Y012833D01*
X067967Y012781D01*
X067961Y012729D01*
X067951Y012677D01*
X067938Y012627D01*
X067921Y012577D01*
X067900Y012529D01*
X067875Y012483D01*
X067847Y012439D01*
X067816Y012397D01*
X067782Y012357D01*
X067745Y012320D01*
X067705Y012286D01*
X067663Y012255D01*
X067619Y012227D01*
X067573Y012202D01*
X067525Y012181D01*
X067475Y012164D01*
X067425Y012151D01*
X067373Y012141D01*
X067321Y012135D01*
X067269Y012133D01*
X067217Y012135D01*
X067165Y012141D01*
X067113Y012151D01*
X067063Y012164D01*
X067013Y012181D01*
X066965Y012202D01*
X066919Y012227D01*
X066875Y012255D01*
X066833Y012286D01*
X066793Y012320D01*
X066756Y012357D01*
X066722Y012397D01*
X066691Y012439D01*
X066663Y012483D01*
X066638Y012529D01*
X066617Y012577D01*
X066600Y012627D01*
X066587Y012677D01*
X066577Y012729D01*
X066571Y012781D01*
X066569Y012833D01*
X066069Y012533D02*
X066069Y012433D01*
X066069Y012533D02*
X065969Y012533D01*
X065969Y013133D01*
X066069Y013133D01*
X066069Y013233D01*
X066419Y014033D02*
X066769Y014033D01*
X067769Y014033D01*
X068119Y014033D01*
X068119Y015176D02*
X067719Y015176D01*
X066769Y015176D01*
X066419Y015176D01*
X068469Y012533D02*
X068469Y012433D01*
X068469Y012533D02*
X068569Y012533D01*
X068119Y011633D02*
X067719Y011633D01*
X066769Y011633D01*
X066419Y011633D01*
X072128Y020726D02*
X072478Y020726D01*
X073478Y020726D01*
X073828Y020726D01*
D12*
X073478Y020726D02*
X073478Y020626D01*
X072478Y020626D01*
X072478Y020726D01*
X067769Y020726D02*
X067769Y020626D01*
X066769Y020626D01*
X066769Y020726D01*
X066769Y018426D02*
X066769Y018326D01*
X066769Y018426D02*
X067719Y018426D01*
X067719Y018326D01*
X067769Y017576D02*
X067769Y017476D01*
X066769Y017476D01*
X066769Y017576D01*
X072478Y017576D02*
X072478Y017476D01*
X073478Y017476D01*
X073478Y017576D01*
X073428Y018326D02*
X073428Y018426D01*
X072478Y018426D01*
X072478Y018326D01*
X072478Y015276D02*
X072478Y015176D01*
X072478Y015276D02*
X073428Y015276D01*
X073428Y015176D01*
X073478Y014033D02*
X073478Y013933D01*
X072478Y013933D01*
X072478Y014033D01*
X067769Y014033D02*
X067769Y013933D01*
X066769Y013933D01*
X066769Y014033D01*
X066769Y015176D02*
X066769Y015276D01*
X067719Y015276D01*
X067719Y015176D01*
X060781Y011868D02*
X060781Y011768D01*
X059781Y011768D01*
X059781Y011868D01*
X056155Y011868D02*
X056155Y011768D01*
X055155Y011768D01*
X055155Y011868D01*
X051627Y011868D02*
X051627Y011768D01*
X050627Y011768D01*
X050627Y011868D01*
X047100Y011868D02*
X047100Y011768D01*
X046100Y011768D01*
X046100Y011868D01*
X042572Y011868D02*
X042572Y011768D01*
X041572Y011768D01*
X041572Y011868D01*
X038044Y011868D02*
X038044Y011768D01*
X037044Y011768D01*
X037044Y011868D01*
X033517Y011868D02*
X033517Y011768D01*
X032517Y011768D01*
X032517Y011868D01*
X028989Y011868D02*
X028989Y011768D01*
X027989Y011768D01*
X027989Y011868D01*
X024462Y011868D02*
X024462Y011768D01*
X023462Y011768D01*
X023462Y011868D01*
X019934Y011868D02*
X019934Y011768D01*
X018934Y011768D01*
X018934Y011868D01*
X012798Y012814D02*
X012798Y012914D01*
X011848Y012914D01*
X011848Y012814D01*
X009857Y013514D02*
X009757Y013514D01*
X009757Y014464D01*
X009857Y014464D01*
X011848Y015114D02*
X012848Y015114D01*
X012848Y015214D01*
X011848Y015214D02*
X011848Y015114D01*
X007557Y014514D02*
X007457Y014514D01*
X007557Y014514D02*
X007557Y013514D01*
X007457Y013514D01*
X005416Y012914D02*
X005416Y012814D01*
X005416Y012914D02*
X004466Y012914D01*
X004466Y012814D01*
X004466Y015114D02*
X005466Y015114D01*
X005466Y015214D01*
X004466Y015214D02*
X004466Y015114D01*
X005056Y016751D02*
X005056Y016851D01*
X006006Y016851D01*
X006006Y016751D01*
X011257Y016851D02*
X011257Y016751D01*
X011257Y016851D02*
X012207Y016851D01*
X012207Y016751D01*
X012257Y019051D02*
X011257Y019051D01*
X011257Y019151D01*
X012257Y019151D02*
X012257Y019051D01*
X006056Y019051D02*
X006056Y019151D01*
X006056Y019051D02*
X005056Y019051D01*
X005056Y019151D01*
X018934Y009568D02*
X018934Y009468D01*
X018934Y009568D02*
X019884Y009568D01*
X019884Y009468D01*
X023462Y009468D02*
X023462Y009568D01*
X024412Y009568D01*
X024412Y009468D01*
X027989Y009468D02*
X027989Y009568D01*
X028939Y009568D01*
X028939Y009468D01*
X032517Y009468D02*
X032517Y009568D01*
X033467Y009568D01*
X033467Y009468D01*
X037044Y009468D02*
X037044Y009568D01*
X037994Y009568D01*
X037994Y009468D01*
X041572Y009468D02*
X041572Y009568D01*
X042522Y009568D01*
X042522Y009468D01*
X046100Y009468D02*
X046100Y009568D01*
X047050Y009568D01*
X047050Y009468D01*
X050627Y009468D02*
X050627Y009568D01*
X051577Y009568D01*
X051577Y009468D01*
X055155Y009468D02*
X055155Y009568D01*
X056105Y009568D01*
X056105Y009468D01*
X059781Y009468D02*
X059781Y009568D01*
X060731Y009568D01*
X060731Y009468D01*
X066769Y011633D02*
X066769Y011733D01*
X067719Y011733D01*
X067719Y011633D01*
X072478Y011633D02*
X072478Y011733D01*
X073428Y011733D01*
X073428Y011633D01*
X042096Y014780D02*
X042096Y016398D01*
X038505Y016398D01*
X038505Y014780D01*
X042096Y014780D01*
D13*
X037259Y015402D02*
X037259Y015499D01*
X037211Y015547D01*
X037259Y015648D02*
X037259Y015842D01*
X037259Y015745D02*
X036969Y015745D01*
X037066Y015648D01*
X037017Y015547D02*
X036969Y015499D01*
X036969Y015402D01*
X037017Y015354D01*
X037211Y015354D01*
X037259Y015402D01*
X037259Y015943D02*
X037211Y015943D01*
X037017Y016136D01*
X036969Y016136D01*
X036969Y015943D01*
X042392Y016633D02*
X042489Y016633D01*
X042440Y016633D02*
X042440Y016923D01*
X042392Y016923D02*
X042489Y016923D01*
X042588Y016875D02*
X042637Y016923D01*
X042733Y016923D01*
X042782Y016875D01*
X042883Y016875D02*
X042931Y016923D01*
X043028Y016923D01*
X043076Y016875D01*
X043076Y016826D01*
X043028Y016778D01*
X043076Y016730D01*
X043076Y016681D01*
X043028Y016633D01*
X042931Y016633D01*
X042883Y016681D01*
X042782Y016681D02*
X042733Y016633D01*
X042637Y016633D01*
X042588Y016681D01*
X042588Y016875D01*
X042980Y016778D02*
X043028Y016778D01*
X050906Y016654D02*
X050906Y016751D01*
X050954Y016799D01*
X051003Y016799D01*
X051051Y016751D01*
X051099Y016799D01*
X051148Y016799D01*
X051196Y016751D01*
X051196Y016654D01*
X051148Y016605D01*
X051196Y016504D02*
X051196Y016311D01*
X051003Y016504D01*
X050954Y016504D01*
X050906Y016456D01*
X050906Y016359D01*
X050954Y016311D01*
X050954Y016210D02*
X050906Y016161D01*
X050906Y016065D01*
X050954Y016016D01*
X051148Y016016D01*
X051196Y016065D01*
X051196Y016161D01*
X051148Y016210D01*
X050954Y016605D02*
X050906Y016654D01*
X051051Y016702D02*
X051051Y016751D01*
X051015Y012300D02*
X051015Y012010D01*
X050918Y012107D01*
X050822Y012010D01*
X050822Y012300D01*
X050720Y012252D02*
X050672Y012300D01*
X050575Y012300D01*
X050527Y012252D01*
X050527Y012204D01*
X050575Y012155D01*
X050672Y012155D01*
X050720Y012107D01*
X050720Y012059D01*
X050672Y012010D01*
X050575Y012010D01*
X050527Y012059D01*
X051116Y012010D02*
X051310Y012010D01*
X051213Y012010D02*
X051213Y012300D01*
X051116Y012204D01*
X051411Y012252D02*
X051459Y012300D01*
X051556Y012300D01*
X051604Y012252D01*
X051604Y012204D01*
X051556Y012155D01*
X051604Y012107D01*
X051604Y012059D01*
X051556Y012010D01*
X051459Y012010D01*
X051411Y012059D01*
X051508Y012155D02*
X051556Y012155D01*
X055068Y012086D02*
X055116Y012037D01*
X055213Y012037D01*
X055262Y012086D01*
X055262Y012134D01*
X055213Y012183D01*
X055116Y012183D01*
X055068Y012231D01*
X055068Y012279D01*
X055116Y012328D01*
X055213Y012328D01*
X055262Y012279D01*
X055363Y012328D02*
X055363Y012037D01*
X055459Y012134D01*
X055556Y012037D01*
X055556Y012328D01*
X055657Y012231D02*
X055754Y012328D01*
X055754Y012037D01*
X055657Y012037D02*
X055851Y012037D01*
X055952Y012183D02*
X056146Y012183D01*
X056097Y012328D02*
X055952Y012183D01*
X056097Y012037D02*
X056097Y012328D01*
X059618Y012241D02*
X059618Y012193D01*
X059666Y012145D01*
X059763Y012145D01*
X059811Y012096D01*
X059811Y012048D01*
X059763Y012000D01*
X059666Y012000D01*
X059618Y012048D01*
X059618Y012241D02*
X059666Y012290D01*
X059763Y012290D01*
X059811Y012241D01*
X059913Y012290D02*
X059913Y012000D01*
X060009Y012096D01*
X060106Y012000D01*
X060106Y012290D01*
X060207Y012193D02*
X060304Y012290D01*
X060304Y012000D01*
X060207Y012000D02*
X060401Y012000D01*
X060502Y012048D02*
X060550Y012000D01*
X060647Y012000D01*
X060695Y012048D01*
X060695Y012145D01*
X060647Y012193D01*
X060599Y012193D01*
X060502Y012145D01*
X060502Y012290D01*
X060695Y012290D01*
X066705Y014233D02*
X066753Y014185D01*
X066850Y014185D01*
X066898Y014233D01*
X066898Y014282D01*
X066850Y014330D01*
X066753Y014330D01*
X066705Y014378D01*
X066705Y014427D01*
X066753Y014475D01*
X066850Y014475D01*
X066898Y014427D01*
X066999Y014475D02*
X066999Y014185D01*
X067096Y014282D01*
X067193Y014185D01*
X067193Y014475D01*
X067294Y014427D02*
X067342Y014475D01*
X067439Y014475D01*
X067487Y014427D01*
X067487Y014378D01*
X067294Y014185D01*
X067487Y014185D01*
X067589Y014233D02*
X067782Y014427D01*
X067782Y014233D01*
X067734Y014185D01*
X067637Y014185D01*
X067589Y014233D01*
X067589Y014427D01*
X067637Y014475D01*
X067734Y014475D01*
X067782Y014427D01*
X069601Y015052D02*
X069794Y015052D01*
X069895Y015052D02*
X070089Y015052D01*
X070190Y015052D02*
X070335Y015052D01*
X070383Y015100D01*
X070383Y015293D01*
X070335Y015342D01*
X070190Y015342D01*
X070190Y015052D01*
X069992Y015197D02*
X069895Y015197D01*
X069895Y015342D02*
X069895Y015052D01*
X069601Y015052D02*
X069601Y015342D01*
X069895Y015342D02*
X070089Y015342D01*
X070485Y015245D02*
X070581Y015342D01*
X070581Y015052D01*
X070485Y015052D02*
X070678Y015052D01*
X070779Y015100D02*
X070828Y015052D01*
X070924Y015052D01*
X070973Y015100D01*
X070973Y015148D01*
X070924Y015197D01*
X070828Y015197D01*
X070779Y015245D01*
X070779Y015293D01*
X070828Y015342D01*
X070924Y015342D01*
X070973Y015293D01*
X070973Y015245D01*
X070924Y015197D01*
X070828Y015197D02*
X070779Y015148D01*
X070779Y015100D01*
X072470Y014455D02*
X072470Y014407D01*
X072518Y014358D01*
X072615Y014358D01*
X072663Y014310D01*
X072663Y014262D01*
X072615Y014213D01*
X072518Y014213D01*
X072470Y014262D01*
X072470Y014455D02*
X072518Y014503D01*
X072615Y014503D01*
X072663Y014455D01*
X072764Y014503D02*
X072764Y014213D01*
X072861Y014310D01*
X072958Y014213D01*
X072958Y014503D01*
X073059Y014455D02*
X073107Y014503D01*
X073204Y014503D01*
X073253Y014455D01*
X073253Y014407D01*
X073059Y014213D01*
X073253Y014213D01*
X073354Y014213D02*
X073547Y014213D01*
X073450Y014213D02*
X073450Y014503D01*
X073354Y014407D01*
X071667Y011477D02*
X071570Y011477D01*
X071522Y011429D01*
X071421Y011429D02*
X071372Y011477D01*
X071275Y011477D01*
X071227Y011429D01*
X071126Y011429D02*
X071078Y011477D01*
X070981Y011477D01*
X070932Y011429D01*
X070932Y011236D01*
X070981Y011187D01*
X071078Y011187D01*
X071126Y011236D01*
X071227Y011187D02*
X071421Y011381D01*
X071421Y011429D01*
X071421Y011187D02*
X071227Y011187D01*
X071522Y011187D02*
X071715Y011381D01*
X071715Y011429D01*
X071667Y011477D01*
X071715Y011187D02*
X071522Y011187D01*
X073510Y010842D02*
X073510Y010551D01*
X073704Y010551D01*
X073805Y010551D02*
X073805Y010842D01*
X073999Y010842D01*
X074100Y010842D02*
X074245Y010842D01*
X074293Y010793D01*
X074293Y010600D01*
X074245Y010551D01*
X074100Y010551D01*
X074100Y010842D01*
X073902Y010696D02*
X073805Y010696D01*
X073805Y010551D02*
X073999Y010551D01*
X074394Y010551D02*
X074588Y010745D01*
X074588Y010793D01*
X074540Y010842D01*
X074443Y010842D01*
X074394Y010793D01*
X074394Y010551D02*
X074588Y010551D01*
X074689Y010600D02*
X074883Y010793D01*
X074883Y010600D01*
X074834Y010551D01*
X074737Y010551D01*
X074689Y010600D01*
X074689Y010793D01*
X074737Y010842D01*
X074834Y010842D01*
X074883Y010793D01*
X069256Y011152D02*
X069063Y011152D01*
X069160Y011152D02*
X069160Y011442D01*
X069063Y011345D01*
X068962Y011345D02*
X068962Y011394D01*
X068913Y011442D01*
X068817Y011442D01*
X068768Y011394D01*
X068667Y011394D02*
X068619Y011442D01*
X068522Y011442D01*
X068474Y011394D01*
X068474Y011200D01*
X068522Y011152D01*
X068619Y011152D01*
X068667Y011200D01*
X068768Y011152D02*
X068962Y011345D01*
X068962Y011152D02*
X068768Y011152D01*
X073415Y008659D02*
X073415Y008369D01*
X073609Y008369D01*
X073710Y008369D02*
X073903Y008369D01*
X074005Y008369D02*
X074150Y008369D01*
X074198Y008417D01*
X074198Y008611D01*
X074150Y008659D01*
X074005Y008659D01*
X074005Y008369D01*
X073807Y008514D02*
X073710Y008514D01*
X073710Y008659D02*
X073710Y008369D01*
X073710Y008659D02*
X073903Y008659D01*
X074299Y008562D02*
X074396Y008659D01*
X074396Y008369D01*
X074299Y008369D02*
X074493Y008369D01*
X074594Y008417D02*
X074642Y008369D01*
X074739Y008369D01*
X074787Y008417D01*
X074787Y008611D01*
X074739Y008659D01*
X074642Y008659D01*
X074594Y008611D01*
X074594Y008562D01*
X074642Y008514D01*
X074787Y008514D01*
X066665Y007075D02*
X066568Y007026D01*
X066471Y006930D01*
X066616Y006930D01*
X066665Y006881D01*
X066665Y006833D01*
X066616Y006785D01*
X066520Y006785D01*
X066471Y006833D01*
X066471Y006930D01*
X066370Y006785D02*
X066177Y006785D01*
X066273Y006785D02*
X066273Y007075D01*
X066177Y006978D01*
X066076Y007026D02*
X066027Y007075D01*
X065882Y007075D01*
X065882Y006785D01*
X066027Y006785D01*
X066076Y006833D01*
X066076Y007026D01*
X065781Y007075D02*
X065587Y007075D01*
X065587Y006785D01*
X065781Y006785D01*
X065684Y006930D02*
X065587Y006930D01*
X065486Y006785D02*
X065293Y006785D01*
X065293Y007075D01*
X062485Y006202D02*
X062485Y006105D01*
X062437Y006056D01*
X062485Y005955D02*
X062485Y005762D01*
X062485Y005859D02*
X062195Y005859D01*
X062292Y005762D01*
X062340Y005661D02*
X062389Y005612D01*
X062389Y005467D01*
X062485Y005467D02*
X062195Y005467D01*
X062195Y005612D01*
X062243Y005661D01*
X062340Y005661D01*
X062389Y005564D02*
X062485Y005661D01*
X062243Y006056D02*
X062195Y006105D01*
X062195Y006202D01*
X062243Y006250D01*
X062292Y006250D01*
X062340Y006202D01*
X062389Y006250D01*
X062437Y006250D01*
X062485Y006202D01*
X062340Y006202D02*
X062340Y006153D01*
X065266Y004696D02*
X065266Y004405D01*
X065459Y004405D01*
X065560Y004405D02*
X065754Y004405D01*
X065855Y004405D02*
X066000Y004405D01*
X066048Y004454D01*
X066048Y004647D01*
X066000Y004696D01*
X065855Y004696D01*
X065855Y004405D01*
X065657Y004550D02*
X065560Y004550D01*
X065560Y004405D02*
X065560Y004696D01*
X065754Y004696D01*
X066149Y004599D02*
X066246Y004696D01*
X066246Y004405D01*
X066149Y004405D02*
X066343Y004405D01*
X066444Y004454D02*
X066492Y004405D01*
X066589Y004405D01*
X066638Y004454D01*
X066638Y004550D01*
X066589Y004599D01*
X066541Y004599D01*
X066444Y004550D01*
X066444Y004696D01*
X066638Y004696D01*
X064590Y004526D02*
X064493Y004478D01*
X064396Y004381D01*
X064541Y004381D01*
X064590Y004333D01*
X064590Y004285D01*
X064541Y004236D01*
X064444Y004236D01*
X064396Y004285D01*
X064396Y004381D01*
X064295Y004236D02*
X064101Y004236D01*
X064198Y004236D02*
X064198Y004526D01*
X064101Y004430D01*
X064000Y004478D02*
X064000Y004381D01*
X063952Y004333D01*
X063807Y004333D01*
X063904Y004333D02*
X064000Y004236D01*
X063807Y004236D02*
X063807Y004526D01*
X063952Y004526D01*
X064000Y004478D01*
X062492Y004381D02*
X062299Y004381D01*
X062444Y004526D01*
X062444Y004236D01*
X062198Y004236D02*
X062004Y004236D01*
X062101Y004236D02*
X062101Y004526D01*
X062004Y004430D01*
X061903Y004478D02*
X061903Y004381D01*
X061855Y004333D01*
X061709Y004333D01*
X061709Y004236D02*
X061709Y004526D01*
X061855Y004526D01*
X061903Y004478D01*
X061806Y004333D02*
X061903Y004236D01*
X056089Y004578D02*
X055896Y004578D01*
X056041Y004723D01*
X056041Y004433D01*
X055795Y004433D02*
X055601Y004433D01*
X055698Y004433D02*
X055698Y004723D01*
X055601Y004626D01*
X055500Y004674D02*
X055500Y004481D01*
X055452Y004433D01*
X055306Y004433D01*
X055306Y004723D01*
X055452Y004723D01*
X055500Y004674D01*
X055205Y004723D02*
X055012Y004723D01*
X055012Y004433D01*
X055205Y004433D01*
X055109Y004578D02*
X055012Y004578D01*
X054911Y004433D02*
X054717Y004433D01*
X054717Y004723D01*
X052389Y003396D02*
X052389Y003299D01*
X052341Y003251D01*
X052196Y003251D01*
X052292Y003251D02*
X052389Y003154D01*
X052196Y003154D02*
X052196Y003444D01*
X052341Y003444D01*
X052389Y003396D01*
X052094Y003444D02*
X051901Y003444D01*
X051901Y003154D01*
X052094Y003154D01*
X051998Y003299D02*
X051901Y003299D01*
X051801Y003154D02*
X051705Y003154D01*
X051753Y003154D02*
X051753Y003444D01*
X051705Y003444D02*
X051801Y003444D01*
X051603Y003444D02*
X051410Y003444D01*
X051410Y003154D01*
X051310Y003154D02*
X051213Y003154D01*
X051262Y003154D02*
X051262Y003444D01*
X051310Y003444D02*
X051213Y003444D01*
X051112Y003396D02*
X051112Y003299D01*
X051064Y003251D01*
X050919Y003251D01*
X051016Y003251D02*
X051112Y003154D01*
X050919Y003154D02*
X050919Y003444D01*
X051064Y003444D01*
X051112Y003396D01*
X050818Y003347D02*
X050818Y003154D01*
X050818Y003299D02*
X050624Y003299D01*
X050624Y003347D02*
X050721Y003444D01*
X050818Y003347D01*
X050624Y003347D02*
X050624Y003154D01*
X050523Y003154D02*
X050330Y003154D01*
X050330Y003444D01*
X050228Y003396D02*
X050180Y003444D01*
X050083Y003444D01*
X050035Y003396D01*
X050035Y003202D01*
X050083Y003154D01*
X050180Y003154D01*
X050228Y003202D01*
X051410Y003299D02*
X051507Y003299D01*
X048032Y004364D02*
X047839Y004364D01*
X048032Y004558D01*
X048032Y004606D01*
X047984Y004655D01*
X047887Y004655D01*
X047839Y004606D01*
X047641Y004655D02*
X047544Y004558D01*
X047443Y004606D02*
X047394Y004655D01*
X047249Y004655D01*
X047249Y004364D01*
X047394Y004364D01*
X047443Y004413D01*
X047443Y004606D01*
X047641Y004655D02*
X047641Y004364D01*
X047737Y004364D02*
X047544Y004364D01*
X047148Y004364D02*
X046955Y004364D01*
X046955Y004655D01*
X047148Y004655D01*
X047051Y004510D02*
X046955Y004510D01*
X046853Y004364D02*
X046660Y004364D01*
X046660Y004655D01*
X046676Y005611D02*
X046869Y005611D01*
X046970Y005611D02*
X047164Y005611D01*
X047265Y005611D02*
X047410Y005611D01*
X047459Y005660D01*
X047459Y005853D01*
X047410Y005902D01*
X047265Y005902D01*
X047265Y005611D01*
X047067Y005757D02*
X046970Y005757D01*
X046970Y005902D02*
X046970Y005611D01*
X046970Y005902D02*
X047164Y005902D01*
X047560Y005805D02*
X047656Y005902D01*
X047656Y005611D01*
X047560Y005611D02*
X047753Y005611D01*
X047854Y005611D02*
X048048Y005611D01*
X047951Y005611D02*
X047951Y005902D01*
X047854Y005805D01*
X046676Y005902D02*
X046676Y005611D01*
X040117Y006819D02*
X040117Y007013D01*
X040069Y007061D01*
X039972Y007061D01*
X039924Y007013D01*
X039924Y006964D01*
X039972Y006916D01*
X040117Y006916D01*
X040117Y006819D02*
X040069Y006771D01*
X039972Y006771D01*
X039924Y006819D01*
X039823Y006819D02*
X039774Y006771D01*
X039677Y006771D01*
X039629Y006819D01*
X039823Y007013D01*
X039823Y006819D01*
X039823Y007013D02*
X039774Y007061D01*
X039677Y007061D01*
X039629Y007013D01*
X039629Y006819D01*
X039528Y006819D02*
X039528Y007013D01*
X039480Y007061D01*
X039334Y007061D01*
X039334Y006771D01*
X039480Y006771D01*
X039528Y006819D01*
X039233Y006771D02*
X039040Y006771D01*
X039040Y007061D01*
X039233Y007061D01*
X039137Y006916D02*
X039040Y006916D01*
X038939Y006771D02*
X038745Y006771D01*
X038745Y007061D01*
X032390Y007039D02*
X032197Y006846D01*
X032197Y006798D01*
X032095Y006846D02*
X032095Y007039D01*
X031902Y006846D01*
X031950Y006798D01*
X032047Y006798D01*
X032095Y006846D01*
X031902Y006846D02*
X031902Y007039D01*
X031950Y007088D01*
X032047Y007088D01*
X032095Y007039D01*
X032197Y007088D02*
X032390Y007088D01*
X032390Y007039D01*
X031801Y007039D02*
X031801Y006846D01*
X031752Y006798D01*
X031607Y006798D01*
X031607Y007088D01*
X031752Y007088D01*
X031801Y007039D01*
X031506Y007088D02*
X031313Y007088D01*
X031313Y006798D01*
X031506Y006798D01*
X031409Y006943D02*
X031313Y006943D01*
X031211Y006798D02*
X031018Y006798D01*
X031018Y007088D01*
X031507Y008386D02*
X031603Y008386D01*
X031652Y008434D01*
X031753Y008434D02*
X031801Y008386D01*
X031898Y008386D01*
X031946Y008434D01*
X031946Y008483D01*
X031898Y008531D01*
X031850Y008531D01*
X031898Y008531D02*
X031946Y008580D01*
X031946Y008628D01*
X031898Y008676D01*
X031801Y008676D01*
X031753Y008628D01*
X031652Y008628D02*
X031603Y008676D01*
X031507Y008676D01*
X031458Y008628D01*
X031458Y008434D01*
X031507Y008386D01*
X032047Y008386D02*
X032241Y008386D01*
X032144Y008386D02*
X032144Y008676D01*
X032047Y008580D01*
X025601Y008536D02*
X025552Y008487D01*
X025456Y008487D01*
X025407Y008536D01*
X025601Y008729D01*
X025601Y008536D01*
X025601Y008729D02*
X025552Y008778D01*
X025456Y008778D01*
X025407Y008729D01*
X025407Y008536D01*
X025306Y008536D02*
X025258Y008487D01*
X025161Y008487D01*
X025113Y008536D01*
X025011Y008536D02*
X024963Y008487D01*
X024866Y008487D01*
X024818Y008536D01*
X024818Y008729D01*
X024866Y008778D01*
X024963Y008778D01*
X025011Y008729D01*
X025113Y008729D02*
X025161Y008778D01*
X025258Y008778D01*
X025306Y008729D01*
X025306Y008681D01*
X025258Y008632D01*
X025306Y008584D01*
X025306Y008536D01*
X025258Y008632D02*
X025209Y008632D01*
X025137Y007710D02*
X025040Y007710D01*
X024992Y007662D01*
X024891Y007662D02*
X024843Y007710D01*
X024746Y007710D01*
X024697Y007662D01*
X024697Y007468D01*
X024746Y007420D01*
X024843Y007420D01*
X024891Y007468D01*
X024992Y007420D02*
X025186Y007613D01*
X025186Y007662D01*
X025137Y007710D01*
X025287Y007662D02*
X025287Y007613D01*
X025335Y007565D01*
X025480Y007565D01*
X025480Y007468D02*
X025480Y007662D01*
X025432Y007710D01*
X025335Y007710D01*
X025287Y007662D01*
X025287Y007468D02*
X025335Y007420D01*
X025432Y007420D01*
X025480Y007468D01*
X025186Y007420D02*
X024992Y007420D01*
X024410Y007116D02*
X024216Y007116D01*
X024216Y006971D01*
X024313Y007019D01*
X024362Y007019D01*
X024410Y006971D01*
X024410Y006874D01*
X024362Y006825D01*
X024265Y006825D01*
X024216Y006874D01*
X024115Y006874D02*
X024067Y006825D01*
X023970Y006825D01*
X023922Y006874D01*
X024115Y007067D01*
X024115Y006874D01*
X023922Y006874D02*
X023922Y007067D01*
X023970Y007116D01*
X024067Y007116D01*
X024115Y007067D01*
X023821Y007067D02*
X023772Y007116D01*
X023627Y007116D01*
X023627Y006825D01*
X023772Y006825D01*
X023821Y006874D01*
X023821Y007067D01*
X023526Y007116D02*
X023333Y007116D01*
X023333Y006825D01*
X023526Y006825D01*
X023429Y006971D02*
X023333Y006971D01*
X023231Y006825D02*
X023038Y006825D01*
X023038Y007116D01*
X016339Y005772D02*
X016145Y005772D01*
X016290Y005917D01*
X016290Y005627D01*
X016044Y005675D02*
X015996Y005627D01*
X015899Y005627D01*
X015850Y005675D01*
X016044Y005869D01*
X016044Y005675D01*
X015850Y005675D02*
X015850Y005869D01*
X015899Y005917D01*
X015996Y005917D01*
X016044Y005869D01*
X015749Y005869D02*
X015701Y005917D01*
X015556Y005917D01*
X015556Y005627D01*
X015701Y005627D01*
X015749Y005675D01*
X015749Y005869D01*
X015455Y005917D02*
X015261Y005917D01*
X015261Y005627D01*
X015455Y005627D01*
X015358Y005772D02*
X015261Y005772D01*
X015160Y005627D02*
X014967Y005627D01*
X014967Y005917D01*
X018982Y003483D02*
X018982Y003289D01*
X019079Y003193D01*
X019176Y003289D01*
X019176Y003483D01*
X019277Y003434D02*
X019325Y003483D01*
X019422Y003483D01*
X019470Y003434D01*
X019470Y003241D01*
X019422Y003193D01*
X019325Y003193D01*
X019277Y003241D01*
X019277Y003434D01*
X019572Y003483D02*
X019572Y003193D01*
X019765Y003193D01*
X019866Y003241D02*
X019915Y003193D01*
X020011Y003193D01*
X020060Y003241D01*
X020060Y003483D01*
X020161Y003483D02*
X020258Y003386D01*
X020354Y003483D01*
X020354Y003193D01*
X020456Y003193D02*
X020649Y003193D01*
X020552Y003338D02*
X020456Y003338D01*
X020456Y003483D02*
X020456Y003193D01*
X020161Y003193D02*
X020161Y003483D01*
X020456Y003483D02*
X020649Y003483D01*
X019866Y003483D02*
X019866Y003241D01*
X022902Y004392D02*
X023095Y004392D01*
X023197Y004392D02*
X023390Y004392D01*
X023491Y004392D02*
X023636Y004392D01*
X023685Y004440D01*
X023685Y004634D01*
X023636Y004682D01*
X023491Y004682D01*
X023491Y004392D01*
X023293Y004537D02*
X023197Y004537D01*
X023197Y004682D02*
X023197Y004392D01*
X022902Y004392D02*
X022902Y004682D01*
X023197Y004682D02*
X023390Y004682D01*
X023786Y004634D02*
X023834Y004682D01*
X023931Y004682D01*
X023979Y004634D01*
X023786Y004440D01*
X023834Y004392D01*
X023931Y004392D01*
X023979Y004440D01*
X023979Y004634D01*
X024080Y004537D02*
X024226Y004537D01*
X024274Y004488D01*
X024274Y004440D01*
X024226Y004392D01*
X024129Y004392D01*
X024080Y004440D01*
X024080Y004537D01*
X024177Y004634D01*
X024274Y004682D01*
X023786Y004634D02*
X023786Y004440D01*
X026708Y003415D02*
X026708Y003367D01*
X026756Y003319D01*
X026853Y003319D01*
X026901Y003270D01*
X026901Y003222D01*
X026853Y003174D01*
X026756Y003174D01*
X026708Y003222D01*
X026708Y003415D02*
X026756Y003464D01*
X026853Y003464D01*
X026901Y003415D01*
X027002Y003415D02*
X027051Y003464D01*
X027148Y003464D01*
X027196Y003415D01*
X027196Y003222D01*
X027148Y003174D01*
X027051Y003174D01*
X027002Y003222D01*
X027002Y003415D01*
X027099Y003270D02*
X027196Y003174D01*
X027297Y003222D02*
X027345Y003174D01*
X027442Y003174D01*
X027491Y003222D01*
X027491Y003464D01*
X027592Y003464D02*
X027592Y003174D01*
X027785Y003174D01*
X027886Y003174D02*
X028080Y003174D01*
X028181Y003222D02*
X028229Y003174D01*
X028326Y003174D01*
X028375Y003222D01*
X028476Y003174D02*
X028476Y003464D01*
X028375Y003415D02*
X028326Y003464D01*
X028229Y003464D01*
X028181Y003415D01*
X028181Y003222D01*
X027886Y003174D02*
X027886Y003464D01*
X027785Y003464D02*
X027592Y003464D01*
X027592Y003319D02*
X027688Y003319D01*
X027297Y003222D02*
X027297Y003464D01*
X028476Y003319D02*
X028669Y003319D01*
X028669Y003464D02*
X028669Y003174D01*
X030950Y004377D02*
X031143Y004377D01*
X031245Y004377D02*
X031438Y004377D01*
X031539Y004377D02*
X031684Y004377D01*
X031733Y004426D01*
X031733Y004619D01*
X031684Y004668D01*
X031539Y004668D01*
X031539Y004377D01*
X031341Y004523D02*
X031245Y004523D01*
X031245Y004668D02*
X031245Y004377D01*
X030950Y004377D02*
X030950Y004668D01*
X031245Y004668D02*
X031438Y004668D01*
X031834Y004619D02*
X031882Y004668D01*
X031979Y004668D01*
X032027Y004619D01*
X031834Y004426D01*
X031882Y004377D01*
X031979Y004377D01*
X032027Y004426D01*
X032027Y004619D01*
X032129Y004619D02*
X032129Y004571D01*
X032177Y004523D01*
X032274Y004523D01*
X032322Y004474D01*
X032322Y004426D01*
X032274Y004377D01*
X032177Y004377D01*
X032129Y004426D01*
X032129Y004474D01*
X032177Y004523D01*
X032274Y004523D02*
X032322Y004571D01*
X032322Y004619D01*
X032274Y004668D01*
X032177Y004668D01*
X032129Y004619D01*
X031834Y004619D02*
X031834Y004426D01*
X034562Y003415D02*
X034562Y003367D01*
X034611Y003319D01*
X034707Y003319D01*
X034756Y003270D01*
X034756Y003222D01*
X034707Y003174D01*
X034611Y003174D01*
X034562Y003222D01*
X034562Y003415D02*
X034611Y003464D01*
X034707Y003464D01*
X034756Y003415D01*
X034857Y003464D02*
X034857Y003174D01*
X034954Y003270D01*
X035050Y003174D01*
X035050Y003464D01*
X035151Y003464D02*
X035297Y003464D01*
X035345Y003415D01*
X035345Y003319D01*
X035297Y003270D01*
X035151Y003270D01*
X035151Y003174D02*
X035151Y003464D01*
X035248Y003270D02*
X035345Y003174D01*
X035446Y003174D02*
X035640Y003464D01*
X035741Y003415D02*
X035741Y003222D01*
X035789Y003174D01*
X035886Y003174D01*
X035934Y003222D01*
X036035Y003174D02*
X036035Y003367D01*
X036132Y003464D01*
X036229Y003367D01*
X036229Y003174D01*
X036330Y003174D02*
X036524Y003174D01*
X036330Y003174D02*
X036330Y003464D01*
X036229Y003319D02*
X036035Y003319D01*
X035934Y003415D02*
X035886Y003464D01*
X035789Y003464D01*
X035741Y003415D01*
X038677Y004405D02*
X038871Y004405D01*
X038972Y004405D02*
X039165Y004405D01*
X039266Y004405D02*
X039266Y004696D01*
X039412Y004696D01*
X039460Y004647D01*
X039460Y004454D01*
X039412Y004405D01*
X039266Y004405D01*
X039069Y004550D02*
X038972Y004550D01*
X038972Y004405D02*
X038972Y004696D01*
X039165Y004696D01*
X039561Y004599D02*
X039658Y004696D01*
X039658Y004405D01*
X039561Y004405D02*
X039755Y004405D01*
X039856Y004454D02*
X040049Y004647D01*
X040049Y004454D01*
X040001Y004405D01*
X039904Y004405D01*
X039856Y004454D01*
X039856Y004647D01*
X039904Y004696D01*
X040001Y004696D01*
X040049Y004647D01*
X038677Y004696D02*
X038677Y004405D01*
X042435Y003464D02*
X042580Y003464D01*
X042629Y003415D01*
X042629Y003319D01*
X042580Y003270D01*
X042435Y003270D01*
X042435Y003174D02*
X042435Y003464D01*
X042532Y003270D02*
X042629Y003174D01*
X042730Y003174D02*
X042730Y003464D01*
X042923Y003464D01*
X042827Y003319D02*
X042730Y003319D01*
X043025Y003319D02*
X043218Y003319D01*
X043319Y003270D02*
X043464Y003270D01*
X043513Y003319D01*
X043513Y003415D01*
X043464Y003464D01*
X043319Y003464D01*
X043319Y003174D01*
X043614Y003222D02*
X043662Y003174D01*
X043759Y003174D01*
X043807Y003222D01*
X043807Y003415D01*
X043759Y003464D01*
X043662Y003464D01*
X043614Y003415D01*
X043614Y003222D01*
X043909Y003174D02*
X044005Y003270D01*
X044102Y003174D01*
X044102Y003464D01*
X044203Y003464D02*
X044203Y003174D01*
X044397Y003174D01*
X044498Y003174D02*
X044498Y003464D01*
X044643Y003464D01*
X044691Y003415D01*
X044691Y003319D01*
X044643Y003270D01*
X044498Y003270D01*
X044595Y003270D02*
X044691Y003174D01*
X044397Y003464D02*
X044203Y003464D01*
X044203Y003319D02*
X044300Y003319D01*
X043909Y003464D02*
X043909Y003174D01*
X054744Y006785D02*
X054938Y006785D01*
X055039Y006785D02*
X055039Y007075D01*
X055233Y007075D01*
X055334Y007075D02*
X055479Y007075D01*
X055527Y007026D01*
X055527Y006833D01*
X055479Y006785D01*
X055334Y006785D01*
X055334Y007075D01*
X055136Y006930D02*
X055039Y006930D01*
X055039Y006785D02*
X055233Y006785D01*
X055628Y006785D02*
X055822Y006785D01*
X055725Y006785D02*
X055725Y007075D01*
X055628Y006978D01*
X055923Y007026D02*
X055971Y007075D01*
X056068Y007075D01*
X056116Y007026D01*
X056116Y006978D01*
X056068Y006930D01*
X056116Y006881D01*
X056116Y006833D01*
X056068Y006785D01*
X055971Y006785D01*
X055923Y006833D01*
X056020Y006930D02*
X056068Y006930D01*
X054744Y007075D02*
X054744Y006785D01*
X047524Y007881D02*
X047476Y007832D01*
X047379Y007832D01*
X047331Y007881D01*
X047331Y007978D01*
X047476Y007978D01*
X047524Y007929D01*
X047524Y007881D01*
X047428Y008074D02*
X047331Y007978D01*
X047230Y007978D02*
X047181Y007929D01*
X047036Y007929D01*
X047036Y007832D02*
X047036Y008123D01*
X047181Y008123D01*
X047230Y008074D01*
X047230Y007978D01*
X047133Y007929D02*
X047230Y007832D01*
X047428Y008074D02*
X047524Y008123D01*
X047118Y012037D02*
X046924Y012037D01*
X047118Y012231D01*
X047118Y012279D01*
X047069Y012328D01*
X046972Y012328D01*
X046924Y012279D01*
X046726Y012328D02*
X046629Y012231D01*
X046726Y012328D02*
X046726Y012037D01*
X046629Y012037D02*
X046823Y012037D01*
X046528Y012037D02*
X046528Y012328D01*
X046335Y012328D02*
X046335Y012037D01*
X046432Y012134D01*
X046528Y012037D01*
X046234Y012086D02*
X046185Y012037D01*
X046089Y012037D01*
X046040Y012086D01*
X046089Y012183D02*
X046185Y012183D01*
X046234Y012134D01*
X046234Y012086D01*
X046089Y012183D02*
X046040Y012231D01*
X046040Y012279D01*
X046089Y012328D01*
X046185Y012328D01*
X046234Y012279D01*
X042672Y012010D02*
X042478Y012010D01*
X042575Y012010D02*
X042575Y012300D01*
X042478Y012204D01*
X042377Y012010D02*
X042183Y012010D01*
X042280Y012010D02*
X042280Y012300D01*
X042183Y012204D01*
X042082Y012300D02*
X042082Y012010D01*
X041986Y012107D01*
X041889Y012010D01*
X041889Y012300D01*
X041788Y012252D02*
X041739Y012300D01*
X041643Y012300D01*
X041594Y012252D01*
X041594Y012204D01*
X041643Y012155D01*
X041739Y012155D01*
X041788Y012107D01*
X041788Y012059D01*
X041739Y012010D01*
X041643Y012010D01*
X041594Y012059D01*
X038090Y012072D02*
X038041Y012024D01*
X037945Y012024D01*
X037896Y012072D01*
X038090Y012266D01*
X038090Y012072D01*
X038090Y012266D02*
X038041Y012314D01*
X037945Y012314D01*
X037896Y012266D01*
X037896Y012072D01*
X037795Y012024D02*
X037602Y012024D01*
X037698Y012024D02*
X037698Y012314D01*
X037602Y012217D01*
X037500Y012314D02*
X037500Y012024D01*
X037404Y012121D01*
X037307Y012024D01*
X037307Y012314D01*
X037206Y012266D02*
X037157Y012314D01*
X037061Y012314D01*
X037012Y012266D01*
X037012Y012217D01*
X037061Y012169D01*
X037157Y012169D01*
X037206Y012121D01*
X037206Y012072D01*
X037157Y012024D01*
X037061Y012024D01*
X037012Y012072D01*
X033494Y012031D02*
X033494Y012225D01*
X033446Y012273D01*
X033349Y012273D01*
X033301Y012225D01*
X033301Y012176D01*
X033349Y012128D01*
X033494Y012128D01*
X033494Y012031D02*
X033446Y011983D01*
X033349Y011983D01*
X033301Y012031D01*
X033199Y012031D02*
X033151Y011983D01*
X033054Y011983D01*
X033006Y012031D01*
X033199Y012225D01*
X033199Y012031D01*
X033006Y012031D02*
X033006Y012225D01*
X033054Y012273D01*
X033151Y012273D01*
X033199Y012225D01*
X032905Y012273D02*
X032905Y011983D01*
X032808Y012080D01*
X032711Y011983D01*
X032711Y012273D01*
X032610Y012225D02*
X032562Y012273D01*
X032465Y012273D01*
X032417Y012225D01*
X032417Y012176D01*
X032465Y012128D01*
X032562Y012128D01*
X032610Y012080D01*
X032610Y012031D01*
X032562Y011983D01*
X032465Y011983D01*
X032417Y012031D01*
X028994Y012072D02*
X028945Y012024D01*
X028849Y012024D01*
X028800Y012072D01*
X028800Y012121D01*
X028849Y012169D01*
X028945Y012169D01*
X028994Y012121D01*
X028994Y012072D01*
X028945Y012169D02*
X028994Y012217D01*
X028994Y012266D01*
X028945Y012314D01*
X028849Y012314D01*
X028800Y012266D01*
X028800Y012217D01*
X028849Y012169D01*
X028699Y012266D02*
X028506Y012072D01*
X028554Y012024D01*
X028651Y012024D01*
X028699Y012072D01*
X028699Y012266D01*
X028651Y012314D01*
X028554Y012314D01*
X028506Y012266D01*
X028506Y012072D01*
X028404Y012024D02*
X028308Y012121D01*
X028211Y012024D01*
X028211Y012314D01*
X028110Y012266D02*
X028061Y012314D01*
X027965Y012314D01*
X027916Y012266D01*
X027916Y012217D01*
X027965Y012169D01*
X028061Y012169D01*
X028110Y012121D01*
X028110Y012072D01*
X028061Y012024D01*
X027965Y012024D01*
X027916Y012072D01*
X028404Y012024D02*
X028404Y012314D01*
X024493Y012287D02*
X024493Y012238D01*
X024300Y012045D01*
X024300Y011997D01*
X024199Y012045D02*
X024150Y011997D01*
X024054Y011997D01*
X024005Y012045D01*
X024199Y012238D01*
X024199Y012045D01*
X024199Y012238D02*
X024150Y012287D01*
X024054Y012287D01*
X024005Y012238D01*
X024005Y012045D01*
X023904Y011997D02*
X023904Y012287D01*
X023711Y012287D02*
X023711Y011997D01*
X023807Y012093D01*
X023904Y011997D01*
X023609Y012045D02*
X023561Y011997D01*
X023464Y011997D01*
X023416Y012045D01*
X023464Y012142D02*
X023561Y012142D01*
X023609Y012093D01*
X023609Y012045D01*
X023464Y012142D02*
X023416Y012190D01*
X023416Y012238D01*
X023464Y012287D01*
X023561Y012287D01*
X023609Y012238D01*
X024300Y012287D02*
X024493Y012287D01*
X019925Y012300D02*
X019828Y012252D01*
X019732Y012155D01*
X019877Y012155D01*
X019925Y012107D01*
X019925Y012059D01*
X019877Y012010D01*
X019780Y012010D01*
X019732Y012059D01*
X019732Y012155D01*
X019630Y012059D02*
X019582Y012010D01*
X019485Y012010D01*
X019437Y012059D01*
X019630Y012252D01*
X019630Y012059D01*
X019630Y012252D02*
X019582Y012300D01*
X019485Y012300D01*
X019437Y012252D01*
X019437Y012059D01*
X019336Y012010D02*
X019239Y012107D01*
X019142Y012010D01*
X019142Y012300D01*
X019041Y012252D02*
X018993Y012300D01*
X018896Y012300D01*
X018848Y012252D01*
X018848Y012204D01*
X018896Y012155D01*
X018993Y012155D01*
X019041Y012107D01*
X019041Y012059D01*
X018993Y012010D01*
X018896Y012010D01*
X018848Y012059D01*
X019336Y012010D02*
X019336Y012300D01*
X019315Y013091D02*
X019363Y013139D01*
X019363Y013236D01*
X019315Y013284D01*
X019315Y013385D02*
X019363Y013434D01*
X019363Y013531D01*
X019315Y013579D01*
X019266Y013579D01*
X019218Y013531D01*
X019218Y013482D01*
X019218Y013531D02*
X019169Y013579D01*
X019121Y013579D01*
X019073Y013531D01*
X019073Y013434D01*
X019121Y013385D01*
X019121Y013284D02*
X019073Y013236D01*
X019073Y013139D01*
X019121Y013091D01*
X019315Y013091D01*
X019363Y013680D02*
X019169Y013874D01*
X019121Y013874D01*
X019073Y013825D01*
X019073Y013729D01*
X019121Y013680D01*
X019363Y013680D02*
X019363Y013874D01*
X019451Y015097D02*
X019644Y015097D01*
X019692Y015145D01*
X019692Y015242D01*
X019644Y015291D01*
X019692Y015392D02*
X019499Y015585D01*
X019451Y015585D01*
X019402Y015537D01*
X019402Y015440D01*
X019451Y015392D01*
X019451Y015291D02*
X019402Y015242D01*
X019402Y015145D01*
X019451Y015097D01*
X019692Y015392D02*
X019692Y015585D01*
X019547Y015686D02*
X019547Y015880D01*
X019402Y015832D02*
X019547Y015686D01*
X019692Y015832D02*
X019402Y015832D01*
X019788Y016908D02*
X019982Y016908D01*
X020030Y016957D01*
X020030Y017053D01*
X019982Y017102D01*
X020030Y017203D02*
X019837Y017396D01*
X019788Y017396D01*
X019740Y017348D01*
X019740Y017251D01*
X019788Y017203D01*
X019788Y017102D02*
X019740Y017053D01*
X019740Y016957D01*
X019788Y016908D01*
X020030Y017203D02*
X020030Y017396D01*
X019982Y017498D02*
X020030Y017546D01*
X020030Y017643D01*
X019982Y017691D01*
X019885Y017691D01*
X019837Y017643D01*
X019837Y017594D01*
X019885Y017498D01*
X019740Y017498D01*
X019740Y017691D01*
X012906Y015691D02*
X012712Y015691D01*
X012712Y015546D01*
X012809Y015594D01*
X012858Y015594D01*
X012906Y015546D01*
X012906Y015449D01*
X012858Y015401D01*
X012761Y015401D01*
X012712Y015449D01*
X012611Y015449D02*
X012563Y015401D01*
X012466Y015401D01*
X012418Y015449D01*
X012611Y015643D01*
X012611Y015449D01*
X012418Y015449D02*
X012418Y015643D01*
X012466Y015691D01*
X012563Y015691D01*
X012611Y015643D01*
X012317Y015691D02*
X012317Y015401D01*
X012220Y015497D01*
X012123Y015401D01*
X012123Y015691D01*
X012022Y015643D02*
X011974Y015691D01*
X011877Y015691D01*
X011829Y015643D01*
X011829Y015594D01*
X011877Y015546D01*
X011974Y015546D01*
X012022Y015497D01*
X012022Y015449D01*
X011974Y015401D01*
X011877Y015401D01*
X011829Y015449D01*
X009228Y016169D02*
X009035Y016169D01*
X009180Y016314D01*
X009180Y016024D01*
X008934Y016072D02*
X008885Y016024D01*
X008789Y016024D01*
X008740Y016072D01*
X008934Y016266D01*
X008934Y016072D01*
X008934Y016266D02*
X008885Y016314D01*
X008789Y016314D01*
X008740Y016266D01*
X008740Y016072D01*
X008639Y016024D02*
X008639Y016314D01*
X008446Y016314D02*
X008446Y016024D01*
X008542Y016120D01*
X008639Y016024D01*
X008344Y016072D02*
X008296Y016024D01*
X008199Y016024D01*
X008151Y016072D01*
X008199Y016169D02*
X008296Y016169D01*
X008344Y016120D01*
X008344Y016072D01*
X008199Y016169D02*
X008151Y016217D01*
X008151Y016266D01*
X008199Y016314D01*
X008296Y016314D01*
X008344Y016266D01*
X008277Y016805D02*
X008471Y016805D01*
X008572Y016805D02*
X008717Y016805D01*
X008766Y016853D01*
X008766Y017047D01*
X008717Y017095D01*
X008572Y017095D01*
X008572Y016805D01*
X008374Y016950D02*
X008277Y016950D01*
X008277Y017095D02*
X008277Y016805D01*
X008176Y016805D02*
X007983Y016805D01*
X007983Y017095D01*
X008277Y017095D02*
X008471Y017095D01*
X008867Y017047D02*
X008867Y016853D01*
X009060Y017047D01*
X009060Y016853D01*
X009012Y016805D01*
X008915Y016805D01*
X008867Y016853D01*
X008867Y017047D02*
X008915Y017095D01*
X009012Y017095D01*
X009060Y017047D01*
X009161Y017047D02*
X009210Y017095D01*
X009307Y017095D01*
X009355Y017047D01*
X009355Y016998D01*
X009161Y016805D01*
X009355Y016805D01*
X005544Y015662D02*
X005544Y015614D01*
X005495Y015565D01*
X005544Y015517D01*
X005544Y015469D01*
X005495Y015420D01*
X005399Y015420D01*
X005350Y015469D01*
X005249Y015469D02*
X005201Y015420D01*
X005104Y015420D01*
X005056Y015469D01*
X005249Y015662D01*
X005249Y015469D01*
X005249Y015662D02*
X005201Y015711D01*
X005104Y015711D01*
X005056Y015662D01*
X005056Y015469D01*
X004954Y015420D02*
X004954Y015711D01*
X004761Y015711D02*
X004761Y015420D01*
X004858Y015517D01*
X004954Y015420D01*
X004660Y015469D02*
X004611Y015420D01*
X004515Y015420D01*
X004466Y015469D01*
X004515Y015565D02*
X004611Y015565D01*
X004660Y015517D01*
X004660Y015469D01*
X004515Y015565D02*
X004466Y015614D01*
X004466Y015662D01*
X004515Y015711D01*
X004611Y015711D01*
X004660Y015662D01*
X005350Y015662D02*
X005399Y015711D01*
X005495Y015711D01*
X005544Y015662D01*
X005495Y015565D02*
X005447Y015565D01*
X008014Y018734D02*
X008208Y018734D01*
X008309Y018734D02*
X008502Y018734D01*
X008604Y018734D02*
X008749Y018734D01*
X008797Y018782D01*
X008797Y018976D01*
X008749Y019024D01*
X008604Y019024D01*
X008604Y018734D01*
X008406Y018879D02*
X008309Y018879D01*
X008309Y019024D02*
X008309Y018734D01*
X008014Y018734D02*
X008014Y019024D01*
X008309Y019024D02*
X008502Y019024D01*
X008898Y018976D02*
X008947Y019024D01*
X009043Y019024D01*
X009092Y018976D01*
X008898Y018782D01*
X008947Y018734D01*
X009043Y018734D01*
X009092Y018782D01*
X009092Y018976D01*
X009193Y018927D02*
X009290Y019024D01*
X009290Y018734D01*
X009386Y018734D02*
X009193Y018734D01*
X008898Y018782D02*
X008898Y018976D01*
X011238Y019406D02*
X011286Y019357D01*
X011383Y019357D01*
X011431Y019406D01*
X011431Y019454D01*
X011383Y019502D01*
X011286Y019502D01*
X011238Y019551D01*
X011238Y019599D01*
X011286Y019648D01*
X011383Y019648D01*
X011431Y019599D01*
X011533Y019648D02*
X011533Y019357D01*
X011629Y019454D01*
X011726Y019357D01*
X011726Y019648D01*
X011827Y019599D02*
X011827Y019406D01*
X012021Y019599D01*
X012021Y019406D01*
X011972Y019357D01*
X011876Y019357D01*
X011827Y019406D01*
X011827Y019599D02*
X011876Y019648D01*
X011972Y019648D01*
X012021Y019599D01*
X012122Y019599D02*
X012170Y019648D01*
X012267Y019648D01*
X012315Y019599D01*
X012315Y019551D01*
X012122Y019357D01*
X012315Y019357D01*
X006095Y019357D02*
X005902Y019357D01*
X005998Y019357D02*
X005998Y019648D01*
X005902Y019551D01*
X005800Y019599D02*
X005607Y019406D01*
X005655Y019357D01*
X005752Y019357D01*
X005800Y019406D01*
X005800Y019599D01*
X005752Y019648D01*
X005655Y019648D01*
X005607Y019599D01*
X005607Y019406D01*
X005506Y019357D02*
X005506Y019648D01*
X005312Y019648D02*
X005312Y019357D01*
X005409Y019454D01*
X005506Y019357D01*
X005211Y019406D02*
X005163Y019357D01*
X005066Y019357D01*
X005018Y019406D01*
X005066Y019502D02*
X005163Y019502D01*
X005211Y019454D01*
X005211Y019406D01*
X005066Y019502D02*
X005018Y019551D01*
X005018Y019599D01*
X005066Y019648D01*
X005163Y019648D01*
X005211Y019599D01*
X023049Y020941D02*
X023098Y020892D01*
X023291Y020892D01*
X023340Y020941D01*
X023340Y021037D01*
X023291Y021086D01*
X023291Y021187D02*
X023340Y021235D01*
X023340Y021332D01*
X023291Y021380D01*
X023098Y021380D01*
X023049Y021332D01*
X023049Y021235D01*
X023098Y021187D01*
X023146Y021187D01*
X023195Y021235D01*
X023195Y021380D01*
X024032Y021515D02*
X024323Y021515D01*
X024323Y021418D02*
X024323Y021612D01*
X024129Y021418D02*
X024032Y021515D01*
X024032Y021220D02*
X024323Y021220D01*
X024323Y021124D02*
X024323Y021317D01*
X024129Y021124D02*
X024032Y021220D01*
X024081Y021022D02*
X024032Y020974D01*
X024032Y020877D01*
X024081Y020829D01*
X024274Y020829D01*
X024323Y020877D01*
X024323Y020974D01*
X024274Y021022D01*
X025017Y021008D02*
X025017Y020911D01*
X025065Y020863D01*
X025258Y020863D01*
X025307Y020911D01*
X025307Y021008D01*
X025258Y021056D01*
X025307Y021157D02*
X025307Y021351D01*
X025307Y021254D02*
X025017Y021254D01*
X025113Y021157D01*
X025065Y021056D02*
X025017Y021008D01*
X025065Y021452D02*
X025017Y021500D01*
X025017Y021597D01*
X025065Y021646D01*
X025258Y021452D01*
X025307Y021500D01*
X025307Y021597D01*
X025258Y021646D01*
X025065Y021646D01*
X025065Y021452D02*
X025258Y021452D01*
X025996Y021500D02*
X025996Y021597D01*
X026044Y021646D01*
X026092Y021646D01*
X026286Y021452D01*
X026286Y021646D01*
X026286Y021351D02*
X026286Y021157D01*
X026286Y021254D02*
X025996Y021254D01*
X026092Y021157D01*
X026044Y021056D02*
X025996Y021008D01*
X025996Y020911D01*
X026044Y020863D01*
X026238Y020863D01*
X026286Y020911D01*
X026286Y021008D01*
X026238Y021056D01*
X026044Y021452D02*
X025996Y021500D01*
X023098Y021086D02*
X023049Y021037D01*
X023049Y020941D01*
X026925Y017553D02*
X027021Y017553D01*
X026973Y017553D02*
X026973Y017263D01*
X026925Y017263D02*
X027021Y017263D01*
X027121Y017311D02*
X027169Y017263D01*
X027266Y017263D01*
X027314Y017311D01*
X027416Y017311D02*
X027464Y017263D01*
X027561Y017263D01*
X027609Y017311D01*
X027609Y017360D01*
X027561Y017408D01*
X027416Y017408D01*
X027416Y017311D01*
X027416Y017408D02*
X027512Y017505D01*
X027609Y017553D01*
X027314Y017505D02*
X027266Y017553D01*
X027169Y017553D01*
X027121Y017505D01*
X027121Y017311D01*
X028181Y015965D02*
X028229Y015868D01*
X028326Y015772D01*
X028326Y015917D01*
X028374Y015965D01*
X028422Y015965D01*
X028471Y015917D01*
X028471Y015820D01*
X028422Y015772D01*
X028326Y015772D01*
X028277Y015671D02*
X028229Y015671D01*
X028181Y015622D01*
X028181Y015525D01*
X028229Y015477D01*
X028229Y015376D02*
X028181Y015328D01*
X028181Y015231D01*
X028229Y015182D01*
X028422Y015182D01*
X028471Y015231D01*
X028471Y015328D01*
X028422Y015376D01*
X028471Y015477D02*
X028277Y015671D01*
X028471Y015671D02*
X028471Y015477D01*
X016477Y012207D02*
X016477Y012158D01*
X016429Y012110D01*
X016332Y012110D01*
X016283Y012158D01*
X016283Y012207D01*
X016332Y012255D01*
X016429Y012255D01*
X016477Y012207D01*
X016429Y012110D02*
X016477Y012061D01*
X016477Y012013D01*
X016429Y011965D01*
X016332Y011965D01*
X016283Y012013D01*
X016283Y012061D01*
X016332Y012110D01*
X016182Y012158D02*
X016182Y012207D01*
X016134Y012255D01*
X016037Y012255D01*
X015989Y012207D01*
X015888Y012207D02*
X015839Y012255D01*
X015742Y012255D01*
X015694Y012207D01*
X015694Y012013D01*
X015742Y011965D01*
X015839Y011965D01*
X015888Y012013D01*
X015989Y011965D02*
X016182Y012158D01*
X016182Y011965D02*
X015989Y011965D01*
X016000Y010851D02*
X016097Y010851D01*
X016146Y010802D01*
X015952Y010609D01*
X016000Y010560D01*
X016097Y010560D01*
X016146Y010609D01*
X016146Y010802D01*
X016247Y010802D02*
X016295Y010851D01*
X016392Y010851D01*
X016440Y010802D01*
X016440Y010754D01*
X016392Y010706D01*
X016440Y010657D01*
X016440Y010609D01*
X016392Y010560D01*
X016295Y010560D01*
X016247Y010609D01*
X016343Y010706D02*
X016392Y010706D01*
X016000Y010851D02*
X015952Y010802D01*
X015952Y010609D01*
X015851Y010609D02*
X015851Y010802D01*
X015803Y010851D01*
X015657Y010851D01*
X015657Y010560D01*
X015803Y010560D01*
X015851Y010609D01*
X015556Y010560D02*
X015363Y010560D01*
X015363Y010851D01*
X015556Y010851D01*
X015459Y010706D02*
X015363Y010706D01*
X015262Y010560D02*
X015068Y010560D01*
X015068Y010851D01*
X012281Y012037D02*
X012281Y012086D01*
X012474Y012279D01*
X012474Y012328D01*
X012281Y012328D01*
X012180Y012279D02*
X012131Y012328D01*
X012035Y012328D01*
X011986Y012279D01*
X011885Y012279D02*
X011837Y012328D01*
X011740Y012328D01*
X011691Y012279D01*
X011691Y012086D01*
X011740Y012037D01*
X011837Y012037D01*
X011885Y012086D01*
X011986Y012037D02*
X012180Y012231D01*
X012180Y012279D01*
X012180Y012037D02*
X011986Y012037D01*
X066733Y017777D02*
X066781Y017728D01*
X066878Y017728D01*
X066926Y017777D01*
X066926Y017825D01*
X066878Y017873D01*
X066781Y017873D01*
X066733Y017922D01*
X066733Y017970D01*
X066781Y018018D01*
X066878Y018018D01*
X066926Y017970D01*
X067028Y018018D02*
X067028Y017728D01*
X067124Y017825D01*
X067221Y017728D01*
X067221Y018018D01*
X067322Y017922D02*
X067419Y018018D01*
X067419Y017728D01*
X067322Y017728D02*
X067516Y017728D01*
X067617Y017777D02*
X067617Y017825D01*
X067665Y017873D01*
X067762Y017873D01*
X067810Y017825D01*
X067810Y017777D01*
X067762Y017728D01*
X067665Y017728D01*
X067617Y017777D01*
X067665Y017873D02*
X067617Y017922D01*
X067617Y017970D01*
X067665Y018018D01*
X067762Y018018D01*
X067810Y017970D01*
X067810Y017922D01*
X067762Y017873D01*
X069601Y018412D02*
X069794Y018412D01*
X069895Y018412D02*
X069895Y018702D01*
X070089Y018702D01*
X070190Y018702D02*
X070335Y018702D01*
X070383Y018654D01*
X070383Y018460D01*
X070335Y018412D01*
X070190Y018412D01*
X070190Y018702D01*
X069992Y018557D02*
X069895Y018557D01*
X069895Y018412D02*
X070089Y018412D01*
X070485Y018412D02*
X070678Y018412D01*
X070581Y018412D02*
X070581Y018702D01*
X070485Y018605D01*
X070779Y018702D02*
X070973Y018702D01*
X070973Y018654D01*
X070779Y018460D01*
X070779Y018412D01*
X069601Y018412D02*
X069601Y018702D01*
X072442Y017942D02*
X072442Y017893D01*
X072490Y017845D01*
X072587Y017845D01*
X072635Y017797D01*
X072635Y017748D01*
X072587Y017700D01*
X072490Y017700D01*
X072442Y017748D01*
X072442Y017942D02*
X072490Y017990D01*
X072587Y017990D01*
X072635Y017942D01*
X072736Y017990D02*
X072736Y017700D01*
X072833Y017797D01*
X072930Y017700D01*
X072930Y017990D01*
X073031Y017893D02*
X073128Y017990D01*
X073128Y017700D01*
X073224Y017700D02*
X073031Y017700D01*
X073326Y017748D02*
X073374Y017700D01*
X073471Y017700D01*
X073519Y017748D01*
X073519Y017942D01*
X073471Y017990D01*
X073374Y017990D01*
X073326Y017942D01*
X073326Y017893D01*
X073374Y017845D01*
X073519Y017845D01*
X073354Y020906D02*
X073354Y020954D01*
X073547Y021148D01*
X073547Y021196D01*
X073354Y021196D01*
X073156Y021196D02*
X073156Y020906D01*
X073059Y020906D02*
X073253Y020906D01*
X073059Y021100D02*
X073156Y021196D01*
X072958Y021196D02*
X072958Y020906D01*
X072861Y021003D01*
X072764Y020906D01*
X072764Y021196D01*
X072663Y021148D02*
X072615Y021196D01*
X072518Y021196D01*
X072470Y021148D01*
X072470Y021100D01*
X072518Y021051D01*
X072615Y021051D01*
X072663Y021003D01*
X072663Y020954D01*
X072615Y020906D01*
X072518Y020906D01*
X072470Y020954D01*
X067839Y020975D02*
X067790Y021023D01*
X067645Y021023D01*
X067645Y020926D01*
X067693Y020878D01*
X067790Y020878D01*
X067839Y020926D01*
X067839Y020975D01*
X067742Y021120D02*
X067645Y021023D01*
X067742Y021120D02*
X067839Y021168D01*
X067447Y021168D02*
X067447Y020878D01*
X067350Y020878D02*
X067544Y020878D01*
X067350Y021071D02*
X067447Y021168D01*
X067249Y021168D02*
X067249Y020878D01*
X067153Y020975D01*
X067056Y020878D01*
X067056Y021168D01*
X066955Y021120D02*
X066906Y021168D01*
X066809Y021168D01*
X066761Y021120D01*
X066761Y021071D01*
X066809Y021023D01*
X066906Y021023D01*
X066955Y020975D01*
X066955Y020926D01*
X066906Y020878D01*
X066809Y020878D01*
X066761Y020926D01*
X069734Y003893D02*
X069685Y003845D01*
X069685Y003796D01*
X069734Y003748D01*
X069831Y003748D01*
X069879Y003700D01*
X069879Y003651D01*
X069831Y003603D01*
X069734Y003603D01*
X069685Y003651D01*
X069734Y003893D02*
X069831Y003893D01*
X069879Y003845D01*
X069980Y003893D02*
X069980Y003603D01*
X070077Y003700D01*
X070174Y003603D01*
X070174Y003893D01*
X070275Y003845D02*
X070323Y003893D01*
X070420Y003893D01*
X070468Y003845D01*
X070468Y003796D01*
X070275Y003603D01*
X070468Y003603D01*
X070569Y003603D02*
X070763Y003796D01*
X070763Y003845D01*
X070715Y003893D01*
X070618Y003893D01*
X070569Y003845D01*
X070569Y003603D02*
X070763Y003603D01*
D14*
X053243Y003679D02*
X053243Y004357D01*
X053243Y003679D02*
X049306Y003679D01*
X049306Y004357D01*
X045369Y004357D02*
X045369Y003679D01*
X041432Y003679D01*
X041432Y004357D01*
X037495Y004357D02*
X037495Y003679D01*
X033558Y003679D01*
X033558Y004357D01*
X029621Y004357D02*
X029621Y003679D01*
X025684Y003679D01*
X025684Y004357D01*
X021747Y004357D02*
X021747Y003679D01*
X017810Y003679D01*
X017810Y004357D01*
X017810Y005758D02*
X017810Y008010D01*
X018361Y008010D01*
X019231Y008010D02*
X019338Y008010D01*
X020220Y008010D02*
X020326Y008010D01*
X021196Y008010D02*
X021747Y008010D01*
X021747Y005758D01*
X025684Y005758D02*
X025684Y008010D01*
X026235Y008010D01*
X027105Y008010D02*
X027212Y008010D01*
X028094Y008010D02*
X028200Y008010D01*
X029070Y008010D02*
X029621Y008010D01*
X029621Y005758D01*
X033558Y005758D02*
X033558Y008010D01*
X034109Y008010D01*
X034980Y008010D02*
X035086Y008010D01*
X035968Y008010D02*
X036074Y008010D01*
X036944Y008010D02*
X037495Y008010D01*
X037495Y005758D01*
X041432Y005758D02*
X041432Y008010D01*
X041983Y008010D01*
X042854Y008010D02*
X042960Y008010D01*
X043842Y008010D02*
X043948Y008010D01*
X044818Y008010D02*
X045369Y008010D01*
X045369Y005758D01*
X049306Y005758D02*
X049306Y008010D01*
X049857Y008010D01*
X050728Y008010D02*
X050834Y008010D01*
X051716Y008010D02*
X051822Y008010D01*
X052692Y008010D02*
X053243Y008010D01*
X053243Y005758D01*
D15*
X055236Y006066D03*
X055236Y006608D03*
X055236Y005427D03*
X055236Y004885D03*
X047166Y004885D03*
X047166Y005427D03*
X047166Y006066D03*
X047166Y006608D03*
X039292Y006608D03*
X039292Y006066D03*
X039292Y005427D03*
X039292Y004885D03*
X031860Y004885D03*
X031860Y005427D03*
X031860Y006066D03*
X031860Y006608D03*
X023543Y006608D03*
X023543Y006066D03*
X023543Y005427D03*
X023543Y004885D03*
X015669Y006263D03*
X015669Y006804D03*
X015669Y009806D03*
X015669Y010348D03*
X008878Y017287D03*
X008878Y017828D03*
X008878Y018074D03*
X008878Y018616D03*
X065866Y006608D03*
X065866Y006066D03*
X065866Y005427D03*
X065866Y004885D03*
X074380Y008822D03*
X074380Y009364D03*
X074380Y009806D03*
X074380Y010348D03*
X070443Y014334D03*
X070443Y014875D03*
X070443Y017680D03*
X070443Y018222D03*
D16*
X070291Y017951D03*
X070291Y014605D03*
X074228Y010077D03*
X074228Y009093D03*
X066019Y006337D03*
X066019Y005156D03*
X055389Y005156D03*
X055389Y006337D03*
X047318Y006337D03*
X047318Y005156D03*
X039444Y005156D03*
X039444Y006337D03*
X031708Y006337D03*
X031708Y005156D03*
X023696Y005156D03*
X023696Y006337D03*
X015822Y006534D03*
X015822Y010077D03*
X008726Y017557D03*
X008726Y018345D03*
D17*
X008027Y020313D02*
X008029Y020363D01*
X008035Y020413D01*
X008045Y020462D01*
X008059Y020510D01*
X008076Y020557D01*
X008097Y020602D01*
X008122Y020646D01*
X008150Y020687D01*
X008182Y020726D01*
X008216Y020763D01*
X008253Y020797D01*
X008293Y020827D01*
X008335Y020854D01*
X008379Y020878D01*
X008425Y020899D01*
X008472Y020915D01*
X008520Y020928D01*
X008570Y020937D01*
X008619Y020942D01*
X008670Y020943D01*
X008720Y020940D01*
X008769Y020933D01*
X008818Y020922D01*
X008866Y020907D01*
X008912Y020889D01*
X008957Y020867D01*
X009000Y020841D01*
X009041Y020812D01*
X009080Y020780D01*
X009116Y020745D01*
X009148Y020707D01*
X009178Y020667D01*
X009205Y020624D01*
X009228Y020580D01*
X009247Y020534D01*
X009263Y020486D01*
X009275Y020437D01*
X009283Y020388D01*
X009287Y020338D01*
X009287Y020288D01*
X009283Y020238D01*
X009275Y020189D01*
X009263Y020140D01*
X009247Y020092D01*
X009228Y020046D01*
X009205Y020002D01*
X009178Y019959D01*
X009148Y019919D01*
X009116Y019881D01*
X009080Y019846D01*
X009041Y019814D01*
X009000Y019785D01*
X008957Y019759D01*
X008912Y019737D01*
X008866Y019719D01*
X008818Y019704D01*
X008769Y019693D01*
X008720Y019686D01*
X008670Y019683D01*
X008619Y019684D01*
X008570Y019689D01*
X008520Y019698D01*
X008472Y019711D01*
X008425Y019727D01*
X008379Y019748D01*
X008335Y019772D01*
X008293Y019799D01*
X008253Y019829D01*
X008216Y019863D01*
X008182Y019900D01*
X008150Y019939D01*
X008122Y019980D01*
X008097Y020024D01*
X008076Y020069D01*
X008059Y020116D01*
X008045Y020164D01*
X008035Y020213D01*
X008029Y020263D01*
X008027Y020313D01*
X020702Y017046D02*
X020702Y016849D01*
X020702Y014132D01*
X026828Y014132D02*
X026828Y016849D01*
X020702Y016849D01*
X026828Y016849D02*
X026828Y017046D01*
X052198Y017833D02*
X052198Y015117D01*
X058324Y015117D01*
X058324Y014920D01*
X058324Y015117D02*
X058324Y017833D01*
X052198Y015117D02*
X052198Y014920D01*
X074414Y004861D02*
X074416Y004911D01*
X074422Y004961D01*
X074432Y005010D01*
X074446Y005058D01*
X074463Y005105D01*
X074484Y005150D01*
X074509Y005194D01*
X074537Y005235D01*
X074569Y005274D01*
X074603Y005311D01*
X074640Y005345D01*
X074680Y005375D01*
X074722Y005402D01*
X074766Y005426D01*
X074812Y005447D01*
X074859Y005463D01*
X074907Y005476D01*
X074957Y005485D01*
X075006Y005490D01*
X075057Y005491D01*
X075107Y005488D01*
X075156Y005481D01*
X075205Y005470D01*
X075253Y005455D01*
X075299Y005437D01*
X075344Y005415D01*
X075387Y005389D01*
X075428Y005360D01*
X075467Y005328D01*
X075503Y005293D01*
X075535Y005255D01*
X075565Y005215D01*
X075592Y005172D01*
X075615Y005128D01*
X075634Y005082D01*
X075650Y005034D01*
X075662Y004985D01*
X075670Y004936D01*
X075674Y004886D01*
X075674Y004836D01*
X075670Y004786D01*
X075662Y004737D01*
X075650Y004688D01*
X075634Y004640D01*
X075615Y004594D01*
X075592Y004550D01*
X075565Y004507D01*
X075535Y004467D01*
X075503Y004429D01*
X075467Y004394D01*
X075428Y004362D01*
X075387Y004333D01*
X075344Y004307D01*
X075299Y004285D01*
X075253Y004267D01*
X075205Y004252D01*
X075156Y004241D01*
X075107Y004234D01*
X075057Y004231D01*
X075006Y004232D01*
X074957Y004237D01*
X074907Y004246D01*
X074859Y004259D01*
X074812Y004275D01*
X074766Y004296D01*
X074722Y004320D01*
X074680Y004347D01*
X074640Y004377D01*
X074603Y004411D01*
X074569Y004448D01*
X074537Y004487D01*
X074509Y004528D01*
X074484Y004572D01*
X074463Y004617D01*
X074446Y004664D01*
X074432Y004712D01*
X074422Y004761D01*
X074416Y004811D01*
X074414Y004861D01*
D18*
X059293Y018184D02*
X059216Y018107D01*
X059063Y018107D01*
X058986Y018184D01*
X058986Y018337D02*
X059139Y018414D01*
X059216Y018414D01*
X059293Y018337D01*
X059293Y018184D01*
X058986Y018337D02*
X058986Y018568D01*
X059293Y018568D01*
X058832Y018491D02*
X058756Y018568D01*
X058602Y018568D01*
X058525Y018491D01*
X058525Y018184D01*
X058602Y018107D01*
X058756Y018107D01*
X058832Y018184D01*
X058372Y018107D02*
X058218Y018107D01*
X058295Y018107D02*
X058295Y018568D01*
X058218Y018568D02*
X058372Y018568D01*
M02*
