%
M48
M72
T01C0.0098
T02C0.0197
T03C0.0394
T04C0.0440
T05C0.0472
T06C0.0787
T07C0.1299
%
T01
X17352Y6303
X18977Y6991
X19227Y7241
X21977Y7678
X22665Y7741
X23665Y8178
X24852Y8678
X25352Y8928
X24852Y9053
X25852Y8803
X28727Y9553
X29290Y9553
X29852Y9303
X30852Y9428
X32477Y9366
X33165Y10053
X31540Y10678
X31165Y10803
X30852Y11116
X30165Y10678
X29540Y11116
X28477Y11491
X27477Y11428
X27477Y11803
X28915Y11866
X29290Y11866
X29915Y12053
X29102Y12678
X29102Y13053
X30040Y13366
X29290Y13553
X29102Y13866
X28602Y13553
X27540Y13866
X28102Y14178
X28852Y14178
X28602Y14678
X27102Y14678
X27102Y15053
X25977Y14616
X25665Y14803
X25665Y14428
X24540Y14491
X24727Y15678
X24290Y15678
X23540Y15741
X23540Y16116
X24727Y16053
X25352Y16303
X25727Y16741
X27102Y16741
X28102Y16741
X29227Y17241
X28790Y18178
X28102Y18178
X28290Y18553
X27352Y18553
X25977Y18303
X25227Y18178
X24727Y18053
X25227Y18553
X24290Y18803
X23790Y18553
X20977Y19616
X20602Y18303
X18352Y18053
X20540Y17241
X20540Y16866
X20790Y16366
X20790Y15991
X20352Y15616
X20790Y15303
X19665Y15303
X20790Y14803
X19790Y14491
X15727Y14053
X15165Y14116
X14915Y14366
X13665Y13803
X13290Y13803
X14415Y13491
X14977Y12553
X13540Y12303
X12415Y12428
X12415Y12053
X14415Y11678
X14977Y11491
X14977Y11116
X15790Y10866
X18852Y11116
X19665Y11241
X19352Y10241
X21790Y10303
X24227Y11491
X23977Y12116
X25477Y12116
X26040Y11803
X27102Y12366
X25977Y13116
X27040Y13366
X24540Y13053
X21540Y12053
X20540Y12491
X20790Y12741
X20790Y13116
X17415Y12178
X16790Y12053
X16415Y12116
X7227Y12178
X5290Y11928
X15102Y14928
X15352Y15178
X15540Y15491
X15852Y15803
X15352Y16053
X15102Y16303
X16477Y16241
X14915Y16803
X13165Y16303
X11665Y15428
X10040Y15553
X8165Y16491
X7915Y16803
X7665Y17053
X7165Y16491
X6477Y17428
X6727Y17678
X10352Y17991
X11852Y19178
X12352Y19428
X6165Y19553
X4165Y20053
X20477Y21366
X25477Y21428
X26540Y21616
X28915Y20678
X29352Y20428
X26977Y20553
X26977Y19866
X25665Y19866
X32665Y20678
X33915Y20178
X34165Y19928
X36040Y20178
X36477Y19928
X41477Y19991
X42227Y19053
X43665Y18178
X41977Y17491
X41727Y17241
X41352Y17241
X40977Y17241
X40602Y17241
X40227Y17241
X39415Y17241
X38915Y17241
X37790Y17678
X37540Y17428
X37290Y17803
X37102Y17241
X36727Y17241
X36352Y17241
X34665Y17241
X34290Y17116
X33915Y17116
X33415Y17241
X32915Y17366
X34227Y17491
X37040Y16491
X38540Y15803
X39665Y15678
X40165Y15803
X40540Y15803
X41040Y15803
X40165Y15303
X39915Y15053
X38540Y15428
X38352Y15116
X36915Y15366
X37165Y15616
X36540Y15303
X36290Y14928
X36477Y14616
X35165Y14303
X33665Y14741
X35165Y14991
X35227Y15553
X32102Y15616
X32102Y14928
X31602Y14678
X30040Y13741
X31352Y13491
X28852Y15303
X29727Y15553
X29227Y15803
X28852Y15803
X28477Y15803
X25415Y15616
X37165Y13991
X38102Y13678
X38352Y14241
X39415Y13553
X39665Y13303
X40727Y13116
X40727Y13491
X40477Y13741
X41227Y13803
X41477Y13553
X41977Y13678
X42227Y13928
X42227Y14303
X43227Y14178
X42227Y14866
X44102Y16428
X44477Y16803
X42977Y16741
X42977Y17116
X41352Y17866
X40977Y17866
X40602Y17866
X39977Y17991
X46790Y19928
X47165Y19803
X47977Y19928
X48477Y19803
X49477Y20428
X49915Y20678
X51852Y19241
X51977Y18741
X54540Y18866
X55290Y18866
X56040Y18866
X56540Y18866
X57040Y18866
X57540Y18866
X56290Y19616
X55852Y19491
X60415Y19491
X61165Y18741
X60165Y17741
X61540Y16928
X62040Y17053
X63290Y17241
X62165Y16491
X64165Y16303
X67477Y15491
X68290Y15428
X69540Y15803
X70102Y15303
X68665Y16303
X69852Y16803
X73165Y16616
X66977Y18178
X66665Y18366
X69727Y19241
X70040Y19053
X70665Y19053
X70665Y18553
X72540Y19303
X68040Y20491
X63665Y20366
X62915Y20366
X53540Y17553
X53040Y17553
X54415Y17241
X57665Y17241
X59165Y16803
X62915Y14366
X66852Y12866
X66665Y12303
X66852Y11678
X71977Y11741
X72727Y11741
X73977Y9053
X71040Y9053
X70290Y8553
X69602Y8178
X68227Y8866
X67352Y8616
X63790Y8241
X63102Y8366
X62602Y8116
X62352Y7741
X63227Y7866
X63290Y7366
X63915Y6803
X63915Y6053
X64290Y6053
X64477Y5428
X64102Y5428
X63540Y5428
X61415Y5241
X62727Y4616
X61165Y6553
X60102Y7241
X60102Y7741
X57040Y7116
X56790Y7366
X58290Y6553
X53602Y6491
X53540Y7803
X53040Y7678
X49415Y6678
X49165Y6428
X48915Y6178
X49290Y5803
X50102Y6428
X49040Y7053
X47915Y7928
X46165Y6616
X46165Y6241
X46165Y5178
X40727Y6053
X38790Y5803
X37852Y5803
X38290Y6491
X37977Y6678
X39915Y6866
X41665Y7241
X42415Y7241
X40040Y8366
X39665Y8366
X37727Y8616
X37352Y8616
X36727Y8991
X38352Y9678
X38040Y10178
X38540Y10616
X39665Y10678
X39227Y10928
X40477Y10741
X40852Y10741
X44352Y10741
X45540Y10053
X45790Y9803
X47165Y10116
X49102Y11116
X44290Y9741
X41977Y9678
X41227Y9678
X40040Y9116
X36665Y9803
X30540Y8116
X29165Y8491
X28977Y8803
X30290Y7866
X29790Y7303
X28790Y7053
X27477Y7303
X30415Y6616
X31227Y6866
X30415Y6053
X32852Y4178
X33227Y4178
X31727Y4053
X37915Y3553
X38415Y3303
X40665Y3428
X41602Y3303
X22540Y5178
X22540Y6241
X21977Y8678
X20790Y8741
X16227Y9053
X28165Y10616
X37165Y12491
X38477Y12491
X38727Y12741
X39415Y12553
X39415Y12178
X41977Y12803
X41977Y13303
X38540Y13053
X47040Y13303
X47665Y13428
X52040Y13928
X52040Y14303
X53665Y13866
X59227Y9553
T02
X62977Y6991
X66477Y7116
X66102Y5178
X56790Y6803
X63540Y12491
X67415Y16553
X70165Y16553
X72915Y16928
X64165Y16741
X63915Y17491
X69790Y20866
X51040Y16928
X38977Y14928
X35165Y16491
X33227Y14428
X24977Y16678
X26540Y18241
X14227Y17866
X8602Y17553
X8602Y18366
X15790Y6678
T03
X16375Y15687
X17375Y15687
X17375Y18246
X16375Y18246
X27111Y21199
X27820Y21199
X28529Y21199
X29237Y21199
X29946Y21199
X30655Y21199
X31363Y21199
X32072Y21199
X32781Y21199
X33489Y21199
X34198Y21199
X34907Y21199
X35615Y21199
X36324Y21199
X37033Y21199
X37741Y21199
X38450Y21199
X39159Y21199
X39867Y21199
X40576Y21199
X41285Y21199
X41993Y21199
X42702Y21199
X43411Y21199
X44119Y21199
X44828Y21199
X45537Y21199
X46245Y21199
X46954Y21199
X47663Y21199
X48371Y21199
X49080Y21199
X49789Y21199
X50497Y21199
X51206Y21199
X51915Y21199
X61651Y18246
X62651Y18246
X62651Y15687
X61651Y15687
T04
X15300Y3778
X16481Y3778
X15300Y7715
X15300Y9014
X2111Y12439
X20025Y19132
X21403Y19132
X4867Y20805
X3489Y20805
X2111Y20805
X30852Y8699
X32426Y8699
X46009Y8502
X48765Y8502
X58017Y7715
X59395Y7715
X76206Y7124
X76206Y8502
X76127Y14211
T05
X71107Y9683
X70123Y9683
X69139Y9683
X53243Y5057
X49306Y5057
X45369Y5057
X41432Y5057
X37495Y5057
X33558Y5057
X29621Y5057
X25684Y5057
X21747Y5057
X17810Y5057
X18794Y8010
X19779Y8010
X20763Y8010
X26668Y8010
X27653Y8010
X28637Y8010
X34543Y8010
X35527Y8010
X36511Y8010
X42417Y8010
X43401Y8010
X44385Y8010
X50291Y8010
X51275Y8010
X52259Y8010
T06
X57426Y20609
X21403Y20609
T07
X8657Y20313
X75044Y4861
M30
